<svg xmlns="http://www.w3.org/2000/svg" version="1.1" xmlns:xlink="http://www.w3.org/1999/xlink" xmlns:svgjs="http://svgjs.com/svgjs" width="36" height="30"><svg width="36" height="30" viewBox="0 0 36 30" fill="none" xmlns="http://www.w3.org/2000/svg">
<path d="M17.8915 29.3333C15.8785 29.3333 13.926 28.9142 12.0895 28.0935C10.3842 27.326 9.18341 26.3282 8.32572 24.9585C7.7556 24.0552 7.48316 23.0751 7.4882 21.9651C7.49325 20.7666 7.49325 19.5445 7.49325 18.3637C7.49325 17.1238 7.49325 15.8427 7.49829 14.5851C7.49829 14.16 7.35198 13.8944 7.02404 13.7349C6.23193 13.3394 5.42469 12.932 4.64268 12.5364C3.69921 12.0582 2.72043 11.5623 1.75174 11.084C1.35821 10.8892 1.12613 10.6649 1 10.3401V9.85601C1.12613 9.5372 1.34812 9.31875 1.75174 9.11211C6.77682 6.57338 12.0794 3.89296 17.503 1.13579C17.6796 1.04723 17.8411 1 18.0025 1C18.1589 1 18.3204 1.04133 18.4919 1.12989C24.3797 4.11732 29.541 6.73279 34.2785 9.12392C34.6569 9.31284 34.8739 9.5372 35 9.85011V10.3342C34.8739 10.6649 34.6367 10.8951 34.223 11.09C33.6832 11.3497 33.1433 11.6272 32.6186 11.8929C32.3916 12.0051 32.1696 12.1232 31.9426 12.2412L31.7609 12.3357V15.2464C31.7609 19.0663 31.7609 23.016 31.7609 26.9009C31.7609 27.0839 31.7559 27.2669 31.7155 27.4263C31.6247 27.7983 31.322 28.064 30.984 28.064C30.9537 28.064 30.9285 28.064 30.8982 28.0581C30.5349 28.0108 30.2423 27.6566 30.207 27.2315C30.202 27.143 30.202 27.0426 30.202 26.9422C30.202 26.9068 30.202 26.8655 30.202 26.83C30.202 23.2286 30.202 13.1386 30.202 13.1386L29.7832 13.3512C29.6873 13.3984 29.5965 13.4457 29.5057 13.487C29.2585 13.6051 29.0315 13.7172 28.8044 13.8589C28.532 14.0301 28.5269 14.5084 28.5269 14.5615C28.5269 15.1814 28.5168 15.8132 28.5118 16.4272C28.4967 18.0449 28.4815 19.7216 28.537 21.3688C28.6127 23.5946 27.8458 25.3009 26.1254 26.7297C24.7934 27.8396 23.2143 28.5717 21.3021 28.9732C20.1367 29.2094 18.9914 29.3333 17.8915 29.3333ZM9.04214 15.7895C9.04214 16.3681 9.04214 16.9467 9.04214 17.5253C9.04214 18.9364 9.04719 20.3947 9.03205 21.8293C9.02196 22.7208 9.26918 23.4943 9.77875 24.1909C10.4094 25.0588 11.2217 25.7142 12.261 26.2101C14.1177 27.0898 16.0298 27.5326 17.9521 27.5385C19.6372 27.5385 21.3728 27.1961 23.0982 26.5112C24.4352 25.9858 25.4594 25.2241 26.2162 24.185C26.524 23.7659 26.9326 23.1105 26.9377 22.2603C26.9528 20.6013 26.9478 18.9836 26.9478 17.2655C26.9478 16.622 26.9478 15.9785 26.9478 15.329V14.8095L26.5341 15.0043C26.4836 15.0279 26.4382 15.0515 26.3928 15.0693C26.302 15.1106 26.2263 15.146 26.1456 15.1873C25.5553 15.4825 24.965 15.7836 24.3797 16.0788C22.4625 17.0471 20.4797 18.0508 18.5323 19.0427C18.3406 19.143 18.164 19.1903 17.9975 19.1903C17.831 19.1903 17.6645 19.143 17.4829 19.0545C15.5253 18.0508 13.5274 17.0412 11.6001 16.067C11.0148 15.7718 10.4245 15.4707 9.83929 15.1755C9.75857 15.1342 9.67785 15.0988 9.59208 15.0633C9.55171 15.0456 9.50631 15.0279 9.45585 15.0043L9.04214 14.8154V15.7895ZM18.0076 2.99555C17.8613 2.99555 17.72 3.02507 17.5989 3.08412C15.6867 4.04056 13.7494 5.02063 11.8776 5.97118C11.2671 6.27818 10.6566 6.5911 10.0461 6.89811C8.76465 7.54755 7.47811 8.19699 6.16635 8.85824L3.78498 10.0627L4.38537 10.3992C4.44087 10.4287 4.49132 10.4582 4.53168 10.4818C4.60736 10.5232 4.6679 10.5586 4.73349 10.594L6.20671 11.3379C9.94524 13.2331 13.8099 15.1873 17.614 17.1002C17.725 17.1534 17.8562 17.1829 17.9975 17.1829C18.1438 17.1829 18.2951 17.1475 18.4162 17.0884C20.0459 16.2796 21.6906 15.4471 23.2849 14.6383L24.3343 14.1069C24.8338 13.853 25.3333 13.5992 25.8529 13.3335L27.3716 12.5601L26.5441 12.2944C26.4987 12.2826 26.4584 12.2648 26.4281 12.253C26.3575 12.2294 26.2919 12.2058 26.2213 12.194L25.3636 12.07C22.9671 11.7158 20.4898 11.3556 18.0479 11.0014C17.5081 10.9246 17.1801 10.5114 17.2306 9.98C17.276 9.49587 17.609 9.18296 18.0782 9.18296C18.1337 9.18296 18.1892 9.18886 18.2497 9.19476C18.9107 9.30104 19.5817 9.3955 20.2325 9.48996L20.6967 9.56081C21.5241 9.6848 22.3566 9.80288 23.184 9.92686C25.1567 10.2162 27.195 10.5114 29.203 10.8125L29.2989 10.8243C29.5814 10.8656 29.874 10.9128 30.1666 10.9128C30.7569 10.9128 31.2161 10.7239 31.6197 10.3283L31.9577 9.99181L31.5642 9.74384C31.544 9.73203 31.5289 9.72022 31.5087 9.70841C31.4633 9.67889 31.4078 9.64347 31.3472 9.60804L30.1011 8.97632C26.2616 7.05161 22.3011 5.04425 18.4011 3.08412C18.2851 3.02507 18.1488 2.99555 18.0076 2.99555Z" fill="#F78F1E" stroke="#F78F1E" stroke-width="0.5"></path>
</svg><style>@media (prefers-color-scheme: light) { :root { filter: none; } }
</style></svg>