<svg width="13" height="10" viewBox="0 0 13 10" fill="none" xmlns="http://www.w3.org/2000/svg">
<path d="M11.2305 0.980989L11.2305 0.980999L4.74749 7.3351L2.36328 4.99831C2.36328 4.99831 2.36327 4.9983 2.36327 4.9983C2.04902 4.69028 1.54162 4.69035 1.22738 4.99828L1.22737 4.99829C0.910308 5.30902 0.910321 5.81492 1.22736 6.12566L1.22737 6.12566L4.17952 9.01905C4.17952 9.01906 4.17953 9.01907 4.17954 9.01908C4.49377 9.32712 5.00144 9.32683 5.31545 9.01907L12.3664 2.10838C12.3664 2.10838 12.3664 2.10838 12.3664 2.10837C12.6835 1.79763 12.6834 1.29173 12.3664 0.981006C12.0522 0.672988 11.5447 0.673013 11.2305 0.980989Z" fill="white" stroke="white" stroke-width="0.5"/>
</svg>
