<svg width="24" height="19" viewBox="0 0 24 19" fill="none" xmlns="http://www.w3.org/2000/svg">
<g filter="url(#filter0_d_1090_65)">
<path d="M16.5726 5.07993C16.5139 5.07993 16.4591 5.07993 16.4004 5.07993C12.8515 5.07993 9.30261 5.07993 5.75369 5.07993C5.65978 5.07993 5.56587 5.07629 5.47588 5.09449C5.18242 5.15638 4.97504 5.43307 5.00243 5.70248C5.03764 6.00101 5.27632 6.21581 5.58935 6.23401C5.65195 6.23766 5.71456 6.23766 5.78108 6.23766C9.31826 6.23766 12.8594 6.23766 16.3965 6.23766C16.4552 6.23766 16.51 6.23766 16.6078 6.23766C16.5491 6.29955 16.51 6.33595 16.4748 6.37236C15.4379 7.33713 14.4049 8.3019 13.368 9.26304C13.2311 9.39046 13.1332 9.5288 13.1372 9.71448C13.1372 9.94748 13.2506 10.1259 13.4737 10.2351C13.7006 10.3443 13.9275 10.3225 14.1349 10.1841C14.1819 10.1514 14.221 10.1113 14.264 10.0749C15.6766 8.76063 17.0891 7.44635 18.4977 6.13208C18.8381 5.81534 18.8381 5.4986 18.4977 5.18551C17.0774 3.86031 15.6531 2.53875 14.2327 1.21356C14.0449 1.03881 13.8336 0.955072 13.5715 1.02424C13.1411 1.1371 12.9767 1.62131 13.2545 1.94533C13.2898 1.98902 13.3328 2.02542 13.3758 2.06547C14.4088 3.0266 15.4379 3.98773 16.4709 4.94522C16.51 4.98163 16.557 5.00712 16.5961 5.03624C16.5922 5.04716 16.5804 5.06173 16.5726 5.07993Z" fill="#212121"/>
<path d="M5.44614 4.94747L5.44492 4.94771C5.08314 5.02402 4.81738 5.36535 4.8532 5.71765L4.85344 5.72005L4.85346 5.72005C4.89782 6.09613 5.20046 6.36165 5.58064 6.38376C5.64762 6.38766 5.71393 6.38766 5.77898 6.38766H5.78108H5.8018H5.82253H5.84325H5.86398H5.88471H5.90543H5.92616H5.94688H5.96761H5.98834H6.00906H6.02979H6.05052H6.07124H6.09197H6.1127H6.13343H6.15415H6.17488H6.19561H6.21633H6.23706H6.25779H6.27852H6.29924H6.31997H6.3407H6.36143H6.38216H6.40288H6.42361H6.44434H6.46507H6.4858H6.50653H6.52726H6.54798H6.56871H6.58944H6.61017H6.6309H6.65163H6.67236H6.69309H6.71382H6.73455H6.75528H6.77601H6.79673H6.81746H6.83819H6.85892H6.87965H6.90038H6.92111H6.94184H6.96257H6.9833H7.00403H7.02476H7.0455H7.06623H7.08696H7.10769H7.12842H7.14915H7.16988H7.19061H7.21134H7.23207H7.2528H7.27353H7.29427H7.315H7.33573H7.35646H7.37719H7.39792H7.41865H7.43939H7.46012H7.48085H7.50158H7.52231H7.54305H7.56378H7.58451H7.60524H7.62597H7.64671H7.66744H7.68817H7.7089H7.72964H7.75037H7.7711H7.79183H7.81257H7.8333H7.85403H7.87477H7.8955H7.91623H7.93696H7.9577H7.97843H7.99916H8.0199H8.04063H8.06136H8.0821H8.10283H8.12356H8.1443H8.16503H8.18577H8.2065H8.22723H8.24797H8.2687H8.28943H8.31017H8.3309H8.35164H8.37237H8.3931H8.41384H8.43457H8.45531H8.47604H8.49678H8.51751H8.53824H8.55898H8.57971H8.60045H8.62118H8.64192H8.66265H8.68339H8.70412H8.72486H8.74559H8.76633H8.78706H8.8078H8.82853H8.84927H8.87H8.89074H8.91147H8.93221H8.95294H8.97368H8.99441H9.01515H9.03588H9.05662H9.07736H9.09809H9.11883H9.13956H9.1603H9.18103H9.20177H9.2225H9.24324H9.26398H9.28471H9.30545H9.32618H9.34692H9.36766H9.38839H9.40913H9.42986H9.4506H9.47133H9.49207H9.51281H9.53354H9.55428H9.57502H9.59575H9.61649H9.63722H9.65796H9.6787H9.69943H9.72017H9.74091H9.76164H9.78238H9.80312H9.82385H9.84459H9.86532H9.88606H9.9068H9.92753H9.94827H9.96901H9.98974H10.0105H10.0312H10.052H10.0727H10.0934H10.1142H10.1349H10.1556H10.1764H10.1971H10.2178H10.2386H10.2593H10.2801H10.3008H10.3215H10.3423H10.363H10.3837H10.4045H10.4252H10.446H10.4667H10.4874H10.5082H10.5289H10.5496H10.5704H10.5911H10.6119H10.6326H10.6533H10.6741H10.6948H10.7155H10.7363H10.757H10.7777H10.7985H10.8192H10.84H10.8607H10.8814H10.9022H10.9229H10.9436H10.9644H10.9851H11.0059H11.0266H11.0473H11.0681H11.0888H11.1095H11.1303H11.151H11.1718H11.1925H11.2132H11.234H11.2547H11.2754H11.2962H11.3169H11.3376H11.3584H11.3791H11.3999H11.4206H11.4413H11.4621H11.4828H11.5035H11.5243H11.545H11.5658H11.5865H11.6072H11.628H11.6487H11.6694H11.6902H11.7109H11.7317H11.7524H11.7731H11.7939H11.8146H11.8353H11.8561H11.8768H11.8975H11.9183H11.939H11.9598H11.9805H12.0012H12.022H12.0427H12.0634H12.0842H12.1049H12.1257H12.1464H12.1671H12.1879H12.2086H12.2293H12.2501H12.2708H12.2915H12.3123H12.333H12.3538H12.3745H12.3952H12.416H12.4367H12.4574H12.4782H12.4989H12.5196H12.5404H12.5611H12.5819H12.6026H12.6233H12.6441H12.6648H12.6855H12.7063H12.727H12.7477H12.7685H12.7892H12.81H12.8307H12.8514H12.8722H12.8929H12.9136H12.9344H12.9551H12.9758H12.9966H13.0173H13.038H13.0588H13.0795H13.1003H13.121H13.1417H13.1625H13.1832H13.2039H13.2247H13.2454H13.2661H13.2869H13.3076H13.3283H13.3491H13.3698H13.3905H13.4113H13.432H13.4528H13.4735H13.4942H13.515H13.5357H13.5564H13.5772H13.5979H13.6186H13.6394H13.6601H13.6808H13.7016H13.7223H13.743H13.7638H13.7845H13.8052H13.826H13.8467H13.8674H13.8882H13.9089H13.9296H13.9504H13.9711H13.9918H14.0126H14.0333H14.054H14.0748H14.0955H14.1162H14.137H14.1577H14.1784H14.1992H14.2199H14.2406H14.2614H14.2821H14.3028H14.3236H14.3443H14.365H14.3858H14.4065H14.4272H14.448H14.4687H14.4894H14.5102H14.5309H14.5516H14.5724H14.5931H14.6138H14.6346H14.6553H14.676H14.6968H14.7175H14.7382H14.759H14.7797H14.8004H14.8211H14.8419H14.8626H14.8833H14.9041H14.9248H14.9455H14.9663H14.987H15.0077H15.0285H15.0492H15.0699H15.0907H15.1114H15.1321H15.1528H15.1736H15.1943H15.215H15.2358H15.2565H15.2772H15.298H15.3187H15.3394H15.3601H15.3809H15.4016H15.4223H15.4431H15.4638H15.4845H15.5052H15.526H15.5467H15.5674H15.5882H15.6089H15.6296H15.6504H15.6711H15.6918H15.7125H15.7333H15.754H15.7747H15.7955H15.8162H15.8369H15.8576H15.8784H15.8991H15.9198H15.9405H15.9613H15.982H16.0027H16.0235H16.0442H16.0649H16.0856H16.1064H16.1271H16.1478H16.1685H16.1893H16.21H16.2307H16.2382L5.44614 4.94747ZM5.44614 4.94747C5.53982 4.92852 5.63737 4.9292 5.7168 4.92975C5.7296 4.92984 5.74192 4.92993 5.75369 4.92993H5.77448H5.79528H5.81607H5.83686H5.85766H5.87845H5.89925H5.92004H5.94084H5.96163H5.98243H6.00322H6.02401H6.04481H6.0656H6.0864H6.10719H6.12799H6.14878H6.16958H6.19037H6.21116H6.23196H6.25275H6.27355H6.29434H6.31514H6.33593H6.35673H6.37752H6.39831H6.41911H6.4399H6.4607H6.48149H6.50229H6.52308H6.54388H6.56467H6.58546H6.60626H6.62705H6.64785H6.66864H6.68944H6.71023H6.73103H6.75182H6.77261H6.79341H6.8142H6.835H6.85579H6.87659H6.89738H6.91818H6.93897H6.95976H6.98056H7.00135H7.02215H7.04294H7.06374H7.08453H7.10533H7.12612H7.14691H7.16771H7.1885H7.2093H7.23009H7.25089H7.27168H7.29248H7.31327H7.33406H7.35486H7.37565H7.39645H7.41724H7.43804H7.45883H7.47963H7.50042H7.52121H7.54201H7.5628H7.5836H7.60439H7.62519H7.64598H7.66678H7.68757H7.70836H7.72916H7.74995H7.77075H7.79154H7.81234H7.83313H7.85393H7.87472H7.89551H7.91631H7.9371H7.9579H7.97869H7.99949H8.02028H8.04108H8.06187H8.08266H8.10346H8.12425H8.14505H8.16584H8.18664H8.20743H8.22823H8.24902H8.26981H8.29061H8.3114H8.3322H8.35299H8.37379H8.39458H8.41538H8.43617H8.45696H8.47776H8.49855H8.51935H8.54014H8.56094H8.58173H8.60253H8.62332H8.64411H8.66491H8.6857H8.7065H8.72729H8.74809H8.76888H8.78968H8.81047H8.83126H8.85206H8.87285H8.89365H8.91444H8.93524H8.95603H8.97683H8.99762H9.01841H9.03921H9.06H9.0808H9.10159H9.12239H9.14318H9.16398H9.18477H9.20556H9.22636H9.24715H9.26795H9.28874H9.30954H9.33033H9.35113H9.37192H9.39271H9.41351H9.4343H9.4551H9.47589H9.49669H9.51748H9.53828H9.55907H9.57986H9.60066H9.62145H9.64225H9.66304H9.68384H9.70463H9.72543H9.74622H9.76701H9.78781H9.8086H9.8294H9.85019H9.87099H9.89178H9.91258H9.93337H9.95416H9.97496H9.99575H10.0165H10.0373H10.0581H10.0789H10.0997H10.1205H10.1413H10.1621H10.1829H10.2037H10.2245H10.2453H10.2661H10.2869H10.3077H10.3285H10.3493H10.3701H10.3908H10.4116H10.4324H10.4532H10.474H10.4948H10.5156H10.5364H10.5572H10.578H10.5988H10.6196H10.6404H10.6612H10.682H10.7028H10.7236H10.7444H10.7651H10.7859H10.8067H10.8275H10.8483H10.8691H10.8899H10.9107H10.9315H10.9523H10.9731H10.9939H11.0147H11.0355H11.0563H11.0771H11.0979H11.1187H11.1394H11.1602H11.181H11.2018H11.2226H11.2434H11.2642H11.285H11.3058H11.3266H11.3474H11.3682H11.389H11.4098H11.4306H11.4514H11.4722H11.493H11.5137H11.5345H11.5553H11.5761H11.5969H11.6177H11.6385H11.6593H11.6801H11.7009H11.7217H11.7425H11.7633H11.7841H11.8049H11.8257H11.8465H11.8673H11.888H11.9088H11.9296H11.9504H11.9712H11.992H12.0128H12.0336H12.0544H12.0752H12.096H12.1168H12.1376H12.1584H12.1792H12.2H12.2208H12.2416H12.2623H12.2831H12.3039H12.3247H12.3455H12.3663H12.3871H12.4079H12.4287H12.4495H12.4703H12.4911H12.5119H12.5327H12.5535H12.5743H12.5951H12.6159H12.6366H12.6574H12.6782H12.699H12.7198H12.7406H12.7614H12.7822H12.803H12.8238H12.8446H12.8654H12.8862H12.907H12.9278H12.9486H12.9694H12.9902H13.0109H13.0317H13.0525H13.0733H13.0941H13.1149H13.1357H13.1565H13.1773H13.1981H13.2189H13.2397H13.2605H13.2813H13.3021H13.3229H13.3437H13.3645H13.3852H13.406H13.4268H13.4476H13.4684H13.4892H13.51H13.5308H13.5516H13.5724H13.5932H13.614H13.6348H13.6556H13.6764H13.6972H13.718H13.7388H13.7595H13.7803H13.8011H13.8219H13.8427H13.8635H13.8843H13.9051H13.9259H13.9467H13.9675H13.9883H14.0091H14.0299H14.0507H14.0715H14.0923H14.1131H14.1338H14.1546H14.1754H14.1962H14.217H14.2378H14.2586H14.2794H14.3002H14.321H14.3418H14.3626H14.3834H14.4042H14.425H14.4458H14.4666H14.4874H14.5081H14.5289H14.5497H14.5705H14.5913H14.6121H14.6329H14.6537H14.6745H14.6953H14.7161H14.7369H14.7577H14.7785H14.7993H14.8201H14.8409H14.8617H14.8824H14.9032H14.924H14.9448H14.9656H14.9864H15.0072H15.028H15.0488H15.0696H15.0904H15.1112H15.132H15.1528H15.1736H15.1944H15.2152H15.236H15.2567H15.2775H15.2983H15.3191H15.3399H15.3607H15.3815H15.4023H15.4231H15.4439H15.4647H15.4855H15.5063H15.5271H15.5479H15.5687H15.5895H15.6103H15.631H15.6518H15.6726H15.6934H15.7142H15.735H15.7558H15.7766H15.7974H15.8182H15.839H15.8598H15.8806H15.9014H15.9222H15.943H15.9638H15.9846H16.0053H16.0261H16.0469H16.0677H16.0885H16.1093H16.1301H16.1509H16.1717H16.1925H16.2133H16.2338L5.44614 4.94747ZM13.4086 10.3703L13.4077 10.3698L13.4737 10.2351L13.4086 10.3703ZM16.6078 6.23766C16.5719 6.27548 16.5434 6.30379 16.5186 6.3284C16.5028 6.34405 16.4885 6.3582 16.4748 6.37236C16.4693 6.37746 16.4638 6.38256 16.4583 6.38766H16.4583H16.4579H16.4576H16.4572H16.4569H16.4565H16.4561H16.4558H16.4554H16.4551H16.4547H16.4543H16.454H16.4536H16.4533H16.4529H16.4526H16.4522H16.4518H16.4515H16.4511H16.4508H16.4504H16.4501H16.4497H16.4494H16.449H16.4486H16.4483H16.4479H16.4476H16.4472H16.4469H16.4465H16.4462H16.4458H16.4455H16.4451H16.4448H16.4444H16.4441H16.4437H16.4434H16.443H16.4427H16.4423H16.4419H16.4416H16.4412H16.4409H16.4405H16.4402H16.4399H16.4395H16.4392H16.4388H16.4385H16.4381H16.4378H16.4374H16.4371H16.4367H16.4364H16.436H16.4357H16.4353H16.435H16.4346H16.4343H16.4339H16.4336H16.4332H16.4329H16.4326H16.4322H16.4319H16.4315H16.4312H16.4308H16.4305H16.4301H16.4298H16.4294H16.4291H16.4288H16.4284H16.4281H16.4277H16.4274H16.427H16.4267H16.4263H16.426H16.4257H16.4253L16.6078 6.23766ZM14.3663 10.1848L14.3609 10.1894L14.264 10.0749L14.3663 10.1848Z" stroke="#212121" stroke-width="0.3"/>
</g>
<defs>
<filter id="filter0_d_1090_65" x="0.699921" y="0.699814" width="22.3531" height="17.9047" filterUnits="userSpaceOnUse" color-interpolation-filters="sRGB">
<feFlood flood-opacity="0" result="BackgroundImageFix"/>
<feColorMatrix in="SourceAlpha" type="matrix" values="0 0 0 0 0 0 0 0 0 0 0 0 0 0 0 0 0 0 127 0" result="hardAlpha"/>
<feOffset dy="4"/>
<feGaussianBlur stdDeviation="2"/>
<feComposite in2="hardAlpha" operator="out"/>
<feColorMatrix type="matrix" values="0 0 0 0 0 0 0 0 0 0 0 0 0 0 0 0 0 0 0.25 0"/>
<feBlend mode="normal" in2="BackgroundImageFix" result="effect1_dropShadow_1090_65"/>
<feBlend mode="normal" in="SourceGraphic" in2="effect1_dropShadow_1090_65" result="shape"/>
</filter>
</defs>
</svg>
