<svg width="19" height="19" viewBox="0 0 19 19" fill="none" xmlns="http://www.w3.org/2000/svg">
<path d="M11.555 18C11.0953 18 10.6311 17.9954 10.185 17.9954C9.9438 17.9954 9.70712 17.9909 9.47044 17.9909C9.09266 17.9909 8.85143 17.736 8.85143 17.3491C8.85143 16.9622 9.09721 16.7119 9.47499 16.7119C9.95746 16.7074 10.4763 16.7074 11.0999 16.7074C11.5232 16.7074 11.9465 16.7074 12.3652 16.7074H12.9296C13.271 16.7074 13.5441 16.5981 13.7534 16.3751L13.9446 16.1748L13.7079 16.0292C13.6806 16.011 13.6488 15.9928 13.6214 15.9746C13.5623 15.9382 13.5077 15.9063 13.4576 15.8699C12.7293 15.3783 12.3561 14.7047 12.3516 13.8718C12.3425 12.5973 12.347 11.3274 12.3516 10.3671C12.3607 9.02892 13.2983 8.05033 14.641 7.98661C14.6637 7.98661 14.682 7.98206 14.7138 7.98206L14.7593 7.97751L14.9733 7.9593L14.9641 7.74538C14.8959 5.71084 14.0766 4.18153 12.5382 3.19839C11.5733 2.58394 10.581 2.26988 9.57968 2.26988C8.55558 2.26988 7.52238 2.59759 6.50739 3.24846C4.92345 4.25435 4.09507 5.76091 4.0268 7.71352L4.02225 7.90924L4.21796 7.94565C4.309 7.96386 4.39547 7.97751 4.48195 7.98661C4.65946 8.01392 4.81877 8.03668 4.97352 8.0822C5.94755 8.35529 6.63483 9.24284 6.64849 10.2396C6.66214 11.2956 6.66214 12.4562 6.65304 13.8991C6.64394 15.1963 5.6608 16.2067 4.36361 16.2431C4.22707 16.2477 4.04501 16.2522 3.8675 16.2522C3.44875 16.2522 3.11649 16.2249 2.81609 16.1703C1.89213 16.0019 1.17754 15.2281 1.03189 14.245C1.02734 14.1995 1.01368 14.1585 1.00458 14.1312V10.1304C1.01823 10.1031 1.02278 10.0803 1.02734 10.053C1.16843 9.1427 1.6509 8.5328 2.50203 8.18233C2.72506 8.0913 2.73871 7.90924 2.74782 7.82276V7.81365C2.76147 7.67256 2.77058 7.53146 2.77968 7.39491C2.80244 7.06265 2.82519 6.72128 2.89347 6.40268C3.17111 5.08728 3.83108 3.89023 4.80511 2.94351C5.77914 2.00134 6.98985 1.37323 8.3098 1.13199C8.50096 1.09558 8.69668 1.06827 8.88329 1.04096C8.96977 1.02731 9.05625 1.01365 9.13818 1H10.053C10.1623 1.01821 10.2761 1.03641 10.3807 1.05462C10.6311 1.09558 10.8678 1.13199 11.0908 1.20027C12.4972 1.60991 13.6305 2.27443 14.4635 3.17564C15.3101 4.0905 15.8745 5.2739 16.1384 6.70308C16.1794 6.9261 16.1976 7.14913 16.2113 7.39036V7.39491C16.2204 7.54056 16.234 7.69076 16.2477 7.83641C16.2613 7.95475 16.3524 8.11406 16.4935 8.17323C17.4356 8.57376 17.9818 9.38394 17.9864 10.3944C17.9909 11.5596 17.9909 12.7248 17.9864 13.849C17.9818 15.2236 16.9805 16.2295 15.6105 16.2477C15.3374 16.2522 15.2236 16.4024 15.1553 16.5481C14.6911 17.4948 14.0174 17.9636 13.0889 17.9863C12.6292 17.9954 12.1422 18 11.555 18ZM3.90846 9.27015C3.80377 9.27015 3.69909 9.27015 3.58985 9.27015H3.43965C2.70685 9.2747 2.28356 9.69344 2.28356 10.4217C2.28356 11.5869 2.28356 12.7293 2.28356 13.808C2.28356 14.5272 2.7023 14.9459 3.426 14.9596C3.56254 14.9596 3.70364 14.9641 3.84474 14.9641C3.98128 14.9641 4.10873 14.9641 4.23617 14.9596C4.93711 14.9459 5.3604 14.5181 5.3604 13.8126C5.3604 13.412 5.3604 13.007 5.3604 12.6064V12.1103C5.3604 11.9328 5.3604 11.7598 5.3604 11.5823C5.3604 11.1863 5.3604 10.7767 5.3604 10.3716C5.35585 9.7071 4.92345 9.2747 4.26348 9.2656C4.14514 9.27015 4.0268 9.27015 3.90846 9.27015ZM15.1553 9.27015C15.0233 9.27015 14.8913 9.27015 14.7593 9.27015C14.0538 9.2747 13.6305 9.70254 13.626 10.408C13.626 10.845 13.626 11.2819 13.626 11.7189V12.1103C13.626 12.2878 13.626 12.4653 13.626 12.6428C13.626 13.0479 13.626 13.4667 13.626 13.8809C13.6305 14.4862 14.0174 14.905 14.6046 14.9414C14.7684 14.9505 14.9368 14.9596 15.1098 14.9596C15.3283 14.9596 15.5558 14.9505 15.788 14.9323C16.234 14.9004 16.5845 14.5727 16.6619 14.113C16.6937 13.9218 16.6937 13.7352 16.6937 13.5531V13.5486C16.6983 12.2787 16.6983 11.3092 16.6937 10.3989C16.6937 9.69344 16.2659 9.2656 15.5558 9.2656C15.4284 9.27015 15.2919 9.27015 15.1553 9.27015Z" fill="#212121" stroke="#212121" stroke-width="0.3"/>
</svg>
