<svg width="19" height="20" viewBox="0 0 19 20" fill="none" xmlns="http://www.w3.org/2000/svg">
<path d="M3.05009 19C3.03586 18.9905 3.01687 18.981 2.99315 18.9763C1.70709 18.7153 1 17.8468 1 16.5418C1 12.826 1 8.8302 1 4.8012C1 4.63036 1.00475 4.44528 1.03796 4.26969C1.25152 3.12601 2.18165 2.35248 3.35381 2.34773C3.46296 2.34773 3.57685 2.34773 3.686 2.34773H4.36936C4.36936 2.34773 4.36936 2.1152 4.36936 2.04876C4.36936 1.90639 4.36936 1.77352 4.36936 1.63589C4.36936 1.26099 4.61139 0.999985 4.94833 0.999985C5.29001 0.999985 5.52254 1.26099 5.52254 1.64538C5.52254 1.78301 5.52254 1.92063 5.52254 2.0535V2.33349H13.8036V2.04876C13.8036 2.0013 13.8036 1.95385 13.8036 1.90639C13.8036 1.80199 13.8036 1.69284 13.8036 1.58844C13.8083 1.25625 14.0456 1.00473 14.3588 0.995239C14.3636 0.995239 14.3683 0.995239 14.3778 0.995239C14.6958 0.995239 14.9425 1.23726 14.9568 1.56471C14.9663 1.71182 14.9615 1.86368 14.9615 2.02029C14.9615 2.09621 14.9615 2.1674 14.9615 2.24333V2.33824H15.6733C15.7967 2.33824 15.9249 2.33824 16.0482 2.33824C16.4469 2.34299 16.8123 2.4379 17.135 2.63247C17.9275 3.09753 18.3261 3.80937 18.3261 4.73951C18.3261 6.50961 18.3261 8.27971 18.3261 10.0498V12.0382C18.3261 12.489 18.3261 12.9351 18.3261 13.386C18.3261 14.4395 18.3261 15.531 18.3261 16.6035C18.3214 17.7187 17.6523 18.6203 16.6225 18.9098C16.5465 18.9288 16.4706 18.9478 16.3947 18.9668C16.3615 18.9763 16.3282 18.981 16.295 18.9905H3.05009V19ZM2.16741 7.98074C2.16741 7.99972 2.16267 8.0187 2.16267 8.03294C2.15792 8.06616 2.15792 8.10412 2.15792 8.13734V9.99761C2.15792 12.1711 2.15792 14.4158 2.15792 16.6272C2.15792 17.3533 2.65146 17.8421 3.38703 17.8421C5.029 17.8421 6.67572 17.8421 8.31769 17.8421C10.8613 17.8421 13.4002 17.8421 15.9438 17.8421C16.0388 17.8421 16.1337 17.8421 16.2286 17.8231C16.8218 17.7044 17.1777 17.2394 17.1777 16.5797C17.1777 14.5154 17.1777 12.4511 17.1777 10.3868V7.89532H2.17216L2.16741 7.98074ZM3.42025 3.50565C2.64672 3.50565 2.16267 3.98496 2.15792 4.75374C2.15792 5.14288 2.15792 5.53676 2.15792 5.9259V6.71367H17.1635V6.61876C17.1635 6.40995 17.1635 6.20114 17.1682 5.99234C17.173 5.51778 17.1777 5.02424 17.1587 4.54494C17.135 4.03241 16.7553 3.61006 16.2476 3.53887C16.1099 3.51989 15.9676 3.5104 15.7872 3.5104C15.6686 3.5104 15.5452 3.51514 15.4266 3.51989C15.3079 3.52464 15.1798 3.52938 15.0612 3.52938H14.9663V3.62429C14.9663 3.69073 14.9663 3.75242 14.9663 3.81886C14.9663 3.95648 14.9663 4.1036 14.9663 4.24122C14.9568 4.59239 14.7147 4.84865 14.3873 4.8534H14.3825C14.0551 4.8534 13.8131 4.59239 13.8083 4.23173C13.8083 4.08936 13.8083 3.95174 13.8083 3.80937V3.51989H5.52729V3.79988C5.52729 3.84734 5.52729 3.89479 5.52729 3.94225C5.52729 4.04665 5.52729 4.15105 5.52729 4.25546C5.52254 4.59239 5.27577 4.84865 4.95307 4.84865C4.63512 4.84865 4.38835 4.60188 4.37411 4.27444C4.36936 4.12732 4.36936 3.97547 4.36936 3.81886C4.36936 3.74768 4.36936 3.67175 4.36936 3.59582V3.50091H3.74295L3.42025 3.50565Z" fill="#1D8BFA" stroke="#1D8BFA" stroke-width="0.2"/>
</svg>
