<svg width="15" height="18" viewBox="0 0 15 18" fill="none" xmlns="http://www.w3.org/2000/svg">
<path d="M13.2857 5.9176C13.2388 5.64126 13.014 5.44922 12.7424 5.44922C12.7002 5.44922 12.6627 5.4539 12.6206 5.46327C12.3395 5.51948 12.1756 5.7443 12.1756 6.07685C12.1756 7.87076 12.1756 9.65999 12.1756 11.4539V14.2314C12.1756 15.2291 11.4777 15.9223 10.4801 15.9223H4.51753C3.51988 15.9223 2.82198 15.2244 2.82198 14.2314V6.14711V6.10027C2.82198 6.05343 2.82198 6.01128 2.82198 5.96912C2.79856 5.67404 2.555 5.44922 2.26929 5.44922C2.2365 5.44922 2.20372 5.4539 2.17561 5.45859C1.87116 5.51011 1.70255 5.73493 1.70255 6.08154C1.70255 7.06983 1.70255 8.05812 1.70255 9.04641V10.2221V11.4492C1.70255 12.3907 1.70255 13.3321 1.70255 14.2689C1.70255 15.8239 2.92971 17.0464 4.48943 17.0464C5.30442 17.0464 6.12409 17.0464 6.93908 17.0464C8.13346 17.0464 9.32784 17.0464 10.5175 17.0417C10.7002 17.0417 10.8641 17.0277 11.0093 17.0043C12.3817 16.756 13.3044 15.6459 13.3044 14.2502C13.3044 11.5429 13.3044 8.84032 13.3044 6.13306C13.2997 6.07217 13.2951 5.99254 13.2857 5.9176Z" fill="#FF2E35" stroke="#FF2E35" stroke-width="0.1"/>
<path d="M13.9414 3.43556C13.829 3.28568 13.6464 3.20137 13.4403 3.19668C13.1499 3.19668 12.8361 3.192 12.4567 3.192C12.2365 3.192 12.0164 3.192 11.7916 3.192H11.7447C11.5105 3.192 11.2717 3.192 11.0375 3.192H10.3021V3.00465C10.3021 2.85008 10.3021 2.69551 10.3021 2.54563C10.3021 2.20371 10.3021 1.88053 10.3021 1.54797C10.2974 1.17327 10.0773 0.953125 9.70725 0.953125C8.23184 0.953125 6.76112 0.953125 5.29039 0.957809C4.92037 0.957809 4.70023 1.18263 4.69554 1.55734C4.69086 1.84774 4.69554 2.14282 4.69554 2.42853C4.69554 2.55968 4.69554 2.68615 4.69554 2.81729V3.20137C4.41451 3.20137 2.93442 3.20137 2.70023 3.20137C2.32552 3.20137 1.94613 3.20137 1.57142 3.20137C1.21077 3.20137 0.957839 3.43088 0.953156 3.75875C0.953156 3.91331 1.00468 4.04914 1.10304 4.1475C1.21545 4.25992 1.38407 4.32549 1.57611 4.32549C3.55269 4.32549 5.52458 4.32549 7.50116 4.32549H13.459C13.4871 4.32549 13.5105 4.32549 13.5293 4.32549C13.7541 4.30676 13.9508 4.1475 14.0164 3.92736C14.0726 3.74938 14.0445 3.57608 13.9414 3.43556ZM9.16861 2.0913V3.18732H5.81967V2.0913H9.16861Z" fill="#FF2E35" stroke="#FF2E35" stroke-width="0.1"/>
<path d="M5.4403 12.6818C5.4403 13.0425 5.6698 13.3001 5.99299 13.3001H5.99767C6.33022 13.3001 6.55973 13.0425 6.55973 12.6772C6.56442 10.7006 6.55973 9.07528 6.55973 7.5624C6.55973 7.45936 6.53631 7.35163 6.49884 7.26264C6.41922 7.0706 6.21781 6.93945 5.99767 6.93945C5.96489 6.93945 5.9321 6.94414 5.89931 6.94882C5.62296 7.00034 5.4403 7.22048 5.43561 7.49215C5.43093 8.09636 5.43093 8.70526 5.43561 9.30011V9.43126C5.43561 9.66076 5.43561 9.89027 5.43561 10.1198V10.738C5.4403 11.3891 5.4403 12.0355 5.4403 12.6818Z" fill="#FF2E35" stroke="#FF2E35" stroke-width="0.1"/>
<path d="M9.55266 7.55226C9.55266 7.20097 9.32784 6.94804 9.00465 6.94336H8.99528C8.6721 6.94336 8.43322 7.19629 8.43322 7.54289C8.42854 9.57099 8.42854 11.2103 8.43791 12.6951C8.43791 12.8075 8.47069 12.934 8.5269 13.0417C8.61589 13.2057 8.78919 13.304 8.98592 13.304C9.03744 13.304 9.08896 13.2993 9.14048 13.2853C9.39341 13.215 9.55266 13.0042 9.55734 12.742C9.56203 12.1331 9.55734 11.5195 9.55734 10.9199V10.9106C9.55734 10.653 9.55734 10.3907 9.55734 10.1331V9.43985C9.55734 8.80753 9.55734 8.17989 9.55266 7.55226Z" fill="#FF2E35" stroke="#FF2E35" stroke-width="0.1"/>
</svg>
