<svg width="7" height="11" viewBox="0 0 7 11" fill="none" xmlns="http://www.w3.org/2000/svg">
<path d="M3.44947 8.59549C3.44947 8.52652 3.44947 8.48054 3.44947 8.43712C3.44947 6.12039 3.44947 3.80621 3.44947 1.48948C3.44947 1.44606 3.44947 1.40008 3.45202 1.35666C3.47501 1.13444 3.65125 0.976074 3.87092 0.976074C4.08548 0.978628 4.25662 1.13699 4.27961 1.35411C4.28471 1.39753 4.28216 1.44351 4.28216 1.48693C4.28216 3.80366 4.28216 6.11784 4.28216 8.43457C4.28216 8.47799 4.28216 8.52397 4.28216 8.59293C4.32047 8.55717 4.34602 8.53418 4.37156 8.5112C4.91051 7.97224 5.44947 7.43329 5.98586 6.89178C6.10336 6.77429 6.23363 6.70277 6.40477 6.73853C6.69851 6.79983 6.82878 7.14977 6.64742 7.38731C6.62188 7.42307 6.58867 7.45372 6.55802 7.48438C5.77641 8.26854 4.9948 9.05015 4.21575 9.83176C3.97565 10.0719 3.76109 10.0719 3.52099 9.83176C2.73171 9.04249 1.94244 8.25321 1.15572 7.46139C0.966707 7.27237 0.948827 7.03738 1.10719 6.86113C1.24768 6.70532 1.48267 6.67978 1.65125 6.80749C1.69212 6.83814 1.72788 6.8739 1.76364 6.90966C2.29238 7.4384 2.82111 7.96969 3.34985 8.49842C3.37795 8.52908 3.40604 8.55462 3.44947 8.59549Z" fill="#212121" stroke="#212121" stroke-width="0.2"/>
</svg>
