<svg width="18" height="18" viewBox="0 0 18 18" fill="none" xmlns="http://www.w3.org/2000/svg">
<path d="M1.92511 18C1.03864 18 0.26729 17.3956 0.0543061 16.5321C-0.0550639 16.0947 0.0197682 15.6514 0.111869 15.237C0.273046 14.4944 0.428467 13.7403 0.583887 13.0093C0.670232 12.6063 0.75082 12.2034 0.837165 11.8062C0.935022 11.3342 1.14225 10.9485 1.47036 10.6204L2.37986 9.7109C5.25226 6.83275 8.12466 3.95459 10.9971 1.07643C11.6993 0.374161 12.5513 0.0230253 13.5989 0C14.7041 0.0230253 15.5791 0.402942 16.2871 1.16278C16.431 1.3182 16.5807 1.47362 16.7188 1.62328C16.8167 1.72689 16.9146 1.83051 17.0124 1.93412C18.3479 3.35018 18.3191 5.61816 16.9548 6.98817C14.9862 8.96258 12.983 10.9658 11.0431 12.9057C9.82277 14.1202 8.60819 15.3406 7.38785 16.5609C7.04247 16.9063 6.60499 17.1135 5.97756 17.2402C4.88961 17.4531 3.60595 17.7007 2.32229 17.9712C2.1899 17.9885 2.0575 18 1.92511 18ZM13.5183 1.64055C12.9772 1.64055 12.4707 1.85353 12.085 2.23345C9.31046 5.00799 6.2884 8.03582 2.58709 11.7486C2.45469 11.881 2.40288 12.0537 2.37986 12.1516C2.31078 12.4624 2.24746 12.779 2.1899 13.0841L2.13809 13.3374C2.01721 13.9591 1.89633 14.5865 1.76969 15.2139L1.55095 16.3825H1.89633C1.9136 16.3825 1.93086 16.3825 1.94238 16.3825C1.95965 16.3825 1.97116 16.3825 1.98267 16.3825C2.01145 16.3825 2.03448 16.3825 2.06326 16.3767L2.42015 16.3192C3.57141 16.1292 4.75722 15.9277 5.92575 15.7263C6.08693 15.6975 6.21356 15.5939 6.27688 15.5305L6.93886 14.8686C9.8458 11.9559 12.8448 8.93956 15.7978 5.9693C16.6383 5.12312 16.6498 3.96035 15.8151 3.08539C15.5791 2.83786 15.3316 2.59034 15.0898 2.35433L14.9689 2.23345C14.5775 1.85353 14.0594 1.64055 13.5183 1.64055Z" fill="#F78F1E"/>
</svg>
