<svg width="48" height="48" viewBox="0 0 48 48" fill="none" xmlns="http://www.w3.org/2000/svg">
<path d="M24 1.57056e-05C37.26 0.0150485 48.015 10.7786 48 24.0225C47.97 37.2965 37.185 48.045 23.97 47.9999C10.695 47.9548 0.0150156 37.2514 1.56495e-05 24.0075C-0.0149843 10.7635 10.755 -0.0150171 24 1.57056e-05ZM21.615 20.4146C21.615 22.3238 21.6 24.2329 21.615 26.1572C21.615 26.4728 21.63 26.8036 21.72 27.1042C22.035 28.2167 23.145 28.9533 24.255 28.8029C25.485 28.6376 26.385 27.7356 26.385 26.5029C26.4 22.429 26.4 18.3701 26.385 14.2962C26.385 14.1158 26.355 13.9204 26.295 13.74C25.98 12.6276 24.885 11.876 23.775 12.0113C22.545 12.1616 21.63 13.0786 21.615 14.2812C21.585 16.3257 21.615 18.3701 21.615 20.4146ZM26.385 33.6134C26.385 32.2755 25.335 31.2082 24.015 31.2082C22.68 31.2082 21.63 32.2605 21.615 33.5984C21.615 34.9664 22.62 35.9736 23.985 35.9736C25.365 35.9736 26.385 34.9664 26.385 33.6134Z" fill="#FF2E35"/>
</svg>
