<svg width="17" height="20" viewBox="0 0 17 20" fill="none" xmlns="http://www.w3.org/2000/svg">
<g clip-path="url(#clip0_1090_670)">
<path d="M0.630042 20.0004C0.161292 19.8442 -0.0105832 19.5108 -0.00016656 19.0264C0.0206668 18.1306 0.00504177 17.2296 0.00504177 16.3337C0.00504177 15.7921 0.32275 15.4744 0.864417 15.4744C1.36442 15.4744 1.86442 15.4744 2.39046 15.4744C2.39046 15.391 2.39046 15.3233 2.39046 15.2556C2.39046 14.1514 2.38525 13.0421 2.39046 11.9379C2.40608 9.38582 3.98421 7.20353 6.40088 6.39103C9.68733 5.28686 13.3123 7.42749 13.9061 10.8337C13.9738 11.2296 14.0103 11.6358 14.0155 12.0369C14.0311 13.1046 14.0207 14.1723 14.0207 15.24C14.0207 15.3129 14.0207 15.3806 14.0207 15.4796C14.2134 15.4796 14.3905 15.4796 14.5728 15.4796C14.9165 15.4796 15.2655 15.4744 15.6092 15.4796C16.078 15.4848 16.4061 15.8129 16.4113 16.2817C16.4165 17.1983 16.4009 18.1202 16.4165 19.0369C16.4269 19.5212 16.255 19.8546 15.7863 20.0108C10.7342 20.0004 5.68213 20.0004 0.630042 20.0004ZM3.96338 15.4535C6.80192 15.4535 9.62483 15.4535 12.4634 15.4535C12.4634 15.3702 12.4634 15.3077 12.4634 15.2452C12.4634 14.1723 12.4686 13.0994 12.4582 12.0212C12.4582 11.7244 12.4321 11.4223 12.3853 11.1306C12.0103 8.89103 9.72379 7.29728 7.49462 7.71916C5.38525 8.1202 3.95817 9.83374 3.95817 11.9796C3.95817 13.0733 3.95817 14.1671 3.95817 15.2608C3.95817 15.3233 3.96338 15.3858 3.96338 15.4535ZM1.57796 18.4223C6.01025 18.4223 10.4269 18.4223 14.8436 18.4223C14.8436 17.9535 14.8436 17.5004 14.8436 17.0421C10.4165 17.0421 6.00504 17.0421 1.57796 17.0421C1.57796 17.5056 1.57796 17.9587 1.57796 18.4223Z" fill="#FF2E35"/>
<path d="M8.36458 0C8.82292 0.15625 9.00521 0.473958 8.99479 0.953125C8.97917 1.88542 8.99479 2.8125 8.98958 3.74479C8.98958 4.125 8.74479 4.41667 8.38542 4.50521C8.05208 4.58854 7.68229 4.43229 7.53125 4.11458C7.46875 3.98438 7.4375 3.82812 7.4375 3.68229C7.42708 2.77083 7.44792 1.85938 7.42708 0.947917C7.41146 0.473958 7.59375 0.15625 8.05208 0C8.15625 0 8.26042 0 8.36458 0Z" fill="#FF2E35"/>
<path d="M2.85416 5.88021C2.6875 5.79167 2.48437 5.73959 2.35416 5.61459C1.63541 4.91667 0.927081 4.20834 0.229164 3.4948C-0.0781275 3.1823 -0.0625025 2.70834 0.239581 2.40625C0.541664 2.09896 1.02604 2.09375 1.34375 2.40625C2.04166 3.09896 2.73958 3.80209 3.43229 4.50521C3.67708 4.75 3.72916 5.04688 3.59896 5.3698C3.47916 5.65625 3.19791 5.83855 2.85416 5.88021Z" fill="#FF2E35"/>
<path d="M13.5261 5.83332C13.2031 5.8229 12.9636 5.67707 12.8281 5.3854C12.6875 5.08853 12.7136 4.78645 12.9427 4.55207C13.6615 3.8177 14.3854 3.08853 15.1198 2.36978C15.4115 2.08332 15.8906 2.11457 16.1771 2.40103C16.474 2.6979 16.5 3.16145 16.2031 3.47395C15.875 3.8229 15.5261 4.15624 15.1875 4.49999C14.8281 4.85936 14.4688 5.21874 14.1146 5.57811C13.9531 5.73957 13.7604 5.83853 13.5261 5.83332Z" fill="#FF2E35"/>
</g>
<defs>
<clipPath id="clip0_1090_670">
<rect width="16.4167" height="20" fill="white"/>
</clipPath>
</defs>
</svg>
