<svg width="12" height="22" viewBox="0 0 12 22" fill="none" xmlns="http://www.w3.org/2000/svg">
<g clip-path="url(#clip0_1090_69)">
<path d="M3.31187 12.4158C3.11832 12.4158 2.96062 12.4158 2.80291 12.4158C2.07173 12.4158 1.33338 12.423 0.602193 12.4158C0.164917 12.4086 0.0143795 12.2796 0.0143795 11.8638C4.26155e-05 10.7312 4.26155e-05 9.60576 0.00721107 8.47314C0.0143795 8.05737 0.164917 7.92834 0.602193 7.92117C1.39789 7.914 2.19359 7.92117 2.99646 7.92117C3.08965 7.92117 3.19001 7.92117 3.31904 7.92117C3.31904 7.79214 3.31904 7.68461 3.31904 7.57709C3.34054 6.55916 3.29753 5.53407 3.39072 4.51615C3.60578 1.96418 5.56993 0.11472 8.13624 0.0143614C9.21151 -0.0286493 10.2868 2.45068e-05 11.362 2.45068e-05C11.7205 2.45068e-05 11.871 0.157731 11.871 0.508985C11.8782 1.57709 11.8782 2.63802 11.871 3.70612C11.871 4.07171 11.7205 4.21508 11.3334 4.22225C10.6094 4.23658 9.88535 4.24375 9.15416 4.25092C8.30829 4.26526 7.97854 4.58067 7.9642 5.42655C7.94986 6.22225 7.9642 7.01795 7.9642 7.84232C8.07889 7.84949 8.17208 7.85666 8.26528 7.85666C9.19001 7.85666 10.1076 7.85666 11.0323 7.85666C11.6344 7.85666 11.7635 7.98569 11.7635 8.5735C11.7635 9.62726 11.7635 10.6882 11.7635 11.742C11.7635 12.2366 11.6416 12.3656 11.147 12.3656C10.2008 12.3728 9.24735 12.3656 8.30112 12.3656C8.20076 12.3656 8.10757 12.3656 7.97137 12.3656C7.97137 12.4946 7.97137 12.6093 7.97137 12.724C7.97137 15.5269 7.97137 18.3298 7.97137 21.1398C7.97137 21.8925 7.88535 21.9785 7.11832 21.9785C6.08606 21.9785 5.06097 21.9785 4.02872 21.9785C3.46241 21.9785 3.32621 21.8495 3.32621 21.2832C3.32621 18.4445 3.32621 15.6058 3.32621 12.7599C3.31187 12.681 3.31187 12.5735 3.31187 12.4158Z" fill="#1D8BFA"/>
</g>
<defs>
<clipPath id="clip0_1090_69">
<rect width="11.871" height="22" fill="white"/>
</clipPath>
</defs>
</svg>
