<svg width="10" height="16" viewBox="0 0 10 16" fill="none" xmlns="http://www.w3.org/2000/svg">
<g clip-path="url(#clip0_1090_827)">
<path d="M3.2765 15.9997C3.2765 15.9351 3.26359 15.8705 3.26359 15.7931C3.26359 13.5073 3.26359 11.2087 3.26359 8.92301C3.26359 8.85844 3.26359 8.79387 3.26359 8.70347C2.43712 8.70347 1.62356 8.70347 0.809998 8.70347C0.809998 7.74787 0.809998 6.81808 0.809998 5.86247C1.62356 5.86247 2.43712 5.86247 3.26359 5.86247C3.26359 5.78499 3.26359 5.72042 3.26359 5.65586C3.26359 4.90687 3.25068 4.17079 3.2765 3.4218C3.31524 2.53076 3.57352 1.70428 4.2192 1.03277C4.697 0.529142 5.30394 0.232128 5.97545 0.0900784C6.53074 -0.0261444 7.08603 -0.0132307 7.64131 0.0125965C8.09329 0.0255102 8.54527 0.0642511 8.99725 0.102992C9.03599 0.102992 9.06181 0.115906 9.11347 0.128819C9.11347 0.968206 9.11347 1.80759 9.11347 2.65989C9.06181 2.65989 9.01016 2.65989 8.94559 2.65989C8.3903 2.67281 7.83502 2.65989 7.26682 2.68572C6.60822 2.72446 6.23373 3.08604 6.2079 3.74464C6.18207 4.42906 6.19499 5.11348 6.19499 5.81082C6.19499 5.82373 6.2079 5.82373 6.2079 5.86247C7.12477 5.86247 8.05455 5.86247 8.99725 5.86247C8.86811 6.81808 8.75189 7.76078 8.63566 8.70347C7.8221 8.70347 7.02146 8.70347 6.19499 8.70347C6.19499 8.76804 6.18207 8.80678 6.18207 8.85844C6.18207 11.2087 6.18207 13.559 6.18207 15.8964C6.18207 15.9351 6.18207 15.9739 6.19499 15.9997C5.23938 15.9997 4.25794 15.9997 3.2765 15.9997Z" fill="#1D8BFA"/>
</g>
<defs>
<clipPath id="clip0_1090_827">
<rect width="8.30347" height="16" fill="white" transform="translate(0.809998)"/>
</clipPath>
</defs>
</svg>
