<svg width="20" height="16" viewBox="0 0 20 16" fill="none" xmlns="http://www.w3.org/2000/svg">
<path d="M18.9956 11.6793C18.9781 11.5915 18.9605 11.4993 18.9474 11.4115C18.9122 11.2096 18.8727 10.9989 18.8113 10.7926C18.4075 9.42322 17.534 8.36543 16.2261 7.65438C16.0505 7.55782 15.8618 7.47443 15.6818 7.39542C16.1866 6.94773 16.5158 6.39469 16.665 5.74948C16.8669 4.88481 16.7308 4.00698 16.2787 3.27838C15.8267 2.54977 15.1024 2.03185 14.2422 1.82117C13.992 1.75972 13.7374 1.74217 13.5399 1.73778C13.1844 1.72461 12.8947 1.98796 12.8727 2.33909C12.8552 2.67267 13.1098 2.95797 13.4697 2.99747C13.5179 3.00186 13.5706 3.00625 13.6189 3.01064C13.6496 3.01503 13.6803 3.01503 13.7067 3.01942C14.6767 3.11159 15.4404 3.91481 15.4843 4.8892C15.5326 5.99089 14.6942 6.89945 13.5794 6.96528C13.0527 6.99601 12.8683 7.31642 12.8683 7.61049C12.8727 7.90018 13.0615 8.2162 13.5838 8.24253H13.597C13.6101 8.24253 13.6233 8.24253 13.6365 8.24253H13.6847L13.733 8.22498C15.0937 7.76411 15.6291 8.33471 16.3095 9.05453L16.3314 9.07648C17.1653 9.80947 17.6262 10.7488 17.7096 11.8768C17.7228 12.0611 17.7228 12.2411 17.7272 12.4342C17.7272 12.5615 17.7316 12.6932 17.7359 12.8248C17.7447 13.0355 17.8369 13.2242 17.9949 13.3428C18.1002 13.4218 18.2275 13.4656 18.3636 13.4656C18.4163 13.4656 18.4733 13.4569 18.526 13.4437C18.8332 13.3647 18.943 13.1101 18.9869 13.0092L19.0088 12.9609V11.7056L18.9956 11.6793Z" fill="white" stroke="white" stroke-width="0.3"/>
<path d="M14.3651 11.5165C13.5399 9.89686 12.2188 8.75567 10.4368 8.13241C11.2839 7.46525 11.815 6.54792 11.9511 5.4989C12.1047 4.29627 11.7053 3.0673 10.8757 2.20702C10.1383 1.43892 9.08493 1 7.98763 1C7.97886 1 7.97447 1 7.96569 1C6.8684 1.00439 5.82377 1.4477 5.09956 2.2158C4.27878 3.08486 3.88376 4.31383 4.04177 5.50768C4.17783 6.54792 4.70892 7.46086 5.55164 8.12802C4.7177 8.41331 3.95837 8.83906 3.29122 9.40527C2.36072 10.1865 1.69356 11.1522 1.3117 12.2758C0.991293 13.2107 0.986904 14.1763 1.00885 15.0892C1.01324 15.256 1.1098 15.4843 1.27659 15.5808C1.44338 15.673 1.66284 15.7081 1.8384 15.6686C2.09736 15.6072 2.26415 15.3745 2.26854 15.0629C2.26854 14.9488 2.27293 14.8347 2.27293 14.7206C2.27732 14.4397 2.28171 14.1456 2.29488 13.8603C2.33877 12.9122 2.66796 12.0344 3.26927 11.2575C4.27878 9.94514 5.66137 9.19459 7.38193 9.02341C8.91375 8.86979 10.3007 9.2297 11.5078 10.0944C12.8903 11.0863 13.6277 12.4075 13.7023 14.0139C13.7067 14.1587 13.7067 14.3036 13.7067 14.4572C13.7067 14.6372 13.7067 14.8215 13.7199 15.0102C13.7331 15.1902 13.8033 15.3833 13.9086 15.5194C14.0096 15.6511 14.1632 15.7213 14.3344 15.7213C14.4222 15.7213 14.5143 15.7037 14.6065 15.6642C14.747 15.6028 14.984 15.4448 14.9928 15.0454C14.9971 14.7688 14.9971 14.4923 14.9928 14.2334C14.9796 13.2107 14.7777 12.3241 14.3651 11.5165ZM10.7177 4.98537C10.7177 6.49086 9.49312 7.71105 7.99641 7.71105H7.99202C7.26781 7.71105 6.5831 7.42136 6.06518 6.90344C5.54726 6.38552 5.26635 5.70081 5.26635 4.98098C5.27074 3.47988 6.49532 2.25969 7.99641 2.25969C8.72502 2.25969 9.40973 2.54499 9.92326 3.05852C10.4368 3.57206 10.7177 4.25677 10.7177 4.98537Z" fill="white" stroke="white" stroke-width="0.3"/>
</svg>
