<svg width="21" height="12" viewBox="0 0 21 12" fill="none" xmlns="http://www.w3.org/2000/svg">
<rect x="2" y="5" width="19" height="2" rx="1" fill="#212121"/>
<path d="M1.3072 6.7784C0.91668 6.38787 0.91668 5.75471 1.3072 5.36418L5.54985 1.12154C5.94037 0.731016 6.57354 0.731017 6.96406 1.12154C7.35458 1.51207 7.35458 2.14523 6.96406 2.53575L2.72142 6.7784C2.33089 7.16892 1.69773 7.16892 1.3072 6.7784Z" fill="#212121"/>
<path d="M1.3072 5.36321C0.91668 5.75373 0.91668 6.3869 1.3072 6.77742L5.54985 11.0201C5.94037 11.4106 6.57354 11.4106 6.96406 11.0201C7.35458 10.6295 7.35458 9.99637 6.96406 9.60585L2.72142 5.36321C2.33089 4.97268 1.69773 4.97268 1.3072 5.36321Z" fill="#212121"/>
</svg>
