<svg width="20" height="20" viewBox="0 0 20 20" fill="none" xmlns="http://www.w3.org/2000/svg">
<path d="M6.05643 19C5.69197 19 5.33105 19 4.96659 19C3.77414 19 2.94261 18.1649 2.94261 16.9689C2.94261 15.78 2.94261 14.5911 2.94261 13.4022V11.6365H2.71615C1.98723 11.633 1.38216 11.2402 1.13801 10.6068C0.872628 9.92039 1.00001 9.3047 1.5237 8.77747C2.31277 7.98133 3.11953 7.1781 3.89799 6.39965C4.21998 6.07765 4.54198 5.75919 4.86044 5.43719C5.24613 5.0515 5.63536 4.66581 6.01043 4.29428C6.91981 3.39198 7.86103 2.45783 8.76333 1.51661C9.07471 1.19108 9.53117 1.00354 10.0124 1H10.0195C10.5078 1 10.9713 1.18754 11.2933 1.51307C13.9224 4.18813 16.5408 6.78887 18.5294 8.75624C18.9045 9.12778 19.0849 9.67977 19.0106 10.2318C18.9399 10.7448 18.6603 11.173 18.2357 11.4101C17.9703 11.5587 17.7049 11.633 17.4325 11.6365C17.3936 11.6365 17.3546 11.6365 17.3157 11.6365H17.1176V13.3916C17.1176 14.577 17.1176 15.7659 17.1176 16.9512C17.1176 18.1543 16.2754 18.9965 15.0724 19C14.7008 19 14.3328 19 13.9613 19C13.4871 19 13.013 19 12.5388 19H12.3938C11.9621 19 11.7639 18.7983 11.7604 18.3595C11.7604 17.758 11.7604 17.16 11.7604 16.5585C11.7604 15.8119 11.7604 15.0688 11.7604 14.3222C11.7604 13.6853 11.4065 13.3314 10.7661 13.3314H10.6245C10.3945 13.3314 10.161 13.3314 9.92393 13.3314C9.70101 13.3314 9.47455 13.3314 9.25163 13.3314C8.66072 13.335 8.29626 13.6994 8.29272 14.2868C8.29272 15.1643 8.29272 16.0454 8.29272 16.9229C8.29272 17.3936 8.29272 17.8677 8.29272 18.3383C8.29272 18.7983 8.0981 18.9965 7.64165 18.9965L6.05643 19ZM3.28938 10.5785C3.82014 10.5785 4.0006 10.7555 4.0006 11.2827C4.0006 11.8099 4.0006 12.3407 4.00414 12.8679V12.8714C4.00768 14.2054 4.00768 15.5819 3.99352 16.9371C3.98999 17.2379 4.08906 17.4962 4.28014 17.6837C4.45706 17.8535 4.69413 17.9491 4.95598 17.9491C4.97013 17.9491 4.98075 17.9491 4.9949 17.9491C5.23551 17.942 5.49382 17.9385 5.80874 17.9385C6.01397 17.9385 6.22274 17.9385 6.42089 17.942C6.61196 17.942 6.83135 17.9455 7.03658 17.9455H7.23473V17.712C7.23473 17.3582 7.23473 17.0043 7.23473 16.6505V16.6328C7.23473 15.8119 7.23119 14.9662 7.24534 14.1311C7.2595 13.1864 8.0238 12.369 8.95087 12.3053C9.19502 12.2876 9.4604 12.2805 9.77886 12.2805C10.0124 12.2805 10.2495 12.2841 10.4759 12.2876C10.6882 12.2911 10.9041 12.2947 11.1164 12.2947C11.173 12.2947 11.2261 12.3088 11.2827 12.3194H11.2898C12.2133 12.5317 12.8148 13.2819 12.8184 14.2373C12.8219 15.044 12.8219 15.8614 12.8219 16.654C12.8219 17.0043 12.8219 17.3546 12.8219 17.7085V17.9349H15.0547C15.7234 17.9349 16.0631 17.5952 16.0631 16.9229V14.7963C16.0631 13.5897 16.0631 12.3831 16.0631 11.1801C16.0631 10.7767 16.2683 10.575 16.6717 10.5715H16.7531C16.8133 10.5715 16.877 10.5715 16.9371 10.5715H16.9513C17.0079 10.5715 17.0645 10.5715 17.1211 10.5715C17.2379 10.5715 17.3299 10.5715 17.4148 10.5679C17.6766 10.5608 17.896 10.391 17.9739 10.1362C18.0659 9.83192 17.9066 9.61962 17.7226 9.43562C15.8897 7.60625 13.9896 5.70611 12.3124 4.0289L10.5538 2.2703C10.4264 2.14291 10.253 1.9943 10.0336 1.9943C9.81424 1.9943 9.63732 2.14291 9.50994 2.27384L3.12661 8.66424C3.04169 8.74916 2.95323 8.83763 2.8683 8.92255L2.85415 8.9367C2.656 9.13485 2.45431 9.33654 2.25615 9.5347C2.058 9.73639 2.012 9.96992 2.11816 10.2141C2.22431 10.4547 2.41538 10.5785 2.69138 10.5785H2.79753H3.28938Z" fill="black" stroke="black" stroke-width="0.3"/>
</svg>
