<svg width="21" height="20" viewBox="0 0 21 20" fill="none" xmlns="http://www.w3.org/2000/svg">
<rect x="1" width="20" height="2" rx="1" fill="#212121"/>
<rect x="2" y="9" width="19" height="2" rx="1" fill="#212121"/>
<rect x="1" y="18" width="20" height="2" rx="1" fill="#212121"/>
<path d="M1.3072 10.7784C0.91668 10.3879 0.91668 9.75471 1.3072 9.36418L5.54985 5.12154C5.94037 4.73102 6.57354 4.73102 6.96406 5.12154C7.35458 5.51207 7.35458 6.14523 6.96406 6.53575L2.72142 10.7784C2.33089 11.1689 1.69773 11.1689 1.3072 10.7784Z" fill="#212121"/>
<path d="M1.3072 9.36321C0.91668 9.75373 0.91668 10.3869 1.3072 10.7774L5.54985 15.0201C5.94037 15.4106 6.57354 15.4106 6.96406 15.0201C7.35458 14.6295 7.35458 13.9964 6.96406 13.6058L2.72142 9.36321C2.33089 8.97268 1.69773 8.97268 1.3072 9.36321Z" fill="#212121"/>
</svg>
