<svg width="21" height="20" viewBox="0 0 21 20" fill="none" xmlns="http://www.w3.org/2000/svg">
<g clip-path="url(#clip0_1090_72)">
<path d="M11.7245 20C10.2196 20 8.7475 20 7.25897 20C7.25897 15.5082 7.25897 11.023 7.25897 6.52132C8.73766 6.52132 10.2163 6.52132 11.7245 6.52132C11.7245 7.14428 11.7245 7.76395 11.7245 8.28854C11.9803 8.06887 12.2721 7.81969 12.5573 7.56723C13.3409 6.8787 14.2098 6.34428 15.2688 6.2328C17.436 6.00329 19.695 6.93444 20.5541 9.61313C20.8295 10.4721 20.9311 11.3574 20.9344 12.2525C20.9409 14.7672 20.9377 17.2787 20.9377 19.7935C20.9377 19.8558 20.9311 19.9213 20.9245 19.9935C19.4327 19.9935 17.9541 19.9935 16.4491 19.9935C16.4491 19.9017 16.4491 19.8164 16.4491 19.7312C16.4491 17.4492 16.459 15.1672 16.4426 12.8885C16.4393 12.3836 16.3901 11.8656 16.2655 11.3803C15.8459 9.74428 13.9442 9.17051 12.6557 10.2754C12.0655 10.7803 11.7311 11.4197 11.7311 12.2164C11.7311 13.3344 11.7245 14.4558 11.7245 15.5738C11.7245 16.9607 11.7245 18.3508 11.7245 19.7377C11.7245 19.823 11.7245 19.9082 11.7245 20Z" fill="#1D8BFA"/>
<path d="M0.281982 6.51807C1.77379 6.51807 3.25247 6.51807 4.74428 6.51807C4.74428 11.0099 4.74428 15.4886 4.74428 19.9902C3.26231 19.9902 1.77706 19.9902 0.281982 19.9902C0.281982 15.5017 0.281982 11.0164 0.281982 6.51807Z" fill="#1D8BFA"/>
<path d="M5.04577 2.34436C5.05232 3.51486 4.21298 4.4624 3.03265 4.62633C2.22282 4.73781 1.45888 4.64273 0.81626 4.10174C0.0818335 3.48535 -0.13456 2.67223 0.0785548 1.76076C0.288391 0.855841 0.908063 0.324693 1.79331 0.0951848C2.30806 -0.0392414 2.82937 -0.0294053 3.34413 0.1083C4.37691 0.386988 5.03921 1.2624 5.04577 2.34436Z" fill="#1D8BFA"/>
</g>
<defs>
<clipPath id="clip0_1090_72">
<rect width="20.9344" height="20" fill="white"/>
</clipPath>
</defs>
</svg>
