<svg width="50" height="51" viewBox="0 0 50 51" fill="none" xmlns="http://www.w3.org/2000/svg">
<path d="M6.93687 50C6.08522 49.739 5.19237 49.5742 4.4094 49.1896C1.66215 47.8022 0.192367 45.5082 0.0137958 42.4313C-0.027413 41.6484 5.94892e-05 40.8654 5.94892e-05 40.0824C5.94892e-05 29.3956 5.94892e-05 18.6951 5.94892e-05 8.00824C5.94892e-05 4.49176 2.01929 1.56593 5.27479 0.467033C6.1127 0.178571 7.01929 0.0412088 7.89841 0.0274725C14.3819 -0.0137363 20.8654 0 27.3352 0.0137363C31.8132 0.0274725 35.2336 3.4478 35.2473 7.93956C35.2473 9.14835 35.2473 10.3434 35.2473 11.5522C35.2473 12.8022 34.4369 13.6676 33.3105 13.6813C32.1567 13.6951 31.3462 12.8159 31.3462 11.5385C31.3462 10.4258 31.3462 9.32692 31.3462 8.21429C31.3462 5.54945 29.7253 3.91484 27.0742 3.91484C23.5578 3.91484 20.0413 3.91484 16.5248 3.91484C13.6814 3.91484 10.8242 3.9011 7.98083 3.91484C6.03028 3.91484 4.57424 5 4.06599 6.81319C3.9561 7.21154 3.91489 7.6511 3.91489 8.06319C3.90116 19.3544 3.90116 30.6456 3.91489 41.9506C3.91489 44.4231 5.57698 46.0852 8.04951 46.0989C14.4506 46.0989 20.838 46.0989 27.2391 46.0989C29.6841 46.0989 31.3462 44.4231 31.36 41.9918C31.36 40.8242 31.36 39.6429 31.36 38.4753C31.36 37.2115 32.1841 36.3324 33.338 36.3462C34.4643 36.3599 35.2748 37.2253 35.2611 38.4753C35.2473 40.0687 35.3297 41.6758 35.1512 43.2555C34.7665 46.7033 32.033 49.3956 28.599 49.9176C28.5028 49.9313 28.4204 49.9725 28.338 50.0137C21.1951 50 14.066 50 6.93687 50Z" fill="#F78F1E"/>
<path d="M49.9038 26.1807C49.5467 27.5406 48.6538 28.5296 47.6648 29.4774C46.4835 30.6175 45.3434 31.7988 44.1621 32.9526C43.5165 33.5845 42.6236 33.6807 41.8681 33.2548C41.1264 32.8428 40.7143 32.0323 40.9341 31.1944C41.044 30.7823 41.3049 30.3565 41.6071 30.0406C42.5275 29.0653 43.5027 28.1312 44.5604 27.0735C44.2445 27.0735 44.0659 27.0735 43.8874 27.0735C36.3874 27.0735 28.8874 27.0735 21.3874 27.0735C20.7418 27.0735 20.1511 26.9499 19.6978 26.4554C19.1621 25.8647 18.9973 25.1779 19.2857 24.4224C19.5742 23.6669 20.1511 23.2548 20.9478 23.1724C21.1401 23.1449 21.3324 23.1587 21.5385 23.1587C28.9973 23.1587 36.4423 23.1587 43.9011 23.1587C44.0797 23.1587 44.2582 23.1587 44.5192 23.1587C44.3819 22.9938 44.2994 22.884 44.2033 22.7878C43.283 21.8675 42.3489 20.9609 41.456 20.0131C40.3846 18.873 40.9341 17.101 42.4313 16.7576C43.0769 16.6065 43.6813 16.7713 44.1484 17.2246C45.728 18.7768 47.3214 20.3153 48.8187 21.9362C49.3269 22.4993 49.5604 23.3235 49.9313 24.0241C49.9038 24.7384 49.9038 25.4526 49.9038 26.1807Z" fill="#F78F1E"/>
</svg>
