<svg width="18" height="18" viewBox="0 0 18 18" fill="none" xmlns="http://www.w3.org/2000/svg">
<path d="M3.2266 17.0011C2.95353 16.9176 2.66724 16.8648 2.41619 16.7417C1.53532 16.2978 1.06405 15.5636 1.00679 14.579C0.993579 14.3284 1.00239 14.0778 1.00239 13.8273C1.00239 10.4072 1.00239 6.98283 1.00239 3.56281C1.00239 2.43746 1.64983 1.50113 2.69367 1.14946C2.96234 1.05715 3.25302 1.01319 3.5349 1.00879C5.61377 0.995604 7.69264 1 9.7671 1.0044C11.2029 1.00879 12.2996 2.10337 12.304 3.54083C12.304 3.92767 12.304 4.31012 12.304 4.69696C12.304 5.09698 12.0442 5.37393 11.683 5.37832C11.313 5.38272 11.0532 5.10138 11.0532 4.69256C11.0532 4.33649 11.0532 3.98482 11.0532 3.62875C11.0532 2.77595 10.5335 2.25283 9.68341 2.25283C8.55589 2.25283 7.42837 2.25283 6.30085 2.25283C5.38915 2.25283 4.47304 2.24844 3.56133 2.25283C2.93591 2.25283 2.46905 2.60011 2.30608 3.18037C2.27085 3.30785 2.25764 3.44852 2.25764 3.5804C2.25323 7.19383 2.25323 10.8073 2.25764 14.4251C2.25764 15.2164 2.79056 15.7483 3.58335 15.7527C5.63579 15.7527 7.68383 15.7527 9.73627 15.7527C10.5202 15.7527 11.0532 15.2164 11.0576 14.4383C11.0576 14.0646 11.0576 13.6866 11.0576 13.3129C11.0576 12.9085 11.3218 12.6272 11.6918 12.6316C12.053 12.636 12.3128 12.9129 12.3084 13.3129C12.304 13.8229 12.3304 14.3372 12.2732 14.8427C12.1499 15.9461 11.2734 16.8077 10.1723 16.9747C10.1415 16.9791 10.115 16.9923 10.0886 17.0055C7.79834 17.0011 5.51247 17.0011 3.2266 17.0011Z" fill="#1D8BFA" stroke="#1D8BFA" stroke-width="0.3"/>
<path d="M16.2854 10.4338C15.9066 10.7986 15.5411 11.1767 15.1623 11.5459C14.9553 11.7482 14.669 11.7789 14.4268 11.6427C14.1889 11.5108 14.0568 11.2514 14.1273 10.9833C14.1625 10.8514 14.2462 10.7151 14.3431 10.614C14.6382 10.3019 14.9509 10.003 15.29 9.6645C15.1887 9.6645 15.1315 9.6645 15.0742 9.6645C12.6694 9.6645 10.2646 9.6645 7.85983 9.6645C7.65283 9.6645 7.46344 9.62493 7.3181 9.46668C7.14633 9.27766 7.09347 9.05786 7.18596 8.81609C7.27846 8.57431 7.46344 8.44243 7.71889 8.41606C7.78056 8.40727 7.84222 8.41166 7.90828 8.41166C10.2999 8.41166 12.687 8.41166 15.0786 8.41166C15.1359 8.41166 15.1931 8.41166 15.2768 8.41166C15.2328 8.35891 15.2063 8.32374 15.1755 8.29297C14.8804 7.99845 14.5809 7.70832 14.2946 7.405C13.9511 7.04014 14.1273 6.47307 14.6073 6.36317C14.8143 6.31482 15.0081 6.36757 15.1579 6.51263C15.6644 7.00937 16.1753 7.50171 16.6554 8.02043C16.822 8.20052 17.0006 8.60055 17.0006 9.00057C17.0006 9.80063 16.473 10.2543 16.2854 10.4338Z" fill="#1D8BFA" stroke="#1D8BFA" stroke-width="0.3"/>
</svg>
