<svg width="17" height="14" viewBox="0 0 17 14" fill="none" xmlns="http://www.w3.org/2000/svg">
<g clip-path="url(#clip0_1090_823)">
<path d="M16.81 4.26362C16.81 6.81775 16.81 9.36753 16.81 11.9217C16.8057 11.9303 16.7927 11.939 16.7927 11.9477C16.5711 12.8295 16.0368 13.2508 15.1247 13.2508C12.8833 13.2508 10.6419 13.2508 8.40053 13.2508C6.18522 13.2508 3.9699 13.2508 1.75459 13.2508C1.31153 13.2508 0.924935 13.1205 0.599154 12.8121C0.342873 12.5689 0.21256 12.2561 0.134373 11.9173C0.134373 9.36318 0.134373 6.8134 0.134373 4.25928C0.160435 4.26796 0.186498 4.27665 0.208216 4.28968C2.46262 5.79262 4.71269 7.29556 6.96709 8.79415C7.97484 9.46743 8.97825 9.46743 9.99034 8.79415C12.0058 7.45193 14.017 6.10971 16.0282 4.7675C16.2844 4.60243 16.5451 4.43303 16.81 4.26362Z" fill="#1D8BFA"/>
<path d="M0.129997 2.50439C0.129997 2.36104 0.129997 2.22204 0.129997 2.0787C0.15606 1.98748 0.182122 1.89192 0.212529 1.8007C0.43406 1.14045 1.01178 0.749512 1.76759 0.749512C6.23731 0.749512 10.7027 0.749512 15.1724 0.749512C15.2202 0.749512 15.2723 0.749512 15.3201 0.753855C15.9847 0.788605 16.5277 1.19257 16.7318 1.80504C16.7622 1.89626 16.7839 1.99182 16.8143 2.08304C16.8143 2.22639 16.8143 2.36539 16.8143 2.50873C16.7101 2.93876 16.4972 3.29495 16.1193 3.54689C13.8693 5.04114 11.6236 6.54407 9.3735 8.03832C8.77406 8.43795 8.16159 8.42926 7.56215 8.02964C5.31209 6.53104 3.07072 5.03245 0.829341 3.5382C0.473154 3.29929 0.238591 2.9822 0.15606 2.56086C0.151716 2.53914 0.138685 2.52176 0.129997 2.50439Z" fill="#1D8BFA"/>
</g>
<defs>
<clipPath id="clip0_1090_823">
<rect width="16.68" height="12.5013" fill="white" transform="translate(0.129997 0.749512)"/>
</clipPath>
</defs>
</svg>
