<svg width="32" height="30" viewBox="0 0 32 30" fill="none" xmlns="http://www.w3.org/2000/svg">
<g clip-path="url(#clip0_1090_261)">
<path d="M31.2682 18.5501C31.2236 18.7824 31.1879 19.0056 31.1253 19.2289C30.518 21.4885 29.0801 22.8907 26.7848 23.3909C26.6954 23.4087 26.6061 23.4266 26.4811 23.4623C26.4811 23.5784 26.4811 23.7035 26.4811 23.8196C26.4811 25.454 26.4811 27.0973 26.4811 28.7317C26.4811 29.4552 26.1149 29.9107 25.4987 29.991C25.0878 30.0446 24.7752 29.8571 24.4984 29.5802C23.1051 28.178 21.7118 26.7847 20.3096 25.3915C19.7559 24.8377 19.1932 24.2929 18.6484 23.7303C18.4876 23.5606 18.3269 23.498 18.0947 23.498C13.9238 23.507 9.7529 23.5248 5.58202 23.498C3.24203 23.4802 1.53617 22.3816 0.500146 20.2739C0.142897 19.5504 0.00892854 18.7734 0.00892854 17.9696C0.00892854 13.8255 -2.68826e-06 9.68143 0.00892854 5.54627C0.0178598 2.71507 1.98273 0.464404 4.76034 0.0624985C5.07294 0.0178424 5.38553 0.00891113 5.70705 0.00891113C12.334 0.00891113 18.9521 0.00891113 25.579 0.00891113C28.2138 0.00891113 30.393 1.58974 31.0539 3.99224C31.1432 4.30483 31.1968 4.62636 31.2682 4.93895C31.2682 9.46708 31.2682 14.0131 31.2682 18.5501ZM24.159 26.2757C24.2036 26.2399 24.2483 26.2042 24.2929 26.1774C24.2929 26.0792 24.2929 25.9809 24.2929 25.8827C24.2929 24.7306 24.284 23.5784 24.2929 22.4352C24.3019 21.7565 24.7484 21.3188 25.4272 21.301C25.5165 21.301 25.6148 21.301 25.7041 21.301C27.6332 21.292 29.0712 19.872 29.0712 17.9428C29.0801 13.8166 29.0801 9.6993 29.0712 5.57307C29.0712 3.64392 27.66 2.19706 25.7309 2.18813C19.0057 2.1792 12.2804 2.1792 5.54629 2.18813C3.61715 2.18813 2.19708 3.63499 2.19708 5.56414C2.18815 9.69036 2.19708 13.8077 2.19708 17.9339C2.19708 18.2197 2.22387 18.5055 2.28639 18.7824C2.65257 20.2917 3.95653 21.301 5.54629 21.301C9.91366 21.301 14.281 21.3099 18.6484 21.301C19.1039 21.301 19.4701 21.4439 19.7916 21.7743C21.1849 23.1855 22.596 24.5787 23.9982 25.9899C24.0786 26.0613 24.1054 26.1774 24.159 26.2757Z" fill="#FF2E35"/>
<path d="M19.9702 15.1121C19.3629 14.5137 18.7645 13.9064 18.1572 13.308C17.7553 12.9061 17.3534 12.5042 16.9515 12.1022L19.9524 9.10135C19.997 9.0567 20.0417 9.01204 20.0953 8.94952C20.2739 8.70838 20.3275 8.40472 20.2471 8.11892C20.1578 7.83312 19.9524 7.60984 19.6666 7.5116C19.6398 7.50266 19.6219 7.49373 19.5951 7.4848L19.5058 7.45801H19.2021L19.1486 7.47587C18.8806 7.55625 18.6931 7.73488 18.568 7.85991C17.9428 8.4851 17.3266 9.10135 16.7014 9.72654L15.6475 10.7804L14.5936 9.72654C13.9684 9.10135 13.3522 8.4851 12.727 7.85991C12.5841 7.71701 12.4144 7.54732 12.1465 7.47587L12.0929 7.45801H11.7892L11.7446 7.46694C11.3784 7.55625 11.1194 7.80633 11.0033 8.17251L10.9854 8.22609V8.53869L11.0033 8.59227C11.0837 8.86914 11.2623 9.04777 11.3873 9.16387C12.0214 9.79799 12.6556 10.4321 13.2897 11.0573C13.6291 11.3967 13.9774 11.745 14.3168 12.0844C13.9684 12.4327 13.6201 12.781 13.2718 13.1293C12.6466 13.7545 12.0125 14.3886 11.3873 15.0138C11.2623 15.1299 11.0837 15.3175 11.0033 15.5854L10.9854 15.639V15.9695L11.0122 16.0409C11.0658 16.1928 11.1462 16.3624 11.3069 16.5053C11.691 16.8358 12.2358 16.809 12.602 16.4339L15.6297 13.4062L18.1483 15.9248C18.3269 16.1034 18.5055 16.2821 18.6841 16.4607C18.8717 16.6393 19.095 16.7286 19.3272 16.7286C19.4254 16.7286 19.5326 16.7108 19.6308 16.675C19.9702 16.5589 20.1935 16.2999 20.256 15.9427C20.3007 15.7373 20.2828 15.4157 19.9702 15.1121Z" fill="#FF2E35"/>
</g>
<defs>
<clipPath id="clip0_1090_261">
<rect width="31.2682" height="30" fill="white"/>
</clipPath>
</defs>
</svg>
