<svg width="19" height="19" viewBox="0 0 19 19" fill="none" xmlns="http://www.w3.org/2000/svg">
<path d="M8.96811 18C8.90452 17.9933 8.84094 17.9833 8.77736 17.9766C8.64015 17.9598 8.4996 17.9431 8.3624 17.923C7.30157 17.7724 6.30098 17.4411 5.39074 16.9425C5.34055 16.9157 5.27027 16.899 5.2 16.899C5.15649 16.899 5.11634 16.9057 5.07952 16.9157C4.72815 17.0195 4.37677 17.1333 4.03543 17.247L3.85472 17.3073C3.35275 17.4713 2.85413 17.6352 2.35216 17.7992L1.72637 18H1.48208C1.24114 17.9163 1.08386 17.7591 1.00354 17.5215V17.2939C1.01023 17.2872 1.01693 17.2738 1.02362 17.2604C1.12067 16.9526 1.22106 16.6447 1.31811 16.3402C1.56909 15.5604 1.82677 14.7506 2.08445 13.9575C2.1313 13.8136 2.12126 13.6998 2.05098 13.576C1.58582 12.7327 1.2746 11.8325 1.12736 10.8988C1.09724 10.7014 1.06712 10.4972 1.0437 10.3032C1.03031 10.2128 1.02027 10.1224 1.00689 10.0321V9.00472C1.01023 8.99134 1.01358 8.9813 1.01693 8.96791C1.02362 8.93445 1.03366 8.89764 1.037 8.85748C1.12067 7.64941 1.44862 6.52165 2.00413 5.51102C2.65669 4.31634 3.49665 3.34252 4.49389 2.61634C5.49448 1.89016 6.68248 1.39154 8.02106 1.13386C8.24193 1.09035 8.46948 1.06358 8.6937 1.03681C8.79409 1.02343 8.90118 1.01339 9.00492 1H9.99547C10.0055 1.00335 10.0155 1.00669 10.0256 1.00669C10.0591 1.01339 10.0892 1.02343 10.126 1.02677C11.3407 1.11043 12.4718 1.43504 13.4892 1.99724C14.6839 2.6565 15.6577 3.49646 16.3839 4.49705C17.11 5.49764 17.6087 6.68228 17.8663 8.02421C17.9098 8.24508 17.9366 8.47264 17.9634 8.6935C17.9768 8.7939 17.9868 8.90098 18.0002 9.00472V9.99862C17.9968 10.012 17.9935 10.022 17.9902 10.0354C17.9835 10.0689 17.9734 10.1057 17.9701 10.1459C17.8864 11.3539 17.5585 12.4817 17.0029 13.4923C16.3437 14.687 15.5037 15.6608 14.5065 16.387C13.5059 17.1132 12.3213 17.6152 10.9827 17.8695C10.7618 17.913 10.5342 17.9398 10.31 17.9665C10.2096 17.9799 10.1026 17.99 9.99881 18.0033H8.96811V18ZM5.24015 15.6441C5.46771 15.6441 5.69862 15.7144 5.96633 15.865C7.06397 16.4841 8.23523 16.7986 9.44665 16.7986C9.95196 16.7986 10.4673 16.7451 10.986 16.6346C12.8065 16.2565 14.289 15.2927 15.3933 13.7701C16.6449 12.0467 17.0632 10.1024 16.6315 7.99409C16.2667 6.21378 15.3197 4.74469 13.8171 3.63032C12.5354 2.68661 11.1065 2.20472 9.57382 2.20472C9.20236 2.20472 8.81752 2.23484 8.43267 2.28839C6.46496 2.57618 4.85531 3.54665 3.64724 5.16969C2.37893 6.87638 1.94389 8.83406 2.35886 10.9825C2.51279 11.7823 2.81732 12.5553 3.2624 13.2782C3.4063 13.5124 3.42972 13.7366 3.33602 13.9843C3.27913 14.1415 3.22559 14.3055 3.17874 14.4628C3.162 14.523 3.14193 14.5799 3.12185 14.6368C2.99468 15.035 2.86752 15.4299 2.737 15.8415L2.53956 16.4606L2.66338 16.4205C2.8809 16.3502 3.10177 16.2833 3.3126 16.2163C3.81791 16.0591 4.29311 15.9152 4.76496 15.7344C4.93228 15.6742 5.08622 15.6441 5.24015 15.6441Z" fill="#212121" stroke="#212121" stroke-width="0.3"/>
<path d="M6.15377 10.2694C5.94963 10.2694 5.75889 10.1891 5.61164 10.0419C5.4644 9.89462 5.38408 9.70052 5.38743 9.49974C5.39078 9.08812 5.73881 8.73674 6.15042 8.7334H6.15377C6.3579 8.7334 6.54865 8.81371 6.69589 8.96096C6.84314 9.1082 6.92345 9.3023 6.92011 9.50308C6.91676 9.9147 6.56873 10.2661 6.15711 10.2694H6.15377Z" fill="#212121" stroke="#212121" stroke-width="0.3"/>
<path d="M9.49309 10.2694C9.07479 10.2661 8.73345 9.92139 8.7301 9.50308C8.7301 9.29895 8.81042 9.1082 8.95766 8.96096C9.10491 8.81371 9.29565 8.7334 9.49979 8.7334H9.50648C9.92479 8.73674 10.2661 9.08143 10.2695 9.49974C10.2695 9.70387 10.1892 9.89462 10.0419 10.0419C9.89467 10.1891 9.70392 10.2694 9.49979 10.2694H9.49309Z" fill="#212121" stroke="#212121" stroke-width="0.3"/>
<path d="M12.8431 10.2694C12.4248 10.2694 12.0801 9.92474 12.0768 9.50643C12.0768 9.3023 12.1571 9.11155 12.301 8.96096C12.4482 8.81371 12.639 8.7334 12.8431 8.7334C13.2648 8.7334 13.6095 9.07808 13.6128 9.49639C13.6128 9.70052 13.5325 9.89127 13.3886 10.0419C13.2413 10.1858 13.0506 10.2694 12.8431 10.2694Z" fill="#212121" stroke="#212121" stroke-width="0.3"/>
</svg>
