<svg width="17" height="16" viewBox="0 0 17 16" fill="none" xmlns="http://www.w3.org/2000/svg">
<g clip-path="url(#clip0_1090_820)">
<path d="M8.0674 0.536133C10.0338 0.536133 12.005 0.536133 13.9713 0.536133C14.9665 0.536133 15.7454 1.0746 16.0242 1.97365C16.0915 2.18519 16.1252 2.42077 16.1252 2.64674C16.13 5.48812 16.13 8.3343 16.13 11.1757C16.13 12.3872 15.2261 13.2863 14.0098 13.2911C12.0434 13.2959 10.0722 13.2959 8.10587 13.2911C7.74048 13.2911 7.46163 13.4161 7.22605 13.6949C6.86547 14.1228 6.49046 14.5363 6.12507 14.9594C5.75968 15.3825 5.30295 15.5604 4.75486 15.4257C4.2164 15.2911 3.89428 14.9305 3.76928 14.3921C3.73562 14.2575 3.70197 14.1228 3.66831 13.993C3.55293 13.5748 3.20677 13.3103 2.76926 13.2959C2.38464 13.2863 1.99522 13.3151 1.62502 13.2382C0.649046 13.0315 0.00480775 12.1949 0 11.1805C0 9.15643 0 7.13717 0 5.11311C0 4.31022 0 3.50732 0 2.69962C0 1.42557 0.884626 0.540941 2.15868 0.536133C4.12986 0.536133 6.09623 0.536133 8.0674 0.536133ZM5.61545 6.85352C5.62026 6.30062 5.16833 5.83908 4.61544 5.83908C4.05774 5.83908 3.60581 6.28139 3.601 6.83909C3.5962 7.39198 4.04812 7.84872 4.60102 7.85353C5.15871 7.85834 5.61064 7.41122 5.61545 6.85352ZM9.07222 6.85352C9.07703 6.30062 8.62029 5.83908 8.0674 5.83908C7.5097 5.83908 7.05778 6.2862 7.05297 6.8439C7.04816 7.39679 7.5049 7.85353 8.05779 7.85834C8.61549 7.85834 9.06742 7.40641 9.07222 6.85352ZM12.529 6.84871C12.529 6.29582 12.0771 5.83908 11.5242 5.83908C10.9665 5.83908 10.5194 6.2862 10.5145 6.8439C10.5097 7.39679 10.9665 7.85353 11.5194 7.85353C12.0771 7.85834 12.529 7.40641 12.529 6.84871Z" fill="#1D8BFA"/>
</g>
<defs>
<clipPath id="clip0_1090_820">
<rect width="16.13" height="14.9281" fill="white" transform="translate(0 0.536133)"/>
</clipPath>
</defs>
</svg>
