<svg width="24" height="24" viewBox="0 0 24 24" fill="none" xmlns="http://www.w3.org/2000/svg">
<path d="M11.3117 23C11.2294 22.9913 11.1471 22.9783 11.0648 22.9697C10.8873 22.948 10.7054 22.9264 10.5278 22.9004C9.15497 22.7055 7.86009 22.2768 6.68214 21.6315C6.61718 21.5969 6.52623 21.5752 6.43529 21.5752C6.37899 21.5752 6.32702 21.5839 6.27938 21.5969C5.82466 21.7311 5.36993 21.8783 4.9282 22.0256L4.69434 22.1035C4.04473 22.3158 3.39946 22.528 2.74985 22.7402L1.94001 23H1.62387C1.31206 22.8917 1.10851 22.6882 1.00458 22.3807V22.0862C1.01324 22.0776 1.0219 22.0602 1.03056 22.0429C1.15615 21.6445 1.28607 21.2461 1.41166 20.852C1.73647 19.8429 2.06993 18.7949 2.4034 17.7685C2.46403 17.5823 2.45103 17.435 2.36009 17.2748C1.75812 16.1835 1.35537 15.0185 1.16481 13.8102C1.12584 13.5547 1.08686 13.2906 1.05655 13.0394C1.03922 12.9224 1.02623 12.8055 1.00891 12.6886V11.3591C1.01324 11.3417 1.01757 11.3287 1.0219 11.3114C1.03056 11.2681 1.04355 11.2205 1.04788 11.1685C1.15615 9.60512 1.58056 8.14567 2.29946 6.8378C3.14395 5.29173 4.23096 4.0315 5.52151 3.09173C6.81639 2.15197 8.35379 1.50669 10.0861 1.17323C10.3719 1.11693 10.6664 1.08228 10.9565 1.04764C11.0865 1.03031 11.225 1.01732 11.3593 1H12.6412C12.6542 1.00433 12.6672 1.00866 12.6802 1.00866C12.7235 1.01732 12.7625 1.03031 12.8101 1.03465C14.3821 1.14291 15.8459 1.56299 17.1624 2.29055C18.7085 3.1437 19.9687 4.23071 20.9085 5.52559C21.8483 6.82047 22.4936 8.35354 22.827 10.0902C22.8833 10.376 22.918 10.6705 22.9526 10.9563C22.9699 11.0862 22.9829 11.2248 23.0002 11.3591V12.6453C22.9959 12.6626 22.9916 12.6756 22.9873 12.6929C22.9786 12.7362 22.9656 12.7839 22.9613 12.8358C22.853 14.3992 22.4286 15.8587 21.7097 17.1665C20.8565 18.7126 19.7695 19.9728 18.479 20.9126C17.1841 21.8524 15.651 22.502 13.9187 22.8311C13.6329 22.8874 13.3384 22.9221 13.0483 22.9567C12.9184 22.974 12.7798 22.987 12.6455 23.0043H11.3117V23ZM6.48725 19.9512C6.78174 19.9512 7.08056 20.0421 7.42702 20.237C8.84749 21.0382 10.3632 21.4453 11.931 21.4453C12.5849 21.4453 13.2518 21.376 13.9231 21.2331C16.279 20.7437 18.1975 19.4965 19.6266 17.526C21.2463 15.2957 21.7876 12.7795 21.229 10.0512C20.7569 7.74724 19.5313 5.84606 17.5869 4.40394C15.9282 3.18268 14.079 2.55906 12.0955 2.55906C11.6148 2.55906 11.1168 2.59803 10.6187 2.66732C8.07229 3.03976 5.98922 4.29567 4.42584 6.39606C2.7845 8.60473 2.22151 11.1382 2.75851 13.9185C2.95773 14.9535 3.35182 15.9539 3.92781 16.8894C4.11403 17.1925 4.14434 17.4827 4.02308 17.8032C3.94946 18.0067 3.88017 18.2189 3.81954 18.4224C3.79788 18.5004 3.7719 18.574 3.74592 18.6476C3.58135 19.163 3.41678 19.674 3.24788 20.2067L2.99237 21.0079L3.15261 20.9559C3.4341 20.865 3.71993 20.7783 3.99277 20.6917C4.6467 20.4882 5.26166 20.302 5.87229 20.0681C6.08883 19.9902 6.28804 19.9512 6.48725 19.9512Z" fill="#F78F1E" stroke="#F78F1E" stroke-width="0.3"/>
<path d="M7.66929 12.9961C7.40512 12.9961 7.15827 12.8922 6.96772 12.7016C6.77717 12.5111 6.67323 12.2599 6.67756 12C6.68189 11.4674 7.13228 11.0126 7.66496 11.0083H7.66929C7.93346 11.0083 8.18031 11.1122 8.37087 11.3028C8.56142 11.4933 8.66535 11.7445 8.66102 12.0044C8.65669 12.537 8.2063 12.9918 7.67362 12.9961H7.66929Z" fill="#F78F1E" stroke="#F78F1E" stroke-width="0.3"/>
<path d="M11.9913 12.9961C11.45 12.9918 11.0083 12.5457 11.0039 12.0044C11.0039 11.7402 11.1079 11.4933 11.2984 11.3028C11.489 11.1122 11.7358 11.0083 12 11.0083H12.0087C12.55 11.0126 12.9917 11.4587 12.9961 12C12.9961 12.2642 12.8921 12.5111 12.7016 12.7016C12.511 12.8922 12.2642 12.9961 12 12.9961H11.9913Z" fill="#F78F1E" stroke="#F78F1E" stroke-width="0.3"/>
<path d="M16.3264 12.9961C15.785 12.9961 15.339 12.55 15.3346 12.0087C15.3346 11.7445 15.4386 11.4977 15.6248 11.3028C15.8153 11.1122 16.0622 11.0083 16.3264 11.0083C16.872 11.0083 17.3181 11.4544 17.3224 11.9957C17.3224 12.2599 17.2185 12.5067 17.0323 12.7016C16.8417 12.8878 16.5949 12.9961 16.3264 12.9961Z" fill="#F78F1E" stroke="#F78F1E" stroke-width="0.3"/>
</svg>
