<svg width="32" height="30" viewBox="0 0 32 30" fill="none" xmlns="http://www.w3.org/2000/svg">
<g clip-path="url(#clip0_1090_250)">
<path d="M31.2682 18.5501C31.2236 18.7824 31.1878 19.0056 31.1253 19.2289C30.518 21.4885 29.0801 22.8907 26.7847 23.3909C26.6954 23.4087 26.6061 23.4266 26.4811 23.4623C26.4811 23.5784 26.4811 23.7035 26.4811 23.8196C26.4811 25.454 26.4811 27.0973 26.4811 28.7317C26.4811 29.4552 26.1149 29.9107 25.4986 29.991C25.0878 30.0446 24.7752 29.8571 24.4983 29.5802C23.1051 28.178 21.7118 26.7847 20.3096 25.3915C19.7559 24.8377 19.1932 24.2929 18.6484 23.7303C18.4876 23.5606 18.3269 23.498 18.0947 23.498C13.9238 23.507 9.75288 23.5248 5.582 23.498C3.24202 23.4802 1.53615 22.3816 0.500131 20.2739C0.142882 19.5504 0.00891328 18.7734 0.00891328 17.9696C0.00891328 13.8255 -1.79471e-05 9.68143 0.00891328 5.54627C0.0178445 2.71507 1.98271 0.464404 4.76033 0.0624985C5.07292 0.0178424 5.38551 0.00891113 5.70704 0.00891113C12.334 0.00891113 18.9521 0.00891113 25.579 0.00891113C28.2137 0.00891113 30.393 1.58974 31.0539 3.99224C31.1432 4.30483 31.1968 4.62636 31.2682 4.93895C31.2682 9.46708 31.2682 14.0131 31.2682 18.5501ZM24.159 26.2757C24.2036 26.2399 24.2483 26.2042 24.2929 26.1774C24.2929 26.0792 24.2929 25.9809 24.2929 25.8827C24.2929 24.7306 24.284 23.5784 24.2929 22.4352C24.3019 21.7565 24.7484 21.3188 25.4272 21.301C25.5165 21.301 25.6147 21.301 25.7041 21.301C27.6332 21.292 29.0711 19.872 29.0711 17.9428C29.0801 13.8166 29.0801 9.6993 29.0711 5.57307C29.0711 3.64392 27.66 2.19706 25.7309 2.18813C19.0056 2.1792 12.2804 2.1792 5.54628 2.18813C3.61713 2.18813 2.19706 3.63499 2.19706 5.56414C2.18813 9.69036 2.19706 13.8077 2.19706 17.9339C2.19706 18.2197 2.22386 18.5055 2.28638 18.7824C2.65256 20.2917 3.95652 21.301 5.54628 21.301C9.91365 21.301 14.281 21.3099 18.6484 21.301C19.1039 21.301 19.4701 21.4439 19.7916 21.7743C21.1849 23.1855 22.596 24.5787 23.9982 25.9899C24.0786 26.0613 24.1054 26.1774 24.159 26.2757Z" fill="#F78F1E"/>
<path d="M21.3635 9.11877C21.2653 8.77938 21.0063 8.52038 20.6937 8.42213C20.265 8.28817 19.8809 8.38641 19.5505 8.7258C18.5234 9.76182 17.4874 10.7889 16.4603 11.8249L14.0756 14.2185C13.2986 13.4326 12.5127 12.6555 11.7356 11.8696C11.2891 11.423 10.6639 11.3962 10.2173 11.7981C9.99406 11.9946 9.91367 12.2536 9.87795 12.4323L9.86902 12.4501V12.6913V12.727C9.92261 12.986 10.0387 13.1914 10.2084 13.37C10.5567 13.7184 10.905 14.0667 11.2534 14.415C11.9232 15.0848 12.6109 15.7725 13.2897 16.4513C13.4147 16.5763 13.5755 16.6746 13.7273 16.7371C13.8523 16.7818 13.9774 16.7996 14.0935 16.7996C14.3793 16.7996 14.6383 16.6746 14.8884 16.4334C16.1387 15.1831 17.3891 13.9238 18.6395 12.6734L21.0509 10.262C21.0956 10.2173 21.1492 10.1548 21.2028 10.0923C21.4082 9.81541 21.4707 9.45816 21.3635 9.11877Z" fill="#F78F1E"/>
</g>
<defs>
<clipPath id="clip0_1090_250">
<rect width="31.2682" height="30" fill="white"/>
</clipPath>
</defs>
</svg>
