<svg width="32" height="30" viewBox="0 0 32 30" fill="none" xmlns="http://www.w3.org/2000/svg">
<g clip-path="url(#clip0_1090_272)">
<path d="M31.2682 18.5501C31.2236 18.7824 31.1879 19.0056 31.1253 19.2289C30.518 21.4885 29.0801 22.8907 26.7848 23.3909C26.6954 23.4087 26.6061 23.4266 26.4811 23.4623C26.4811 23.5784 26.4811 23.7035 26.4811 23.8196C26.4811 25.454 26.4811 27.0973 26.4811 28.7317C26.4811 29.4552 26.1149 29.9107 25.4987 29.991C25.0878 30.0446 24.7752 29.8571 24.4984 29.5802C23.1051 28.178 21.7118 26.7847 20.3096 25.3915C19.7559 24.8377 19.1932 24.2929 18.6484 23.7303C18.4876 23.5606 18.3269 23.498 18.0947 23.498C13.9238 23.507 9.7529 23.5248 5.58202 23.498C3.24203 23.4802 1.53617 22.3816 0.500146 20.2739C0.142897 19.5504 0.00892854 18.7734 0.00892854 17.9696C0.00892854 13.8255 -2.68826e-06 9.68143 0.00892854 5.54627C0.0178598 2.71507 1.98273 0.464404 4.76034 0.0624985C5.07294 0.0178424 5.38553 0.00891113 5.70705 0.00891113C12.334 0.00891113 18.9521 0.00891113 25.579 0.00891113C28.2138 0.00891113 30.393 1.58974 31.0539 3.99224C31.1432 4.30483 31.1968 4.62636 31.2682 4.93895C31.2682 9.46708 31.2682 14.0131 31.2682 18.5501ZM24.159 26.2757C24.2036 26.2399 24.2483 26.2042 24.2929 26.1774C24.2929 26.0792 24.2929 25.9809 24.2929 25.8827C24.2929 24.7306 24.284 23.5784 24.2929 22.4352C24.3019 21.7565 24.7484 21.3188 25.4272 21.301C25.5165 21.301 25.6148 21.301 25.7041 21.301C27.6332 21.292 29.0712 19.872 29.0712 17.9428C29.0801 13.8166 29.0801 9.6993 29.0712 5.57307C29.0712 3.64392 27.66 2.19706 25.7309 2.18813C19.0057 2.1792 12.2804 2.1792 5.54629 2.18813C3.61715 2.18813 2.19708 3.63499 2.19708 5.56414C2.18815 9.69036 2.19708 13.8077 2.19708 17.9339C2.19708 18.2197 2.22387 18.5055 2.28639 18.7824C2.65257 20.2917 3.95653 21.301 5.54629 21.301C9.91366 21.301 14.281 21.3099 18.6484 21.301C19.1039 21.301 19.4701 21.4439 19.7916 21.7743C21.1849 23.1855 22.596 24.5787 23.9982 25.9899C24.0786 26.0613 24.1054 26.1774 24.159 26.2757Z" fill="#1D8BFA"/>
<path d="M23.3195 8.23506C23.1855 7.95819 22.9712 7.82422 22.6943 7.82422C22.1048 7.82422 21.5243 7.82422 20.9348 7.82422C20.1667 7.82422 19.4076 7.82422 18.6395 7.82422C18.2465 7.82422 18.0054 8.06536 17.9965 8.4762C17.9965 8.64589 17.9965 8.81559 17.9965 8.98528V9.11925C17.9965 9.61046 18.2287 9.83375 18.7199 9.83375C18.961 9.83375 19.2022 9.83375 19.4433 9.83375C19.5505 9.83375 19.6577 9.83375 19.7738 9.83375C18.7824 10.7358 18.1572 11.3253 17.541 11.8969C16.8979 12.5042 16.2281 13.1294 15.1385 14.1118C14.1471 13.2098 13.8702 12.9507 13.6023 12.7007C13.3344 12.4506 13.0486 12.1827 12.0393 11.2627L11.5213 10.8072C10.8604 10.2089 10.2084 9.61047 9.54751 9.01207C9.21706 8.71734 8.89553 8.72627 8.59187 9.0478C8.52935 9.11032 8.47577 9.17283 8.41325 9.23535C8.37752 9.28001 8.33287 9.31573 8.29714 9.36039C8.08279 9.5926 7.9131 9.78909 7.92203 10.0213C7.93096 10.2446 8.11852 10.4321 8.35966 10.6554C9.86011 12.0219 10.6282 12.7275 11.3784 13.4152C12.1197 14.0939 12.8789 14.7906 14.3436 16.1303C14.6115 16.3714 14.8705 16.4875 15.1295 16.4875C15.3885 16.4875 15.6475 16.3714 15.9065 16.1392C17.148 15.0139 17.9161 14.2994 18.6663 13.6027C19.3897 12.924 20.131 12.2273 21.3189 11.1645C21.3189 11.2717 21.3189 11.3788 21.3189 11.486C21.3189 11.8165 21.3189 12.1469 21.3189 12.4774C21.3189 12.924 21.56 13.1651 22.0066 13.1651C22.078 13.1651 22.1495 13.1651 22.2209 13.1651C22.346 13.1651 22.4621 13.1651 22.5871 13.1651C22.9354 13.183 23.1855 13.049 23.3284 12.7453L23.3463 12.7096V8.27078L23.3195 8.23506Z" fill="#1D8BFA"/>
</g>
<defs>
<clipPath id="clip0_1090_272">
<rect width="31.2682" height="30" fill="white"/>
</clipPath>
</defs>
</svg>
