<svg width="21" height="18" viewBox="0 0 21 18" fill="none" xmlns="http://www.w3.org/2000/svg">
<path d="M10.4411 17C9.31632 17 8.22537 16.7633 7.19925 16.2999C6.24644 15.8664 5.57552 15.303 5.09629 14.5295C4.77774 14.0194 4.62552 13.4659 4.62834 12.8391C4.63115 12.1623 4.63115 11.4722 4.63115 10.8054C4.63115 10.1052 4.63115 9.38175 4.63397 8.6716C4.63397 8.43155 4.55222 8.28152 4.36899 8.1915C3.92641 7.96812 3.47537 7.73807 3.03842 7.51469C2.51127 7.24463 1.96439 6.96458 1.42314 6.69452C1.20326 6.5845 1.07359 6.4578 1.00311 6.27443V6.00104C1.07359 5.821 1.19762 5.69765 1.42314 5.58095C4.23086 4.14732 7.19362 2.63367 10.224 1.07668C10.3227 1.02667 10.4129 1 10.5031 1C10.5905 1 10.6807 1.02334 10.7766 1.07335C14.0663 2.76037 16.9501 4.23734 19.5972 5.58762C19.8086 5.69431 19.9298 5.821 20.0003 5.99771V6.2711C19.9298 6.4578 19.7973 6.58783 19.5662 6.69785C19.2645 6.84455 18.9629 7.00125 18.6697 7.15128C18.5429 7.21463 18.4188 7.28131 18.292 7.34799L18.1905 7.40133V9.04501C18.1905 11.2021 18.1905 13.4326 18.1905 15.6264C18.1905 15.7297 18.1877 15.8331 18.1651 15.9231C18.1144 16.1332 17.9453 16.2832 17.7564 16.2832C17.7395 16.2832 17.7254 16.2832 17.7085 16.2798C17.5055 16.2532 17.342 16.0531 17.3223 15.8131C17.3194 15.7631 17.3194 15.7064 17.3194 15.6497C17.3194 15.6297 17.3194 15.6064 17.3194 15.5864C17.3194 13.5526 17.3194 7.85476 17.3194 7.85476L17.0855 7.97479C17.0319 8.00146 16.9812 8.02813 16.9304 8.05147C16.7923 8.11815 16.6654 8.1815 16.5386 8.26151C16.3863 8.3582 16.3835 8.62826 16.3835 8.65826C16.3835 9.00834 16.3779 9.36508 16.3751 9.71181C16.3666 10.6253 16.3582 11.5722 16.3892 12.5024C16.4315 13.7593 16.003 14.7229 15.0417 15.5297C14.2975 16.1565 13.4151 16.5699 12.3467 16.7966C11.6955 16.93 11.0556 17 10.4411 17ZM5.49658 9.35174C5.49658 9.67847 5.49658 10.0052 5.49658 10.3319C5.49658 11.1288 5.4994 11.9523 5.49095 12.7625C5.48531 13.2659 5.62344 13.7026 5.90816 14.0961C6.26053 14.5862 6.71439 14.9562 7.2951 15.2363C8.33249 15.7331 9.40089 15.9831 10.4749 15.9865C11.4165 15.9865 12.3862 15.7931 13.3503 15.4063C14.0973 15.1096 14.6696 14.6795 15.0924 14.0927C15.2644 13.856 15.4927 13.4859 15.4955 13.0058C15.504 12.069 15.5012 11.1554 15.5012 10.1852C15.5012 9.82184 15.5012 9.45843 15.5012 9.09169V8.79829L15.27 8.90831C15.2418 8.92165 15.2165 8.93499 15.1911 8.94499C15.1404 8.96833 15.0981 8.98833 15.053 9.01167C14.7231 9.17837 14.3933 9.34841 14.0663 9.51511C12.9951 10.0619 11.8872 10.6287 10.7991 11.1888C10.692 11.2455 10.5933 11.2721 10.5003 11.2721C10.4073 11.2721 10.3142 11.2455 10.2128 11.1955C9.11899 10.6287 8.00267 10.0586 6.92581 9.50844C6.59881 9.34174 6.26899 9.1717 5.94199 9.005C5.89688 8.98166 5.85178 8.96166 5.80385 8.94165C5.7813 8.93165 5.75593 8.92165 5.72774 8.90831L5.49658 8.80163V9.35174ZM10.5059 2.1269C10.4242 2.1269 10.3453 2.14357 10.2776 2.17691C9.2092 2.71702 8.1267 3.27047 7.08086 3.80725C6.73976 3.98062 6.39866 4.15732 6.05756 4.33069C5.34154 4.69744 4.6227 5.06418 3.88976 5.43759L2.5592 6.11773L2.89466 6.30777C2.92566 6.32444 2.95385 6.34111 2.97641 6.35445C3.01869 6.37779 3.05252 6.39779 3.08917 6.4178L3.91231 6.83788C6.00118 7.90811 8.16053 9.01167 10.2861 10.0919C10.3481 10.1219 10.4214 10.1386 10.5003 10.1386C10.582 10.1386 10.6666 10.1186 10.7343 10.0852C11.6448 9.62846 12.5638 9.15837 13.4546 8.7016L14.0409 8.40154C14.32 8.25818 14.5991 8.11482 14.8895 7.96478L15.738 7.52803L15.2757 7.378C15.2503 7.37133 15.2277 7.36133 15.2108 7.35466C15.1714 7.34132 15.1347 7.32799 15.0953 7.32132L14.616 7.2513C13.277 7.05126 11.8929 6.84788 10.5285 6.64784C10.2269 6.6045 10.0436 6.37112 10.0718 6.07106C10.0972 5.79767 10.2832 5.62096 10.5454 5.62096C10.5764 5.62096 10.6074 5.6243 10.6412 5.62763C11.0105 5.68764 11.3855 5.74099 11.7491 5.79433L12.0085 5.83434C12.4708 5.90436 12.9359 5.97104 13.3982 6.04105C14.5004 6.20442 15.6393 6.37112 16.7613 6.54115L16.8148 6.54782C16.9727 6.57116 17.1362 6.59783 17.2997 6.59783C17.6295 6.59783 17.8861 6.49114 18.1116 6.26776L18.3004 6.07772L18.0806 5.9377C18.0693 5.93103 18.0608 5.92436 18.0496 5.91769C18.0242 5.90102 17.9932 5.88102 17.9593 5.86101L17.2631 5.50427C15.1178 4.41738 12.9049 3.28381 10.7258 2.17691C10.661 2.14357 10.5849 2.1269 10.5059 2.1269Z" fill="white" stroke="white" stroke-width="0.3"/>
</svg>
