<svg width="7" height="12" viewBox="0 0 7 12" fill="none" xmlns="http://www.w3.org/2000/svg">
<path d="M1.02049 12C0.939695 12 0.852434 11.9871 0.765173 11.958C0.464608 11.8643 0.290086 11.6639 0.22868 11.3504C0.183434 11.108 0.241608 10.8947 0.406434 10.7008C0.435521 10.6685 0.46784 10.6329 0.50339 10.5974L4.86644 6.23431C4.88906 6.21169 4.90845 6.18907 4.93431 6.16644L4.96663 6.13089L5.0959 5.99838L4.96986 5.86588C4.95693 5.85295 4.94724 5.84002 4.93431 5.83033C4.90845 5.80447 4.88583 5.77862 4.86321 5.75599L3.28928 4.18206C2.35203 3.24805 1.41801 2.3108 0.483999 1.37678C0.209289 1.10207 0.141419 0.762726 0.293318 0.449232C0.39997 0.226232 0.57126 0.087261 0.820116 0.0193913C0.842739 0.0129276 0.86213 0.00646378 0.881521 0L1.11745 0C1.34045 0.0484783 1.51497 0.187449 1.72181 0.397522C3.54137 2.22354 5.34799 4.0237 6.71831 5.39402C6.98656 5.66227 7.06089 5.93375 6.95101 6.25047C6.91222 6.36359 6.83789 6.47994 6.7474 6.57043C4.9537 8.37059 3.13415 10.1869 1.56668 11.7511C1.40186 11.916 1.21764 12 1.02049 12Z" fill="#212121"/>
</svg>
