<svg width="7" height="12" viewBox="0 0 7 12" fill="none" xmlns="http://www.w3.org/2000/svg">
<path d="M6.19337 12C6.27417 12 6.36143 11.9871 6.44869 11.958C6.74926 11.8643 6.92378 11.6639 6.98519 11.3504C7.03043 11.108 6.97226 10.8947 6.80743 10.7008C6.77835 10.6685 6.74603 10.6329 6.71048 10.5974L2.34743 6.23431C2.3248 6.21169 2.30541 6.18907 2.27956 6.16644L2.24724 6.13089L2.11796 5.99838L2.24401 5.86588C2.25694 5.85295 2.26663 5.84002 2.27956 5.83033C2.30541 5.80447 2.32804 5.77862 2.35066 5.75599L3.92459 4.18206C4.86184 3.24805 5.79585 2.3108 6.72987 1.37678C7.00458 1.10207 7.07245 0.762726 6.92055 0.449232C6.8139 0.226232 6.64261 0.087261 6.39375 0.0193913C6.37113 0.0129276 6.35174 0.00646378 6.33235 0L6.09642 0C5.87342 0.0484783 5.6989 0.187449 5.49205 0.397522C3.6725 2.22354 1.86588 4.0237 0.495556 5.39402C0.22731 5.66227 0.152977 5.93375 0.26286 6.25047C0.301643 6.36359 0.375977 6.47994 0.46647 6.57043C2.26017 8.37059 4.07972 10.1869 5.64719 11.7511C5.81201 11.916 5.99623 12 6.19337 12Z" fill="#212121"/>
</svg>
