<svg width="12" height="9" viewBox="0 0 12 9" fill="none" xmlns="http://www.w3.org/2000/svg">
<g clip-path="url(#clip0_1090_33)">
<path d="M4.75742 9C4.08173 9 3.48418 8.54035 3.30491 7.88764C3.27274 7.77273 3.25895 7.66241 3.25895 7.56588C3.25895 7.13381 3.25895 6.69714 3.25435 6.26507C3.24976 4.68846 3.24516 3.05669 3.25895 1.4525C3.26814 0.64811 3.93923 0 4.76201 0C4.7758 0 4.785 0 4.79879 0C5.047 0.00459653 5.27682 0.0689479 5.48367 0.188458L6.57764 0.822778C7.93821 1.60878 9.34015 2.41777 10.7191 3.22217C11.1834 3.49336 11.4316 3.976 11.4316 4.61491C11.4086 5.12972 11.1328 5.5526 10.641 5.84219C9.68949 6.39377 8.74261 6.94076 7.79112 7.49234L6.92238 7.99336C6.77529 8.0761 6.6328 8.16343 6.48571 8.24617C6.15936 8.43922 5.81921 8.63687 5.48367 8.82073C5.25384 8.94024 5.01023 9 4.75742 9ZM4.82177 7.39581L9.82739 4.5L4.82177 1.60878V7.39581Z" fill="#4F80FF"/>
<path d="M2.19717 4.5C2.19717 5.11134 1.70534 5.60776 1.0986 5.60776C0.49186 5.60776 -0.00456486 5.10674 3.16653e-05 4.5C0.00462819 3.89326 0.49186 3.40143 1.09401 3.40143C1.70075 3.39683 2.19717 3.88866 2.19717 4.5Z" fill="#4F80FF"/>
</g>
<defs>
<clipPath id="clip0_1090_33">
<rect width="11.427" height="9" fill="white"/>
</clipPath>
</defs>
</svg>
