<svg width="17" height="12" viewBox="0 0 17 12" fill="none" xmlns="http://www.w3.org/2000/svg">
<path d="M15.901 6.47239C16.1227 6.09448 16.032 5.59059 15.7246 5.28826C15.7246 5.28826 15.7246 5.28826 15.7196 5.28322L10.7311 0.294772C10.3381 -0.0982574 9.69819 -0.0982574 9.30516 0.294772C8.91213 0.687802 8.91213 1.32773 9.30516 1.72076L12.5754 4.99097H1.19136C0.63709 4.99097 0.183594 5.44447 0.183594 5.99874C0.183594 6.55301 0.63709 7.00651 1.19136 7.00651H12.5754L9.30516 10.2767C8.91213 10.6697 8.91213 11.3097 9.30516 11.7027C9.50167 11.8992 9.75865 12 10.0156 12C10.2726 12 10.5296 11.8992 10.7261 11.7027L15.7146 6.71426C15.7398 6.6941 15.8657 6.53286 15.901 6.47239Z" fill="#212121"/>
</svg>
