<svg width="215" height="31" viewBox="0 0 215 31" fill="none" xmlns="http://www.w3.org/2000/svg">
<path d="M17.8915 29.3333C15.8785 29.3333 13.926 28.9142 12.0895 28.0935C10.3842 27.326 9.18341 26.3282 8.32572 24.9585C7.7556 24.0552 7.48316 23.0751 7.4882 21.9651C7.49325 20.7666 7.49325 19.5445 7.49325 18.3637C7.49325 17.1238 7.49325 15.8427 7.49829 14.5851C7.49829 14.16 7.35198 13.8944 7.02404 13.7349C6.23193 13.3394 5.42469 12.932 4.64268 12.5364C3.69921 12.0582 2.72043 11.5623 1.75174 11.084C1.35821 10.8892 1.12613 10.6649 1 10.3401V9.85601C1.12613 9.5372 1.34812 9.31875 1.75174 9.11211C6.77682 6.57338 12.0794 3.89296 17.503 1.13579C17.6796 1.04723 17.8411 1 18.0025 1C18.1589 1 18.3204 1.04133 18.4919 1.12989C24.3797 4.11732 29.541 6.73279 34.2785 9.12392C34.6569 9.31284 34.8739 9.5372 35 9.85011V10.3342C34.8739 10.6649 34.6367 10.8951 34.223 11.09C33.6832 11.3497 33.1433 11.6272 32.6186 11.8929C32.3916 12.0051 32.1696 12.1232 31.9426 12.2412L31.7609 12.3357V15.2464C31.7609 19.0663 31.7609 23.016 31.7609 26.9009C31.7609 27.0839 31.7559 27.2669 31.7155 27.4263C31.6247 27.7983 31.322 28.064 30.984 28.064C30.9537 28.064 30.9285 28.064 30.8982 28.0581C30.5349 28.0108 30.2423 27.6566 30.207 27.2315C30.202 27.143 30.202 27.0426 30.202 26.9422C30.202 26.9068 30.202 26.8655 30.202 26.83C30.202 23.2286 30.202 13.1386 30.202 13.1386L29.7832 13.3512C29.6873 13.3984 29.5965 13.4457 29.5057 13.487C29.2585 13.6051 29.0315 13.7172 28.8044 13.8589C28.532 14.0301 28.5269 14.5084 28.5269 14.5615C28.5269 15.1814 28.5168 15.8132 28.5118 16.4272C28.4967 18.0449 28.4815 19.7216 28.537 21.3688C28.6127 23.5946 27.8458 25.3009 26.1254 26.7297C24.7934 27.8396 23.2143 28.5717 21.3021 28.9732C20.1367 29.2094 18.9914 29.3333 17.8915 29.3333ZM9.04214 15.7895C9.04214 16.3681 9.04214 16.9467 9.04214 17.5253C9.04214 18.9364 9.04719 20.3947 9.03205 21.8293C9.02196 22.7208 9.26918 23.4943 9.77875 24.1909C10.4094 25.0588 11.2217 25.7142 12.261 26.2101C14.1177 27.0898 16.0298 27.5326 17.9521 27.5385C19.6372 27.5385 21.3728 27.1961 23.0982 26.5112C24.4352 25.9858 25.4594 25.2241 26.2162 24.185C26.524 23.7659 26.9326 23.1105 26.9377 22.2603C26.9528 20.6013 26.9478 18.9836 26.9478 17.2655C26.9478 16.622 26.9478 15.9785 26.9478 15.329V14.8095L26.5341 15.0043C26.4836 15.0279 26.4382 15.0515 26.3928 15.0693C26.302 15.1106 26.2263 15.146 26.1456 15.1873C25.5553 15.4825 24.965 15.7836 24.3797 16.0788C22.4625 17.0471 20.4797 18.0508 18.5323 19.0427C18.3406 19.143 18.164 19.1903 17.9975 19.1903C17.831 19.1903 17.6645 19.143 17.4829 19.0545C15.5253 18.0508 13.5274 17.0412 11.6001 16.067C11.0148 15.7718 10.4245 15.4707 9.83929 15.1755C9.75857 15.1342 9.67785 15.0988 9.59208 15.0633C9.55171 15.0456 9.50631 15.0279 9.45585 15.0043L9.04214 14.8154V15.7895ZM18.0076 2.99555C17.8613 2.99555 17.72 3.02507 17.5989 3.08412C15.6867 4.04056 13.7494 5.02063 11.8776 5.97118C11.2671 6.27818 10.6566 6.5911 10.0461 6.89811C8.76465 7.54755 7.47811 8.19699 6.16635 8.85824L3.78498 10.0627L4.38537 10.3992C4.44087 10.4287 4.49132 10.4582 4.53168 10.4818C4.60736 10.5232 4.6679 10.5586 4.73349 10.594L6.20671 11.3379C9.94524 13.2331 13.8099 15.1873 17.614 17.1002C17.725 17.1534 17.8562 17.1829 17.9975 17.1829C18.1438 17.1829 18.2951 17.1475 18.4162 17.0884C20.0459 16.2796 21.6906 15.4471 23.2849 14.6383L24.3343 14.1069C24.8338 13.853 25.3333 13.5992 25.8529 13.3335L27.3716 12.5601L26.5441 12.2944C26.4987 12.2826 26.4584 12.2648 26.4281 12.253C26.3575 12.2294 26.2919 12.2058 26.2213 12.194L25.3636 12.07C22.9671 11.7158 20.4898 11.3556 18.0479 11.0014C17.5081 10.9246 17.1801 10.5114 17.2306 9.98C17.276 9.49587 17.609 9.18296 18.0782 9.18296C18.1337 9.18296 18.1892 9.18886 18.2497 9.19476C18.9107 9.30104 19.5817 9.3955 20.2325 9.48996L20.6967 9.56081C21.5241 9.6848 22.3566 9.80288 23.184 9.92686C25.1567 10.2162 27.195 10.5114 29.203 10.8125L29.2989 10.8243C29.5814 10.8656 29.874 10.9128 30.1666 10.9128C30.7569 10.9128 31.2161 10.7239 31.6197 10.3283L31.9577 9.99181L31.5642 9.74384C31.544 9.73203 31.5289 9.72022 31.5087 9.70841C31.4633 9.67889 31.4078 9.64347 31.3472 9.60804L30.1011 8.97632C26.2616 7.05161 22.3011 5.04425 18.4011 3.08412C18.2851 3.02507 18.1488 2.99555 18.0076 2.99555Z" fill="#F78F1E" stroke="#F78F1E" stroke-width="0.5"/>
<path d="M48.814 16.144C48.334 16.144 47.812 16.132 47.248 16.108C46.696 16.084 46.15 16.048 45.61 16C45.082 15.952 44.608 15.904 44.188 15.856V13.534C44.632 13.57 45.076 13.606 45.52 13.642C45.976 13.678 46.408 13.702 46.816 13.714C47.224 13.726 47.566 13.732 47.842 13.732C48.418 13.732 48.856 13.714 49.156 13.678C49.456 13.63 49.678 13.564 49.822 13.48C49.918 13.396 49.984 13.306 50.02 13.21C50.068 13.114 50.098 13 50.11 12.868C50.122 12.736 50.128 12.586 50.128 12.418C50.128 12.166 50.11 11.968 50.074 11.824C50.05 11.668 49.99 11.548 49.894 11.464C49.81 11.38 49.678 11.32 49.498 11.284C49.318 11.236 49.084 11.194 48.796 11.158L46.258 10.834C45.766 10.774 45.364 10.654 45.052 10.474C44.74 10.282 44.494 10.03 44.314 9.718C44.134 9.406 44.008 9.04 43.936 8.62C43.864 8.188 43.828 7.708 43.828 7.18C43.828 6.364 43.948 5.716 44.188 5.236C44.428 4.744 44.758 4.372 45.178 4.12C45.61 3.856 46.108 3.682 46.672 3.598C47.248 3.514 47.872 3.472 48.544 3.472C49.024 3.472 49.522 3.49 50.038 3.526C50.554 3.55 51.04 3.592 51.496 3.652C51.952 3.7 52.33 3.76 52.63 3.832V6.1C52.33 6.052 51.976 6.016 51.568 5.992C51.172 5.956 50.758 5.932 50.326 5.92C49.894 5.896 49.486 5.884 49.102 5.884C48.634 5.884 48.262 5.902 47.986 5.938C47.71 5.962 47.494 6.016 47.338 6.1C47.17 6.196 47.062 6.322 47.014 6.478C46.978 6.634 46.96 6.832 46.96 7.072C46.96 7.372 46.984 7.606 47.032 7.774C47.08 7.93 47.188 8.038 47.356 8.098C47.524 8.158 47.782 8.212 48.13 8.26L50.596 8.548C50.932 8.584 51.238 8.644 51.514 8.728C51.802 8.812 52.06 8.944 52.288 9.124C52.528 9.304 52.726 9.562 52.882 9.898C52.966 10.054 53.032 10.246 53.08 10.474C53.128 10.69 53.17 10.942 53.206 11.23C53.242 11.518 53.26 11.842 53.26 12.202C53.26 12.91 53.188 13.51 53.044 14.002C52.9 14.482 52.696 14.866 52.432 15.154C52.168 15.43 51.85 15.646 51.478 15.802C51.106 15.946 50.692 16.036 50.236 16.072C49.792 16.12 49.318 16.144 48.814 16.144ZM58.8978 16.144C58.1298 16.144 57.4998 16.078 57.0078 15.946C56.5158 15.802 56.1258 15.604 55.8378 15.352C55.5498 15.088 55.3398 14.764 55.2078 14.38C55.0758 13.996 54.9918 13.558 54.9558 13.066C54.9198 12.562 54.9018 12.01 54.9018 11.41C54.9018 10.822 54.9198 10.282 54.9558 9.79C54.9918 9.298 55.0818 8.86 55.2258 8.476C55.3698 8.08 55.5798 7.75 55.8558 7.486C56.1438 7.222 56.5278 7.024 57.0078 6.892C57.4998 6.748 58.1238 6.676 58.8798 6.676C59.3598 6.676 59.8398 6.7 60.3198 6.748C60.8118 6.796 61.2498 6.868 61.6338 6.964V8.998C61.3938 8.962 61.0818 8.932 60.6978 8.908C60.3258 8.884 59.9778 8.872 59.6538 8.872C59.2338 8.872 58.9038 8.908 58.6638 8.98C58.4238 9.04 58.2438 9.16 58.1238 9.34C58.0038 9.508 57.9198 9.76 57.8718 10.096C57.8358 10.432 57.8178 10.87 57.8178 11.41C57.8178 11.95 57.8358 12.394 57.8718 12.742C57.9198 13.078 58.0038 13.336 58.1238 13.516C58.2438 13.684 58.4298 13.798 58.6818 13.858C58.9338 13.918 59.2638 13.948 59.6718 13.948C59.9598 13.948 60.2838 13.936 60.6438 13.912C61.0158 13.888 61.3698 13.858 61.7058 13.822V15.856C61.3098 15.94 60.8598 16.006 60.3558 16.054C59.8518 16.114 59.3658 16.144 58.8978 16.144ZM63.5398 16V2.626H66.4198V7.882H66.5818C66.7618 7.582 66.9778 7.348 67.2298 7.18C67.4938 7 67.7878 6.874 68.1118 6.802C68.4358 6.73 68.7898 6.694 69.1738 6.694C69.7858 6.694 70.2718 6.772 70.6318 6.928C71.0038 7.072 71.2858 7.294 71.4778 7.594C71.6698 7.894 71.7958 8.266 71.8558 8.71C71.9278 9.154 71.9638 9.67 71.9638 10.258V16H69.0658V11.14C69.0658 10.648 69.0538 10.264 69.0298 9.988C69.0058 9.7 68.9518 9.49 68.8678 9.358C68.7838 9.226 68.6518 9.148 68.4718 9.124C68.3038 9.088 68.0758 9.07 67.7878 9.07C67.4878 9.07 67.2418 9.106 67.0498 9.178C66.8698 9.238 66.7318 9.346 66.6358 9.502C66.5518 9.658 66.4918 9.88 66.4558 10.168C66.4318 10.444 66.4198 10.792 66.4198 11.212V16H63.5398ZM78.2066 16.144C77.3906 16.144 76.7126 16.096 76.1726 16C75.6326 15.904 75.2066 15.748 74.8946 15.532C74.5826 15.316 74.3546 15.028 74.2106 14.668C74.0666 14.308 73.9706 13.858 73.9226 13.318C73.8866 12.778 73.8686 12.136 73.8686 11.392C73.8686 10.648 73.8866 10.012 73.9226 9.484C73.9706 8.944 74.0666 8.494 74.2106 8.134C74.3546 7.774 74.5826 7.486 74.8946 7.27C75.2066 7.054 75.6326 6.904 76.1726 6.82C76.7126 6.724 77.3906 6.676 78.2066 6.676C79.0346 6.676 79.7186 6.724 80.2586 6.82C80.7986 6.904 81.2246 7.054 81.5366 7.27C81.8486 7.486 82.0766 7.774 82.2206 8.134C82.3646 8.494 82.4546 8.944 82.4906 9.484C82.5386 10.012 82.5626 10.648 82.5626 11.392C82.5626 12.136 82.5386 12.778 82.4906 13.318C82.4546 13.858 82.3646 14.308 82.2206 14.668C82.0766 15.028 81.8486 15.316 81.5366 15.532C81.2246 15.748 80.7986 15.904 80.2586 16C79.7186 16.096 79.0346 16.144 78.2066 16.144ZM78.2066 13.948C78.5666 13.948 78.8486 13.924 79.0526 13.876C79.2566 13.828 79.4006 13.72 79.4846 13.552C79.5686 13.384 79.6166 13.126 79.6286 12.778C79.6526 12.43 79.6646 11.968 79.6646 11.392C79.6646 10.816 79.6526 10.36 79.6286 10.024C79.6166 9.688 79.5686 9.436 79.4846 9.268C79.4006 9.1 79.2566 8.992 79.0526 8.944C78.8486 8.896 78.5666 8.872 78.2066 8.872C77.8466 8.872 77.5646 8.896 77.3606 8.944C77.1686 8.992 77.0306 9.1 76.9466 9.268C76.8626 9.436 76.8086 9.688 76.7846 10.024C76.7726 10.36 76.7666 10.816 76.7666 11.392C76.7666 11.968 76.7726 12.43 76.7846 12.778C76.8086 13.126 76.8626 13.384 76.9466 13.552C77.0306 13.72 77.1686 13.828 77.3606 13.876C77.5646 13.924 77.8466 13.948 78.2066 13.948ZM88.525 16.144C87.709 16.144 87.031 16.096 86.491 16C85.951 15.904 85.525 15.748 85.213 15.532C84.901 15.316 84.673 15.028 84.529 14.668C84.385 14.308 84.289 13.858 84.241 13.318C84.205 12.778 84.187 12.136 84.187 11.392C84.187 10.648 84.205 10.012 84.241 9.484C84.289 8.944 84.385 8.494 84.529 8.134C84.673 7.774 84.901 7.486 85.213 7.27C85.525 7.054 85.951 6.904 86.491 6.82C87.031 6.724 87.709 6.676 88.525 6.676C89.353 6.676 90.037 6.724 90.577 6.82C91.117 6.904 91.543 7.054 91.855 7.27C92.167 7.486 92.395 7.774 92.539 8.134C92.683 8.494 92.773 8.944 92.809 9.484C92.857 10.012 92.881 10.648 92.881 11.392C92.881 12.136 92.857 12.778 92.809 13.318C92.773 13.858 92.683 14.308 92.539 14.668C92.395 15.028 92.167 15.316 91.855 15.532C91.543 15.748 91.117 15.904 90.577 16C90.037 16.096 89.353 16.144 88.525 16.144ZM88.525 13.948C88.885 13.948 89.167 13.924 89.371 13.876C89.575 13.828 89.719 13.72 89.803 13.552C89.887 13.384 89.935 13.126 89.947 12.778C89.971 12.43 89.983 11.968 89.983 11.392C89.983 10.816 89.971 10.36 89.947 10.024C89.935 9.688 89.887 9.436 89.803 9.268C89.719 9.1 89.575 8.992 89.371 8.944C89.167 8.896 88.885 8.872 88.525 8.872C88.165 8.872 87.883 8.896 87.679 8.944C87.487 8.992 87.349 9.1 87.265 9.268C87.181 9.436 87.127 9.688 87.103 10.024C87.091 10.36 87.085 10.816 87.085 11.392C87.085 11.968 87.091 12.43 87.103 12.778C87.127 13.126 87.181 13.384 87.265 13.552C87.349 13.72 87.487 13.828 87.679 13.876C87.883 13.924 88.165 13.948 88.525 13.948ZM94.8113 16V2.626H97.7273V16H94.8113ZM105.054 16V3.616H107.826L111.462 12.616H111.552L115.188 3.616H117.96V16H115.998V6.766H115.926L112.182 16H110.742L107.034 6.766H106.962V16H105.054ZM123.385 16.144C122.761 16.144 122.233 16.06 121.801 15.892C121.381 15.724 121.063 15.448 120.847 15.064C120.631 14.668 120.523 14.134 120.523 13.462C120.523 12.754 120.607 12.196 120.775 11.788C120.943 11.368 121.231 11.068 121.639 10.888C122.047 10.708 122.623 10.618 123.367 10.618C123.487 10.618 123.661 10.624 123.889 10.636C124.129 10.636 124.399 10.642 124.699 10.654C125.011 10.654 125.317 10.66 125.617 10.672C125.929 10.672 126.211 10.678 126.463 10.69V10.258C126.463 9.79 126.433 9.424 126.373 9.16C126.313 8.896 126.187 8.704 125.995 8.584C125.815 8.452 125.551 8.368 125.203 8.332C124.855 8.296 124.405 8.278 123.853 8.278C123.589 8.278 123.277 8.29 122.917 8.314C122.569 8.326 122.227 8.344 121.891 8.368C121.555 8.392 121.297 8.422 121.117 8.458V6.946C121.609 6.85 122.149 6.784 122.737 6.748C123.325 6.7 123.913 6.676 124.501 6.676C125.185 6.676 125.755 6.718 126.211 6.802C126.679 6.886 127.057 7.018 127.345 7.198C127.633 7.378 127.849 7.612 127.993 7.9C128.137 8.188 128.239 8.536 128.299 8.944C128.359 9.34 128.389 9.796 128.389 10.312V16H126.625L126.553 14.812H126.445C126.241 15.196 125.965 15.49 125.617 15.694C125.281 15.886 124.915 16.006 124.519 16.054C124.123 16.114 123.745 16.144 123.385 16.144ZM124.231 14.596C124.531 14.596 124.801 14.578 125.041 14.542C125.293 14.494 125.509 14.422 125.689 14.326C125.881 14.218 126.031 14.074 126.139 13.894C126.247 13.69 126.325 13.456 126.373 13.192C126.433 12.928 126.463 12.616 126.463 12.256V11.932H123.835C123.439 11.932 123.133 11.962 122.917 12.022C122.713 12.082 122.575 12.208 122.503 12.4C122.431 12.592 122.395 12.886 122.395 13.282C122.395 13.654 122.437 13.936 122.521 14.128C122.605 14.308 122.779 14.434 123.043 14.506C123.319 14.566 123.715 14.596 124.231 14.596ZM131.24 16V6.82H133.004L133.058 8.044H133.202C133.346 7.744 133.538 7.498 133.778 7.306C134.018 7.102 134.33 6.946 134.714 6.838C135.098 6.73 135.566 6.676 136.118 6.676C136.766 6.676 137.288 6.754 137.684 6.91C138.08 7.054 138.38 7.276 138.584 7.576C138.788 7.876 138.926 8.248 138.998 8.692C139.082 9.136 139.124 9.658 139.124 10.258V16H137.198V11.014C137.198 10.414 137.174 9.94 137.126 9.592C137.09 9.232 137.006 8.968 136.874 8.8C136.742 8.62 136.544 8.506 136.28 8.458C136.028 8.41 135.686 8.386 135.254 8.386C134.774 8.386 134.39 8.446 134.102 8.566C133.826 8.686 133.616 8.866 133.472 9.106C133.34 9.346 133.25 9.646 133.202 10.006C133.166 10.366 133.148 10.786 133.148 11.266V16H131.24ZM144.303 16.144C143.679 16.144 143.151 16.06 142.719 15.892C142.299 15.724 141.981 15.448 141.765 15.064C141.549 14.668 141.441 14.134 141.441 13.462C141.441 12.754 141.525 12.196 141.693 11.788C141.861 11.368 142.149 11.068 142.557 10.888C142.965 10.708 143.541 10.618 144.285 10.618C144.405 10.618 144.579 10.624 144.807 10.636C145.047 10.636 145.317 10.642 145.617 10.654C145.929 10.654 146.235 10.66 146.535 10.672C146.847 10.672 147.129 10.678 147.381 10.69V10.258C147.381 9.79 147.351 9.424 147.291 9.16C147.231 8.896 147.105 8.704 146.913 8.584C146.733 8.452 146.469 8.368 146.121 8.332C145.773 8.296 145.323 8.278 144.771 8.278C144.507 8.278 144.195 8.29 143.835 8.314C143.487 8.326 143.145 8.344 142.809 8.368C142.473 8.392 142.215 8.422 142.035 8.458V6.946C142.527 6.85 143.067 6.784 143.655 6.748C144.243 6.7 144.831 6.676 145.419 6.676C146.103 6.676 146.673 6.718 147.129 6.802C147.597 6.886 147.975 7.018 148.263 7.198C148.551 7.378 148.767 7.612 148.911 7.9C149.055 8.188 149.157 8.536 149.217 8.944C149.277 9.34 149.307 9.796 149.307 10.312V16H147.543L147.471 14.812H147.363C147.159 15.196 146.883 15.49 146.535 15.694C146.199 15.886 145.833 16.006 145.437 16.054C145.041 16.114 144.663 16.144 144.303 16.144ZM145.149 14.596C145.449 14.596 145.719 14.578 145.959 14.542C146.211 14.494 146.427 14.422 146.607 14.326C146.799 14.218 146.949 14.074 147.057 13.894C147.165 13.69 147.243 13.456 147.291 13.192C147.351 12.928 147.381 12.616 147.381 12.256V11.932H144.753C144.357 11.932 144.051 11.962 143.835 12.022C143.631 12.082 143.493 12.208 143.421 12.4C143.349 12.592 143.313 12.886 143.313 13.282C143.313 13.654 143.355 13.936 143.439 14.128C143.523 14.308 143.697 14.434 143.961 14.506C144.237 14.566 144.633 14.596 145.149 14.596ZM155.578 19.708C155.194 19.708 154.804 19.696 154.408 19.672C154.012 19.66 153.64 19.636 153.292 19.6C152.944 19.576 152.65 19.552 152.41 19.528V18.016C152.662 18.04 152.95 18.058 153.274 18.07C153.598 18.082 153.922 18.088 154.246 18.088C154.57 18.1 154.87 18.106 155.146 18.106C155.794 18.106 156.304 18.064 156.676 17.98C157.06 17.908 157.342 17.77 157.522 17.566C157.714 17.374 157.834 17.092 157.882 16.72C157.942 16.348 157.972 15.868 157.972 15.28V14.83H157.864C157.696 15.154 157.474 15.406 157.198 15.586C156.934 15.766 156.622 15.892 156.262 15.964C155.902 16.036 155.506 16.072 155.074 16.072C154.45 16.072 153.928 16 153.508 15.856C153.1 15.7 152.77 15.448 152.518 15.1C152.266 14.752 152.08 14.278 151.96 13.678C151.852 13.078 151.798 12.322 151.798 11.41C151.798 10.486 151.852 9.724 151.96 9.124C152.08 8.512 152.266 8.032 152.518 7.684C152.77 7.324 153.106 7.066 153.526 6.91C153.946 6.754 154.468 6.676 155.092 6.676C155.452 6.676 155.818 6.712 156.19 6.784C156.562 6.844 156.898 6.976 157.198 7.18C157.51 7.372 157.756 7.66 157.936 8.044H158.044L158.116 6.82H159.88V14.866C159.88 15.73 159.838 16.468 159.754 17.08C159.67 17.692 159.484 18.19 159.196 18.574C158.908 18.958 158.476 19.24 157.9 19.42C157.336 19.612 156.562 19.708 155.578 19.708ZM155.848 14.398C156.34 14.398 156.73 14.338 157.018 14.218C157.306 14.086 157.516 13.894 157.648 13.642C157.792 13.39 157.882 13.084 157.918 12.724C157.954 12.352 157.972 11.908 157.972 11.392C157.972 10.9 157.954 10.468 157.918 10.096C157.882 9.724 157.798 9.412 157.666 9.16C157.522 8.884 157.3 8.686 157 8.566C156.712 8.434 156.328 8.368 155.848 8.368C155.38 8.368 155.002 8.404 154.714 8.476C154.438 8.536 154.228 8.668 154.084 8.872C153.94 9.076 153.844 9.376 153.796 9.772C153.748 10.168 153.724 10.708 153.724 11.392C153.724 12.064 153.748 12.598 153.796 12.994C153.844 13.39 153.94 13.69 154.084 13.894C154.228 14.098 154.438 14.236 154.714 14.308C155.002 14.368 155.38 14.398 155.848 14.398ZM166.629 16.144C165.849 16.144 165.201 16.096 164.685 16C164.169 15.892 163.755 15.724 163.443 15.496C163.131 15.256 162.897 14.956 162.741 14.596C162.585 14.224 162.483 13.78 162.435 13.264C162.387 12.736 162.363 12.124 162.363 11.428C162.363 10.6 162.405 9.886 162.489 9.286C162.573 8.686 162.747 8.194 163.011 7.81C163.275 7.414 163.683 7.126 164.235 6.946C164.799 6.766 165.549 6.676 166.485 6.676C167.217 6.676 167.817 6.736 168.285 6.856C168.753 6.964 169.119 7.138 169.383 7.378C169.659 7.618 169.857 7.93 169.977 8.314C170.109 8.686 170.193 9.136 170.229 9.664C170.265 10.18 170.283 10.768 170.283 11.428V12.04H164.289C164.289 12.58 164.313 13.018 164.361 13.354C164.409 13.678 164.517 13.93 164.685 14.11C164.865 14.278 165.141 14.398 165.513 14.47C165.897 14.53 166.413 14.56 167.061 14.56C167.337 14.56 167.637 14.554 167.961 14.542C168.297 14.53 168.639 14.506 168.987 14.47C169.335 14.434 169.647 14.404 169.923 14.38V15.874C169.659 15.922 169.341 15.964 168.969 16C168.597 16.048 168.207 16.084 167.799 16.108C167.391 16.132 167.001 16.144 166.629 16.144ZM168.447 11.014V10.672C168.447 10.132 168.411 9.706 168.339 9.394C168.279 9.07 168.171 8.83 168.015 8.674C167.871 8.506 167.667 8.398 167.403 8.35C167.151 8.29 166.833 8.26 166.449 8.26C165.969 8.26 165.585 8.296 165.297 8.368C165.021 8.428 164.811 8.548 164.667 8.728C164.523 8.908 164.421 9.16 164.361 9.484C164.313 9.796 164.289 10.21 164.289 10.726H168.771L168.447 11.014ZM172.76 16V6.82H174.524L174.578 8.044H174.704C174.836 7.756 175.016 7.51 175.244 7.306C175.484 7.102 175.778 6.946 176.126 6.838C176.486 6.73 176.918 6.676 177.422 6.676C178.19 6.676 178.766 6.79 179.15 7.018C179.534 7.234 179.804 7.576 179.96 8.044H180.104C180.236 7.756 180.422 7.51 180.662 7.306C180.914 7.102 181.22 6.946 181.58 6.838C181.952 6.73 182.39 6.676 182.894 6.676C183.686 6.676 184.28 6.808 184.676 7.072C185.072 7.336 185.336 7.738 185.468 8.278C185.6 8.806 185.666 9.466 185.666 10.258V16H183.758V11.014C183.758 10.414 183.74 9.94 183.704 9.592C183.668 9.232 183.59 8.968 183.47 8.8C183.362 8.62 183.188 8.506 182.948 8.458C182.72 8.41 182.42 8.386 182.048 8.386C181.616 8.386 181.274 8.446 181.022 8.566C180.77 8.674 180.584 8.848 180.464 9.088C180.344 9.316 180.266 9.61 180.23 9.97C180.194 10.33 180.176 10.762 180.176 11.266V16H178.268V11.014C178.268 10.414 178.244 9.94 178.196 9.592C178.16 9.232 178.082 8.968 177.962 8.8C177.854 8.62 177.686 8.506 177.458 8.458C177.23 8.41 176.924 8.386 176.54 8.386C176.12 8.386 175.784 8.446 175.532 8.566C175.28 8.686 175.088 8.866 174.956 9.106C174.836 9.334 174.758 9.634 174.722 10.006C174.686 10.366 174.668 10.786 174.668 11.266V16H172.76ZM192.433 16.144C191.653 16.144 191.005 16.096 190.489 16C189.973 15.892 189.559 15.724 189.247 15.496C188.935 15.256 188.701 14.956 188.545 14.596C188.389 14.224 188.287 13.78 188.239 13.264C188.191 12.736 188.167 12.124 188.167 11.428C188.167 10.6 188.209 9.886 188.293 9.286C188.377 8.686 188.551 8.194 188.815 7.81C189.079 7.414 189.487 7.126 190.039 6.946C190.603 6.766 191.353 6.676 192.289 6.676C193.021 6.676 193.621 6.736 194.089 6.856C194.557 6.964 194.923 7.138 195.187 7.378C195.463 7.618 195.661 7.93 195.781 8.314C195.913 8.686 195.997 9.136 196.033 9.664C196.069 10.18 196.087 10.768 196.087 11.428V12.04H190.093C190.093 12.58 190.117 13.018 190.165 13.354C190.213 13.678 190.321 13.93 190.489 14.11C190.669 14.278 190.945 14.398 191.317 14.47C191.701 14.53 192.217 14.56 192.865 14.56C193.141 14.56 193.441 14.554 193.765 14.542C194.101 14.53 194.443 14.506 194.791 14.47C195.139 14.434 195.451 14.404 195.727 14.38V15.874C195.463 15.922 195.145 15.964 194.773 16C194.401 16.048 194.011 16.084 193.603 16.108C193.195 16.132 192.805 16.144 192.433 16.144ZM194.251 11.014V10.672C194.251 10.132 194.215 9.706 194.143 9.394C194.083 9.07 193.975 8.83 193.819 8.674C193.675 8.506 193.471 8.398 193.207 8.35C192.955 8.29 192.637 8.26 192.253 8.26C191.773 8.26 191.389 8.296 191.101 8.368C190.825 8.428 190.615 8.548 190.471 8.728C190.327 8.908 190.225 9.16 190.165 9.484C190.117 9.796 190.093 10.21 190.093 10.726H194.575L194.251 11.014ZM198.565 16V6.82H200.329L200.383 8.044H200.527C200.671 7.744 200.863 7.498 201.103 7.306C201.343 7.102 201.655 6.946 202.039 6.838C202.423 6.73 202.891 6.676 203.443 6.676C204.091 6.676 204.613 6.754 205.009 6.91C205.405 7.054 205.705 7.276 205.909 7.576C206.113 7.876 206.251 8.248 206.323 8.692C206.407 9.136 206.449 9.658 206.449 10.258V16H204.523V11.014C204.523 10.414 204.499 9.94 204.451 9.592C204.415 9.232 204.331 8.968 204.199 8.8C204.067 8.62 203.869 8.506 203.605 8.458C203.353 8.41 203.011 8.386 202.579 8.386C202.099 8.386 201.715 8.446 201.427 8.566C201.151 8.686 200.941 8.866 200.797 9.106C200.665 9.346 200.575 9.646 200.527 10.006C200.491 10.366 200.473 10.786 200.473 11.266V16H198.565ZM210.115 16V8.422H208.279V6.82H210.115V4.156H212.023V6.82H214.165V8.422H212.023V16H210.115Z" fill="#F78F1E"/>
<path d="M46.888 30.096C46.584 30.096 46.248 30.088 45.88 30.072C45.52 30.056 45.168 30.032 44.824 30C44.48 29.976 44.164 29.948 43.876 29.916V28.56C44.172 28.584 44.472 28.608 44.776 28.632C45.088 28.656 45.384 28.676 45.664 28.692C45.944 28.7 46.184 28.704 46.384 28.704C46.792 28.704 47.108 28.688 47.332 28.656C47.556 28.616 47.724 28.56 47.836 28.488C47.924 28.424 47.984 28.356 48.016 28.284C48.048 28.204 48.068 28.112 48.076 28.008C48.084 27.896 48.088 27.772 48.088 27.636C48.088 27.452 48.076 27.3 48.052 27.18C48.036 27.06 48.004 26.968 47.956 26.904C47.908 26.832 47.828 26.78 47.716 26.748C47.612 26.716 47.476 26.692 47.308 26.676L45.46 26.448C45.092 26.4 44.788 26.316 44.548 26.196C44.316 26.076 44.132 25.916 43.996 25.716C43.86 25.516 43.764 25.28 43.708 25.008C43.66 24.736 43.636 24.428 43.636 24.084C43.636 23.54 43.712 23.108 43.864 22.788C44.016 22.468 44.228 22.224 44.5 22.056C44.78 21.888 45.108 21.78 45.484 21.732C45.86 21.676 46.268 21.648 46.708 21.648C47.028 21.648 47.356 21.66 47.692 21.684C48.028 21.7 48.344 21.724 48.64 21.756C48.936 21.788 49.184 21.828 49.384 21.876V23.196C49.184 23.164 48.952 23.136 48.688 23.112C48.424 23.088 48.148 23.072 47.86 23.064C47.572 23.048 47.3 23.04 47.044 23.04C46.668 23.04 46.368 23.056 46.144 23.088C45.928 23.112 45.76 23.156 45.64 23.22C45.504 23.3 45.42 23.404 45.388 23.532C45.364 23.66 45.352 23.82 45.352 24.012C45.352 24.252 45.368 24.436 45.4 24.564C45.432 24.684 45.508 24.768 45.628 24.816C45.748 24.864 45.936 24.904 46.192 24.936L48.04 25.152C48.264 25.176 48.472 25.216 48.664 25.272C48.856 25.328 49.028 25.416 49.18 25.536C49.332 25.656 49.456 25.824 49.552 26.04C49.608 26.152 49.652 26.284 49.684 26.436C49.716 26.58 49.74 26.744 49.756 26.928C49.78 27.112 49.792 27.316 49.792 27.54C49.792 28.004 49.744 28.392 49.648 28.704C49.56 29.016 49.432 29.264 49.264 29.448C49.096 29.632 48.888 29.772 48.64 29.868C48.4 29.964 48.132 30.024 47.836 30.048C47.54 30.08 47.224 30.096 46.888 30.096ZM53.3214 30V27.072L50.4894 21.744H52.2774L54.1734 25.416H54.2574L56.1414 21.744H57.8694L55.0254 27.072V30H53.3214ZM61.6419 30.096C61.3379 30.096 61.0019 30.088 60.6339 30.072C60.2739 30.056 59.9219 30.032 59.5779 30C59.2339 29.976 58.9179 29.948 58.6299 29.916V28.56C58.9259 28.584 59.2259 28.608 59.5299 28.632C59.8419 28.656 60.1379 28.676 60.4179 28.692C60.6979 28.7 60.9379 28.704 61.1379 28.704C61.5459 28.704 61.8619 28.688 62.0859 28.656C62.3099 28.616 62.4779 28.56 62.5899 28.488C62.6779 28.424 62.7379 28.356 62.7699 28.284C62.8019 28.204 62.8219 28.112 62.8299 28.008C62.8379 27.896 62.8419 27.772 62.8419 27.636C62.8419 27.452 62.8299 27.3 62.8059 27.18C62.7899 27.06 62.7579 26.968 62.7099 26.904C62.6619 26.832 62.5819 26.78 62.4699 26.748C62.3659 26.716 62.2299 26.692 62.0619 26.676L60.2139 26.448C59.8459 26.4 59.5419 26.316 59.3019 26.196C59.0699 26.076 58.8859 25.916 58.7499 25.716C58.6139 25.516 58.5179 25.28 58.4619 25.008C58.4139 24.736 58.3899 24.428 58.3899 24.084C58.3899 23.54 58.4659 23.108 58.6179 22.788C58.7699 22.468 58.9819 22.224 59.2539 22.056C59.5339 21.888 59.8619 21.78 60.2379 21.732C60.6139 21.676 61.0219 21.648 61.4619 21.648C61.7819 21.648 62.1099 21.66 62.4459 21.684C62.7819 21.7 63.0979 21.724 63.3939 21.756C63.6899 21.788 63.9379 21.828 64.1379 21.876V23.196C63.9379 23.164 63.7059 23.136 63.4419 23.112C63.1779 23.088 62.9019 23.072 62.6139 23.064C62.3259 23.048 62.0539 23.04 61.7979 23.04C61.4219 23.04 61.1219 23.056 60.8979 23.088C60.6819 23.112 60.5139 23.156 60.3939 23.22C60.2579 23.3 60.1739 23.404 60.1419 23.532C60.1179 23.66 60.1059 23.82 60.1059 24.012C60.1059 24.252 60.1219 24.436 60.1539 24.564C60.1859 24.684 60.2619 24.768 60.3819 24.816C60.5019 24.864 60.6899 24.904 60.9459 24.936L62.7939 25.152C63.0179 25.176 63.2259 25.216 63.4179 25.272C63.6099 25.328 63.7819 25.416 63.9339 25.536C64.0859 25.656 64.2099 25.824 64.3059 26.04C64.3619 26.152 64.4059 26.284 64.4379 26.436C64.4699 26.58 64.4939 26.744 64.5099 26.928C64.5339 27.112 64.5459 27.316 64.5459 27.54C64.5459 28.004 64.4979 28.392 64.4019 28.704C64.3139 29.016 64.1859 29.264 64.0179 29.448C63.8499 29.632 63.6419 29.772 63.3939 29.868C63.1539 29.964 62.8859 30.024 62.5899 30.048C62.2939 30.08 61.9779 30.096 61.6419 30.096ZM67.8353 30V23.184H65.4473V21.744H71.9273V23.184H69.5393V30H67.8353ZM73.1637 30V21.744H78.8037V23.136H74.8677V25.14H78.2397V26.532H74.8677V28.608H78.8037V30H73.1637ZM80.4528 30V21.744H82.7928L84.8328 27.192H84.9048L86.9328 21.744H89.2608V30H87.6168V24.252H87.5568L85.4208 30H84.2448L82.1088 24.252H82.0488V30H80.4528Z" fill="#F78F1E"/>
</svg>
