<svg width="17" height="17" viewBox="0 0 17 17" fill="none" xmlns="http://www.w3.org/2000/svg">
<g clip-path="url(#clip0_1090_206)">
<path d="M16.3928 4.25001H13.3571V0.607154C13.3571 0.271827 13.0853 0 12.75 0H0.607154C0.271827 0 0 0.271827 0 0.607154V14.5714C0 15.9127 1.08731 17 2.42858 17H14.5714C15.9127 17 17 15.9127 17 14.5714V4.85713C17 4.52184 16.7282 4.25001 16.3928 4.25001ZM2.42858 15.7857C1.75796 15.7857 1.21431 15.242 1.21431 14.5714V1.21427H12.1429V14.5714C12.1443 14.7178 12.1592 14.8637 12.1872 15.0074C12.1933 15.042 12.1999 15.076 12.2078 15.11C12.2378 15.2475 12.2797 15.3822 12.3329 15.5125C12.3329 15.5186 12.339 15.524 12.3414 15.5295C12.3788 15.6174 12.4214 15.7029 12.4689 15.7857H2.42858ZM15.7857 14.5714C15.7857 15.242 15.242 15.7857 14.5714 15.7857C13.9008 15.7857 13.3571 15.242 13.3571 14.5714V5.46428H15.7857V14.5714H15.7857Z" fill="white" stroke="white" stroke-width="0.3"/>
<path d="M6.49999 3.03613H3.50001C3.22386 3.03613 3 3.30796 3 3.64329C3 3.97861 3.22386 4.25044 3.50001 4.25044H6.49999C6.77614 4.25044 7 3.97861 7 3.64329C7 3.30796 6.77614 3.03613 6.49999 3.03613Z" fill="white" stroke="white" stroke-width="0.3"/>
<path d="M9.49999 6.07141H3.50001C3.22386 6.07141 3 6.34324 3 6.67856C3 7.01389 3.22386 7.28572 3.50001 7.28572H9.49999C9.77614 7.28572 10 7.01389 10 6.67856C10 6.34324 9.77614 6.07141 9.49999 6.07141Z" fill="white" stroke="white" stroke-width="0.3"/>
<path d="M9.49999 9.5H3.50001C3.22386 9.5 3 9.77183 3 10.1072C3 10.4425 3.22386 10.7143 3.50001 10.7143H9.49999C9.77614 10.7143 10 10.4425 10 10.1072C10 9.77183 9.77614 9.5 9.49999 9.5Z" fill="white" stroke="white" stroke-width="0.3"/>
<path d="M9.49999 12.9286H3.50001C3.22386 12.9286 3 13.2004 3 13.5357C3 13.8711 3.22386 14.1429 3.50001 14.1429H9.49999C9.77614 14.1429 10 13.8711 10 13.5357C10 13.2004 9.77614 12.9286 9.49999 12.9286Z" fill="white" stroke="white" stroke-width="0.3"/>
</g>
<defs>
<clipPath id="clip0_1090_206">
<rect width="17" height="17" fill="white"/>
</clipPath>
</defs>
</svg>
