<svg width="30" height="30" viewBox="0 0 30 30" fill="none" xmlns="http://www.w3.org/2000/svg">
<path d="M0 28.3906C0 25.6173 0 22.8508 0 20.0775C0.184886 19.5913 0.547811 19.427 1.04769 19.4338C2.34189 19.4475 3.6361 19.4407 4.9303 19.4407C5.03302 19.4407 5.14258 19.4407 5.25214 19.4407C5.25214 16.9345 5.25214 14.4693 5.25214 11.9699C5.03302 12.0658 4.83443 12.1617 4.63585 12.237C4.10858 12.4356 3.56762 12.1 3.51969 11.5454C3.48545 11.1824 3.69088 10.8743 4.10858 10.6826C5.96429 9.8403 7.82 8.99804 9.66887 8.15578C10.833 7.62852 12.0039 7.0944 13.1749 6.56028C13.1749 6.45072 13.1749 6.35485 13.1749 6.25214C13.1749 4.86892 13.1886 3.48569 13.168 2.10247C13.1612 1.59574 13.305 1.21912 13.7775 1C15.0922 1 16.4001 1 17.7148 1C18.1873 1.19858 18.3791 1.56151 18.3311 2.06138C18.3106 2.23942 18.3311 2.42431 18.3311 2.6092C18.3243 3.19809 18.0093 3.51308 17.4135 3.51308C16.6466 3.51308 15.8865 3.51308 15.1196 3.51308C15.0237 3.51308 14.9279 3.51308 14.8251 3.51308C14.8251 4.45806 14.832 5.36195 14.8183 6.26584C14.8183 6.48496 14.8799 6.59452 15.0854 6.69039C18.023 8.01198 20.9469 9.34727 23.8777 10.6826C24.3981 10.9222 24.6036 11.3605 24.4118 11.7987C24.2406 12.1959 23.7476 12.4766 23.193 12.1753C23.056 12.1 22.9054 12.0521 22.7479 11.9836C22.7479 14.4899 22.7479 16.955 22.7479 19.4475C22.8711 19.4475 22.9807 19.4475 23.0834 19.4475C24.3844 19.4475 25.6855 19.4475 26.9934 19.4475C27.6919 19.4475 28 19.7488 28 20.4405C28 22.933 28 25.4324 28 27.9249C28 28.7124 27.7261 28.9932 26.9318 28.9932C18.3243 28.9932 9.7168 28.9932 1.10932 29C0.595745 29 0.219124 28.863 0 28.3906ZM21.0702 27.3429C21.077 27.2402 21.0839 27.1511 21.0839 27.0621C21.0839 21.8716 21.0839 16.6742 21.0907 11.4837C21.0907 11.2783 21.0223 11.1824 20.8374 11.1003C18.6256 10.1005 16.4138 9.09391 14.202 8.09415C14.0924 8.04622 13.9144 8.03937 13.8048 8.08731C11.5931 9.08706 9.38127 10.0937 7.16948 11.0934C6.9709 11.1824 6.90927 11.2852 6.90927 11.4974C6.91612 16.6811 6.91612 21.8648 6.91612 27.0484C6.91612 27.1443 6.91612 27.2402 6.91612 27.3292C8.14869 27.3292 9.34018 27.3292 10.5522 27.3292C10.5522 27.2128 10.5522 27.1169 10.5522 27.021C10.5522 25.6994 10.5522 24.3778 10.5522 23.0562C10.5522 22.3852 10.8467 22.0839 11.5109 22.0839C13.168 22.0839 14.8251 22.0839 16.4891 22.0839C17.1602 22.0839 17.4546 22.3852 17.4546 23.0494C17.4546 24.3778 17.4546 25.7131 17.4546 27.0416C17.4546 27.1374 17.4546 27.2333 17.4546 27.336C18.6735 27.3429 19.865 27.3429 21.0702 27.3429ZM5.24529 27.3429C5.24529 25.2475 5.24529 23.1795 5.24529 21.1047C4.03326 21.1047 2.84862 21.1047 1.65713 21.1047C1.65713 23.1932 1.65713 25.268 1.65713 27.3429C2.86231 27.3429 4.04011 27.3429 5.24529 27.3429ZM22.7479 21.0978C22.7479 23.2 22.7479 25.268 22.7479 27.336C23.9599 27.336 25.1445 27.336 26.336 27.336C26.336 25.2475 26.336 23.1795 26.336 21.0978C25.1308 21.0978 23.953 21.0978 22.7479 21.0978ZM12.2025 27.336C13.4145 27.336 14.5992 27.336 15.7907 27.336C15.7907 26.1308 15.7907 24.9462 15.7907 23.741C14.5855 23.741 13.4008 23.741 12.2025 23.741C12.2025 24.9462 12.2025 26.1308 12.2025 27.336Z" fill="#F78F1E"/>
<path d="M14.0034 18.5094C12.0929 18.5163 10.5454 16.9756 10.5454 15.0651C10.5454 13.1683 12.0793 11.6207 13.9692 11.607C15.8797 11.5933 17.4341 13.134 17.441 15.0445C17.4546 16.955 15.9208 18.5026 14.0034 18.5094ZM15.8044 15.0651C15.8112 14.0722 15.0032 13.2573 14.0103 13.2436C13.0174 13.2368 12.1957 14.0379 12.1888 15.0308C12.1751 16.0374 12.99 16.8592 13.9966 16.8592C14.9895 16.866 15.7975 16.0648 15.8044 15.0651Z" fill="#F78F1E"/>
</svg>
