<svg width="30" height="26" viewBox="0 0 30 26" fill="none" xmlns="http://www.w3.org/2000/svg">
<path d="M15.3081 25C13.6029 25 11.949 24.6449 10.3934 23.9498C8.94895 23.2996 7.93183 22.4545 7.20531 21.2942C6.72239 20.5291 6.49161 19.6989 6.49589 18.7587C6.50016 17.7435 6.50016 16.7083 6.50016 15.7081C6.50016 14.6578 6.50016 13.5726 6.50444 12.5074C6.50444 12.1473 6.3805 11.9223 6.10272 11.7872C5.43176 11.4522 4.74797 11.1071 4.08556 10.772C3.28639 10.367 2.45731 9.94686 1.63677 9.54178C1.30343 9.37675 1.10684 9.18671 1 8.91165V8.50156C1.10684 8.23151 1.29488 8.04647 1.63677 7.87143C5.89331 5.72098 10.3849 3.45051 14.979 1.11502C15.1286 1.04001 15.2654 1 15.4021 1C15.5346 1 15.6714 1.03501 15.8167 1.11002C20.804 3.64055 25.1759 5.85601 29.1889 7.88143C29.5094 8.04147 29.6932 8.23151 29.8 8.49656V8.90665C29.6932 9.18671 29.4923 9.38175 29.1419 9.54678C28.6846 9.76683 28.2273 10.0019 27.7828 10.2269C27.5905 10.3219 27.4025 10.422 27.2102 10.522L27.0563 10.602V13.0675C27.0563 16.3032 27.0563 19.6489 27.0563 22.9396C27.0563 23.0946 27.0521 23.2496 27.0179 23.3847C26.9409 23.6997 26.6845 23.9248 26.3982 23.9248C26.3725 23.9248 26.3512 23.9248 26.3255 23.9198C26.0178 23.8798 25.77 23.5797 25.74 23.2196C25.7358 23.1446 25.7358 23.0596 25.7358 22.9746C25.7358 22.9446 25.7358 22.9096 25.7358 22.8796C25.7358 19.8289 25.7358 11.2821 25.7358 11.2821L25.3811 11.4622C25.2999 11.5022 25.2229 11.5422 25.146 11.5772C24.9366 11.6772 24.7443 11.7722 24.552 11.8923C24.3212 12.0373 24.3169 12.4424 24.3169 12.4874C24.3169 13.0125 24.3084 13.5476 24.3041 14.0677C24.2913 15.438 24.2785 16.8583 24.3255 18.2536C24.3896 20.139 23.74 21.5843 22.2827 22.7945C21.1544 23.7347 19.8168 24.3549 18.1971 24.6949C17.2099 24.895 16.2398 25 15.3081 25ZM7.81217 13.5276C7.81217 14.0177 7.81217 14.5078 7.81217 14.9979C7.81217 16.1932 7.81644 17.4284 7.80362 18.6437C7.79507 19.3988 8.00448 20.054 8.43612 20.6441C8.97032 21.3792 9.65838 21.9344 10.5387 22.3545C12.1114 23.0996 13.7311 23.4747 15.3594 23.4797C16.7868 23.4797 18.2569 23.1896 19.7185 22.6095C20.851 22.1644 21.7186 21.5193 22.3596 20.6391C22.6203 20.284 22.9665 19.7289 22.9707 19.0088C22.9836 17.6035 22.9793 16.2332 22.9793 14.7779C22.9793 14.2328 22.9793 13.6876 22.9793 13.1375V12.6974L22.6288 12.8625C22.5861 12.8825 22.5476 12.9025 22.5092 12.9175C22.4323 12.9525 22.3682 12.9825 22.2998 13.0175C21.7998 13.2676 21.2997 13.5226 20.804 13.7727C19.18 14.5928 17.5005 15.443 15.8509 16.2832C15.6885 16.3682 15.5389 16.4082 15.3979 16.4082C15.2568 16.4082 15.1158 16.3682 14.962 16.2932C13.3038 15.443 11.6114 14.5878 9.9789 13.7627C9.48316 13.5126 8.98314 13.2576 8.4874 13.0075C8.41902 12.9725 8.35064 12.9425 8.27799 12.9125C8.2438 12.8975 8.20534 12.8825 8.1626 12.8625L7.81217 12.7024V13.5276ZM15.4064 2.69035C15.2825 2.69035 15.1628 2.71536 15.0602 2.76537C13.4405 3.57554 11.7995 4.40571 10.2139 5.21088C9.69684 5.47093 9.17973 5.73599 8.66262 5.99604C7.57712 6.54616 6.48734 7.09627 5.3762 7.65639L3.35904 8.6766L3.86761 8.96166C3.91462 8.98666 3.95735 9.01167 3.99154 9.03167C4.05565 9.06668 4.10693 9.09669 4.16249 9.12669L5.41039 9.75682C8.57715 11.3622 11.8507 13.0175 15.0731 14.6378C15.1671 14.6829 15.2782 14.7079 15.3979 14.7079C15.5218 14.7079 15.65 14.6778 15.7526 14.6278C17.133 13.9427 18.5262 13.2375 19.8766 12.5524L20.7655 12.1023C21.1886 11.8873 21.6117 11.6722 22.0519 11.4472L23.3383 10.792L22.6374 10.567C22.5989 10.557 22.5647 10.542 22.5391 10.532C22.4793 10.512 22.4237 10.492 22.3639 10.482L21.6374 10.377C19.6074 10.0769 17.509 9.77183 15.4406 9.47176C14.9833 9.40675 14.7055 9.05668 14.7483 8.60659C14.7867 8.1965 15.0688 7.93144 15.4662 7.93144C15.5132 7.93144 15.5603 7.93645 15.6115 7.94145C16.1714 8.03147 16.7398 8.11148 17.2911 8.1915L17.6843 8.25151C18.3851 8.35653 19.0903 8.45655 19.7912 8.56158C21.4621 8.80663 23.1887 9.05668 24.8896 9.31173L24.9708 9.32173C25.2101 9.35674 25.458 9.39675 25.7059 9.39675C26.2059 9.39675 26.5948 9.23672 26.9367 8.90165L27.223 8.61659L26.8897 8.40654C26.8726 8.39654 26.8597 8.38654 26.8426 8.37654C26.8042 8.35153 26.7572 8.32153 26.7059 8.29152L25.6503 7.75641C22.3981 6.12607 19.0433 4.42571 15.7398 2.76537C15.6415 2.71536 15.5261 2.69035 15.4064 2.69035Z" fill="#1D8BFA" stroke="#1D8BFA" stroke-width="0.3"/>
</svg>
