<svg width="16" height="16" viewBox="0 0 16 16" fill="none" xmlns="http://www.w3.org/2000/svg">
<g clip-path="url(#clip0_1090_616)">
<path d="M0 6.8625C0 6.57083 0 6.27917 0 5.9875C0.0416667 5.72083 0.075 5.45417 0.120833 5.19167C0.570833 2.72917 2.59167 0.6625 5.05 0.154167C5.375 0.0875 5.70417 0.05 6.03333 0C6.31667 0 6.59583 0 6.875 0C6.91667 0.00833333 6.95417 0.0208333 6.99583 0.0291667C7.35 0.0916667 7.70833 0.125 8.05417 0.2125C12.0542 1.23333 14.0625 5.75833 12.1333 9.40417C11.9583 9.7375 11.7417 10.05 11.525 10.4042C11.5583 10.4292 11.6125 10.4625 11.6583 10.5042C12.9583 11.8 14.2583 13.1 15.5583 14.3958C15.7375 14.575 15.9125 14.7542 16 15.0042C16 15.1083 16 15.2125 16 15.3167C15.9292 15.5083 15.8458 15.6875 15.675 15.8167C15.3375 16.0625 14.9167 16.0167 14.5875 15.6917C13.2292 14.3375 11.8708 12.9792 10.5125 11.625C10.475 11.5875 10.45 11.5292 10.4208 11.4792C10.3542 11.5292 10.3292 11.5458 10.3042 11.5667C8.77917 12.675 7.0875 13.0708 5.225 12.7375C2.7375 12.2917 0.670833 10.2875 0.154167 7.82083C0.0916667 7.5 0.05 7.17917 0 6.8625ZM1.59583 6.40833C1.58333 9.0625 3.75 11.2375 6.42083 11.2542C9.07917 11.2708 11.2625 9.10417 11.275 6.44167C11.2917 3.78333 9.125 1.60833 6.45417 1.59583C3.79167 1.58333 1.60417 3.75417 1.59583 6.40833Z" fill="#212121"/>
<path d="M0 6.86255C0.05 7.17922 0.0916667 7.50005 0.154167 7.81255C0.666667 10.2792 2.7375 12.2834 5.225 12.7292C7.0875 13.0625 8.775 12.6667 10.3042 11.5584C10.3292 11.5417 10.3542 11.5209 10.4208 11.4709C10.45 11.5209 10.475 11.575 10.5125 11.6167C11.8708 12.975 13.2292 14.3292 14.5875 15.6834C14.9167 16.0084 15.3375 16.0542 15.675 15.8084C15.85 15.6834 15.9333 15.5042 16 15.3084C16 15.5375 16 15.7667 16 15.9959C10.6667 15.9959 5.33333 15.9959 0 15.9959C0 12.9542 0 9.90838 0 6.86255Z" fill="white"/>
<path d="M16 15C15.9167 14.7542 15.7417 14.5708 15.5583 14.3917C14.2542 13.0958 12.9583 11.8 11.6583 10.5C11.6125 10.4583 11.5583 10.425 11.525 10.4C11.7417 10.0458 11.9583 9.73335 12.1333 9.40002C14.0625 5.75418 12.0542 1.23335 8.05417 0.20835C7.70833 0.12085 7.35 0.0833496 6.99583 0.0250163C6.95417 0.0166829 6.91667 0.00834961 6.875 -0.00415039C9.91667 -0.00415039 12.9583 -0.00415039 16 -0.00415039C16 5.00002 16 10 16 15Z" fill="white"/>
<path d="M6.03333 0C5.70417 0.05 5.375 0.0875 5.05 0.154167C2.59167 0.6625 0.570833 2.72917 0.120833 5.19167C0.075 5.45833 0.0416667 5.725 0 5.9875C0 3.99583 0 2 0 0C2.00833 0 4.02083 0 6.03333 0Z" fill="white"/>
<path d="M1.59582 6.40826C1.60415 3.75409 3.79165 1.58326 6.45415 1.59576C9.12498 1.60826 11.2917 3.78326 11.2792 6.44159C11.2667 9.10826 9.08332 11.2749 6.42498 11.2541C3.74998 11.2374 1.58332 9.06242 1.59582 6.40826Z" fill="white"/>
</g>
<defs>
<clipPath id="clip0_1090_616">
<rect width="16" height="16" fill="white"/>
</clipPath>
</defs>
</svg>
