<svg width="10" height="6" viewBox="0 0 10 6" fill="none" xmlns="http://www.w3.org/2000/svg">
<path d="M0 0.672188C0 0.604857 0.0107727 0.532139 0.0350122 0.459422C0.113116 0.208951 0.280097 0.0635156 0.541341 0.012344C0.743334 -0.0253613 0.921088 0.023117 1.08268 0.160472C1.10961 0.184711 1.13924 0.211644 1.16887 0.241269L4.80474 3.87714C4.82359 3.896 4.84245 3.91216 4.8613 3.9337L4.89092 3.96063L5.00135 4.06836L5.11177 3.96333C5.12254 3.95255 5.13332 3.94447 5.1414 3.9337C5.16294 3.91216 5.18449 3.8933 5.20334 3.87445L6.51495 2.56284C7.29329 1.7818 8.07433 1.00346 8.85268 0.22511C9.08161 -0.00381542 9.3644 -0.0603735 9.62564 0.0662088C9.81147 0.155086 9.92728 0.297827 9.98384 0.505207C9.98923 0.52406 9.99461 0.540219 10 0.556379V0.752985C9.9596 0.938819 9.84379 1.08425 9.66873 1.25662C8.14705 2.77291 6.64692 4.27844 5.50498 5.42037C5.28144 5.64391 5.05521 5.70585 4.79127 5.61428C4.69701 5.58196 4.60005 5.52002 4.52464 5.44461C3.02451 3.94986 1.51091 2.43357 0.207379 1.12735C0.0700245 0.98999 0 0.836475 0 0.672188Z" fill="#212121"/>
</svg>
