<svg width="18" height="18" viewBox="0 0 18 18" fill="none" xmlns="http://www.w3.org/2000/svg">
<path d="M1 7.6556C1.02088 7.59297 1.03758 7.53033 1.05846 7.46353C1.20042 6.95831 1.50939 6.59923 1.98956 6.39881C6.25261 4.64098 10.5157 2.88315 14.7787 1.12533C15.3967 0.870628 16.0772 1.00424 16.5407 1.47188C17 1.93117 17.1294 2.6034 16.8747 3.21718C15.1169 7.48858 13.3591 11.7558 11.6013 16.0272C11.3967 16.5241 11.0251 16.8289 10.5073 16.9667C10.4739 16.975 10.4405 16.9917 10.4071 17.0001C10.2317 17.0001 10.0522 17.0001 9.87683 17.0001C9.80167 16.9792 9.72651 16.9583 9.65553 16.9374C9.21294 16.7955 8.86639 16.5324 8.68267 16.0982C8.24844 15.0752 7.82672 14.0439 7.40501 13.0168C7.2547 12.6493 7.44259 12.2986 7.81837 12.2401C8.06472 12.2026 8.29436 12.3404 8.40292 12.6076C8.69937 13.3174 8.99165 14.0314 9.2881 14.7412C9.40919 15.0293 9.5261 15.3174 9.64718 15.6055C9.73904 15.8226 9.91023 15.9437 10.1273 15.9395C10.3612 15.9353 10.5365 15.8268 10.6242 15.6055C12.3779 11.3383 14.1315 7.07522 15.8852 2.808C15.9729 2.59088 15.952 2.39881 15.785 2.2318C15.6013 2.04808 15.3883 2.0272 15.1545 2.12741C13.6347 2.75372 12.1148 3.38002 10.5992 4.00633C7.87265 5.12532 5.14614 6.2485 2.41962 7.37167C2.19415 7.46353 2.06054 7.6556 2.06472 7.88942C2.06472 8.11071 2.1858 8.26937 2.4238 8.36958C3.91023 8.97919 5.39666 9.58879 6.87891 10.2067C6.97912 10.2485 7.0334 10.236 7.10438 10.1608C7.8643 9.39672 8.62422 8.63263 9.38831 7.86854C9.69729 7.55956 10.1816 7.66812 10.2985 8.07731C10.357 8.27355 10.3111 8.45309 10.1691 8.59505C9.2881 9.48023 8.40292 10.3654 7.51775 11.2464C7.33821 11.426 7.11274 11.4594 6.88309 11.3675C5.22129 10.6827 3.55532 9.99798 1.8977 9.29651C1.41754 9.09192 1.15031 8.69109 1.0334 8.19422C1.02505 8.16082 1.01253 8.12741 1 8.09401C1 7.94787 1 7.80173 1 7.6556Z" fill="#F78F1E" stroke="#F78F1E" stroke-width="0.2"/>
</svg>
