<svg width="21" height="21" viewBox="0 0 21 21" fill="none" xmlns="http://www.w3.org/2000/svg">
<path d="M11.0744 19.7246C10.7706 20.0284 10.3202 20.1932 9.83698 20.1712C9.35006 20.1529 8.90341 19.9479 8.61419 19.6074C8.25174 19.1791 8.00645 18.6922 7.75018 18.1723C7.70625 18.0844 7.66598 18.0002 7.62204 17.9123C7.20468 17.085 6.75437 16.1807 6.24915 15.1556C6.14664 14.9506 5.99653 14.8005 5.78419 14.6906C5.55355 14.5771 5.3229 14.4563 5.09225 14.3428C4.07082 13.8266 3.01643 13.2994 1.98768 12.7539C1.64354 12.5709 1.33601 12.3366 1.09438 12.073C0.603799 11.5458 0.548883 10.4511 1.20787 9.79213C1.33601 9.66399 1.48611 9.55782 1.65452 9.46995C2.2769 9.1551 2.94321 8.89151 3.57292 8.6572C6.53471 7.52593 9.65759 6.34341 13.1283 5.04008C13.4541 4.91926 13.8056 4.81675 14.1753 4.74719C14.7318 4.63736 15.2224 4.79845 15.669 5.23045C16.1303 5.70639 16.2951 6.23724 16.1523 6.81203C16.0278 7.30261 15.8631 7.82614 15.6434 8.41191C14.6073 11.1614 13.2381 14.7785 11.8542 18.3736C11.6748 18.8386 11.4588 19.245 11.2062 19.5781C11.1623 19.6294 11.1184 19.6806 11.0744 19.7246ZM7.53418 14.244C7.36943 14.4087 7.34014 14.5844 7.44997 14.7968C7.6074 15.108 7.76849 15.4302 7.92225 15.7377C8.10164 16.1001 8.28836 16.4772 8.47873 16.8433C8.83019 17.5243 9.1487 18.121 9.45257 18.6592C9.54044 18.813 9.67956 18.9155 9.84064 18.9374C9.99075 18.9557 10.1445 18.9045 10.258 18.791C10.3019 18.7471 10.3422 18.6922 10.3715 18.6336C10.5545 18.2748 10.6973 17.9563 10.8108 17.6597C12.1325 14.1854 13.3003 11.1138 14.3767 8.27279C14.5597 7.78221 14.7428 7.24769 14.9222 6.64362C14.9808 6.44592 14.9442 6.26287 14.8233 6.12741C14.6952 5.99195 14.4975 5.9407 14.2888 5.98829C14.0509 6.0432 13.8385 6.10178 13.6481 6.175C9.55142 7.72363 6.20888 8.98669 3.13359 10.1582C2.80409 10.2827 2.48558 10.4401 2.25127 10.5646C2.20368 10.5902 2.15609 10.6232 2.11948 10.6598C2.02063 10.7586 1.97303 10.8868 1.9767 11.0222C1.98402 11.1687 2.05358 11.3041 2.16707 11.403C2.26958 11.4909 2.37575 11.5604 2.47826 11.6117C2.99081 11.8753 3.49969 12.1352 4.01224 12.3988C4.71883 12.7612 5.45104 13.1347 6.1686 13.5008C6.41023 13.6253 6.564 13.4715 6.62258 13.4129L6.63722 13.3983C6.9118 13.1237 7.18272 12.8528 7.4573 12.5782L7.98815 12.0473L8.13459 11.9009C8.28469 11.7508 8.4348 11.6007 8.5849 11.4506C8.735 11.3005 8.88511 11.1504 9.03521 11.0003C9.26586 10.7696 9.45623 10.5793 9.63562 10.4072C9.77474 10.2754 9.94681 10.2131 10.1262 10.2315C10.3056 10.2498 10.4667 10.3449 10.5729 10.5024C10.7559 10.7733 10.7193 11.0735 10.463 11.3298C10.0237 11.7691 9.58803 12.2048 9.1487 12.6441C8.54463 13.2408 8.0211 13.7644 7.53418 14.244Z" fill="#1D8BFA"/>
</svg>
