<svg width="16" height="16" viewBox="0 0 16 16" fill="none" xmlns="http://www.w3.org/2000/svg">
<g clip-path="url(#clip0_1090_1954)">
<path d="M15.9922 7.53243C15.9922 7.84546 15.9922 8.1585 15.9922 8.47153C15.9805 8.58501 15.9648 8.69457 15.9531 8.80804C15.7613 10.5297 15.104 12.048 13.9457 13.3353C12.7132 14.7009 11.1871 15.5539 9.37151 15.8787C9.07022 15.9335 8.76501 15.9609 8.46371 16.0039C8.15068 16.0039 7.83764 16.0039 7.52461 16.0039C7.25853 15.9687 6.98853 15.9452 6.72245 15.9022C5.05163 15.6244 3.59602 14.9044 2.39866 13.707C0.598708 11.9071 -0.191706 9.72367 0.0391576 7.19591C0.191762 5.4977 0.856962 3.99904 1.99171 2.72343C3.49819 1.03304 5.39597 0.121323 7.65765 0.00784789C9.23456 -0.0704109 10.7176 0.297405 12.0675 1.12304C14.1453 2.39083 15.417 4.22208 15.867 6.62071C15.9218 6.92201 15.9492 7.22722 15.9922 7.53243ZM7.99416 1.24042C4.26904 1.23651 1.24434 4.26121 1.23652 7.99024C1.22869 11.7114 4.24948 14.7401 7.98242 14.7518C11.7075 14.7635 14.7518 11.7232 14.7479 7.99415C14.7479 4.26904 11.7232 1.24434 7.99416 1.24042Z" fill="#1D8BFA"/>
<path d="M8.6164 5.98695C8.6164 6.52694 8.62031 7.07084 8.61249 7.61082C8.61249 7.70473 8.63988 7.75951 8.71813 7.81821C9.41464 8.33863 10.1111 8.85905 10.8037 9.38338C11.062 9.57903 11.1481 9.8412 11.0542 10.1073C10.925 10.4751 10.4985 10.6355 10.1581 10.436C10.0759 10.389 10.0055 10.3303 9.92723 10.2755C9.17595 9.71207 8.42858 9.14861 7.67729 8.58906C7.46599 8.43254 7.36426 8.23689 7.36426 7.97864C7.36426 6.78128 7.36426 5.58392 7.36426 4.38656C7.36426 3.90136 7.77903 3.59224 8.20163 3.75267C8.45205 3.84658 8.60466 4.07353 8.60466 4.37874C8.6164 4.91481 8.6164 5.45088 8.6164 5.98695Z" fill="#1D8BFA"/>
</g>
<defs>
<clipPath id="clip0_1090_1954">
<rect width="15.9922" height="16" fill="white"/>
</clipPath>
</defs>
</svg>
