<svg width="7" height="11" viewBox="0 0 7 11" fill="none" xmlns="http://www.w3.org/2000/svg">
<path d="M3.54804 2.41272C3.54804 2.48424 3.54804 2.52256 3.54804 2.56343C3.54804 4.89548 3.54804 7.23009 3.54804 9.56215C3.54804 9.78948 3.45609 9.94529 3.27984 10.0117C3.02186 10.1088 2.74855 9.94018 2.7179 9.66177C2.71279 9.61579 2.71535 9.56726 2.71535 9.51873C2.71535 7.19944 2.71535 4.88016 2.71535 2.56087C2.71535 2.52 2.71535 2.48169 2.71535 2.42039C2.67448 2.4587 2.64638 2.48169 2.62339 2.50723C2.08444 3.04619 1.54549 3.58514 1.00909 4.12664C0.896702 4.23903 0.771542 4.30544 0.608068 4.27735C0.296446 4.22115 0.163624 3.85845 0.365412 3.61323C0.385846 3.58769 0.411389 3.56215 0.434378 3.53916C1.2211 2.74989 2.01037 1.95806 2.79709 1.16879C2.92735 1.03852 3.07039 0.964448 3.2543 1.02575C3.31049 1.04363 3.36924 1.07428 3.41011 1.1177C4.2377 1.94274 5.06273 2.76777 5.88521 3.59535C6.0027 3.71285 6.03336 3.86355 5.97461 4.01936C5.91586 4.17518 5.79581 4.26713 5.62978 4.28501C5.48163 4.30034 5.36669 4.23648 5.26707 4.13686C4.91458 3.78182 4.55954 3.42933 4.20705 3.07428C3.98993 2.85717 3.78048 2.64516 3.54804 2.41272Z" fill="#212121" stroke="#212121" stroke-width="0.2"/>
</svg>
