<svg width="19" height="20" viewBox="0 0 19 20" fill="none" xmlns="http://www.w3.org/2000/svg">
<path d="M18.189 13.956C18.0768 13.9517 17.9646 13.9517 17.8525 13.9517C17.736 13.9517 17.6152 13.9517 17.4944 13.9474C17.4642 13.9474 17.4167 13.9172 17.4124 13.9043C17.3218 13.6842 17.2355 13.4599 17.1449 13.2226C17.119 13.1579 17.0931 13.0888 17.0672 13.0241C17.1061 12.9896 17.1449 12.9508 17.1837 12.9119C17.3088 12.7955 17.434 12.6746 17.5634 12.5452C17.8611 12.2432 17.8784 11.8247 17.5979 11.5486C17.3218 11.2724 16.9033 11.294 16.6013 11.5917C16.4718 11.7168 16.3467 11.8506 16.2345 11.9714C16.1957 12.0102 16.1612 12.049 16.1267 12.0836C16.0576 12.0577 15.9886 12.0318 15.9196 12.0059C15.6823 11.9153 15.4536 11.829 15.2336 11.7384C15.2206 11.7298 15.1904 11.6866 15.1904 11.6564C15.1861 11.5184 15.1861 11.3803 15.1861 11.2466C15.1861 11.1689 15.1861 11.0869 15.1861 11.0093C15.1818 10.5778 14.9057 10.2758 14.5131 10.2715C14.5131 10.2715 14.5131 10.2715 14.5087 10.2715C14.1204 10.2715 13.8357 10.5778 13.8271 11.0049C13.8271 11.0869 13.8271 11.1689 13.8271 11.2509C13.8271 11.3846 13.8271 11.5227 13.8227 11.6564C13.8227 11.6823 13.7796 11.7427 13.7451 11.7557C13.5078 11.8635 13.2619 11.9671 13.0073 12.062C12.9685 12.0749 12.9038 12.0663 12.8822 12.049C12.7786 11.9541 12.6751 11.8506 12.5759 11.7514C12.5198 11.6953 12.4637 11.6349 12.4033 11.5788C12.1056 11.2897 11.6957 11.2811 11.4196 11.5529C11.1435 11.8247 11.1521 12.2389 11.4412 12.5366C11.5016 12.6013 11.5663 12.6617 11.631 12.7264C11.7259 12.8213 11.8208 12.9163 11.9157 13.0155C11.9373 13.0371 11.9503 13.0888 11.9459 13.1018C11.8553 13.3218 11.7561 13.5419 11.6526 13.7705C11.6267 13.8309 11.5965 13.8956 11.5663 13.9604C11.5102 13.9604 11.4541 13.9604 11.398 13.9604C11.2254 13.9604 11.0529 13.9604 10.8716 13.9604C10.4488 13.9647 10.1382 14.2537 10.1382 14.6421C10.1382 15.0304 10.4445 15.3151 10.8716 15.3194C11.0485 15.3194 11.2254 15.3194 11.398 15.3194C11.4584 15.3194 11.5145 15.3194 11.5749 15.3194L11.9632 16.2514C11.9287 16.2859 11.8899 16.3204 11.851 16.3549C11.7345 16.4671 11.6137 16.5793 11.4929 16.7001C11.165 17.0236 11.1348 17.4378 11.4196 17.7226C11.5447 17.852 11.7043 17.9211 11.8769 17.9211C12.0797 17.9211 12.2868 17.8261 12.4594 17.6492C12.5802 17.5284 12.701 17.4033 12.8045 17.2911C12.839 17.2566 12.8692 17.2221 12.8994 17.1876C12.9728 17.2178 13.0418 17.2437 13.1109 17.2696C13.3352 17.3559 13.5509 17.4378 13.7537 17.5284C13.7796 17.5371 13.8184 17.5975 13.8184 17.632C13.8271 17.7571 13.8227 17.8822 13.8227 18.0073C13.8227 18.1023 13.8227 18.2015 13.8227 18.3007C13.8357 18.7063 14.1204 18.9954 14.5044 18.9954C14.5087 18.9954 14.5131 18.9954 14.5174 18.9954C14.9014 18.991 15.1732 18.702 15.1775 18.2921C15.1775 18.1972 15.1775 18.1023 15.1775 18.0117C15.1775 17.8822 15.1775 17.7485 15.1818 17.619C15.1818 17.5845 15.2077 17.5371 15.2206 17.5284C15.445 17.4335 15.6737 17.3515 15.9153 17.2609C15.98 17.2351 16.0447 17.2135 16.1094 17.1876C16.1483 17.2264 16.1871 17.2653 16.2259 17.3041C16.3424 17.4249 16.4632 17.5457 16.5883 17.6708C16.748 17.8304 16.9421 17.9167 17.1363 17.9124C17.3088 17.9124 17.4728 17.8391 17.5979 17.7096C17.874 17.4292 17.8525 17.0193 17.5505 16.713C17.4253 16.5836 17.2916 16.4584 17.1751 16.3463C17.1363 16.3074 17.0974 16.2729 17.0629 16.2384C17.0888 16.1694 17.1147 16.1003 17.1406 16.0313C17.2269 15.8026 17.3132 15.5826 17.4038 15.3712C17.4124 15.3496 17.4685 15.3108 17.4944 15.3108C17.6324 15.3022 17.7705 15.3065 17.9042 15.3065C17.9905 15.3065 18.0768 15.3065 18.1631 15.3065C18.573 15.3022 18.8621 15.0304 18.8707 14.6507C18.8879 14.2624 18.5989 13.969 18.189 13.956ZM16.131 14.6464C16.131 15.5481 15.4191 16.2514 14.5087 16.2514C13.6415 16.2514 12.9167 15.5438 12.8908 14.6723C12.8779 14.2408 13.0548 13.8137 13.374 13.4944C13.6847 13.1881 14.0946 13.0155 14.5087 13.0155C14.526 13.0155 14.5433 13.0155 14.5605 13.0155C15.445 13.0457 16.131 13.7619 16.131 14.6464Z" fill="white" stroke="white" stroke-width="0.2"/>
<path d="M9.46497 10.1381H9.46928C10.6903 10.1381 11.8379 9.65916 12.7051 8.79626C13.568 7.93336 14.0426 6.78571 14.0426 5.56472C14.0383 3.04506 11.9889 1 9.46928 1C9.46497 1 9.46497 1 9.46065 1C6.94531 1.00431 4.89594 3.05369 4.89594 5.57335C4.89594 6.79434 5.37484 7.94199 6.23774 8.80489C7.10063 9.66347 8.24828 10.1381 9.46497 10.1381ZM6.255 5.55177C6.25931 3.79147 7.70035 2.35906 9.46928 2.35906C9.4736 2.35906 9.4736 2.35906 9.47791 2.35906C11.2468 2.36337 12.6836 3.80441 12.6879 5.56472C12.6879 6.41898 12.3557 7.22579 11.7473 7.83413C11.139 8.44247 10.3235 8.779 9.46497 8.77469C8.60207 8.77469 7.79526 8.43816 7.19124 7.82982C6.5829 7.22148 6.25068 6.41467 6.255 5.55177Z" fill="white" stroke="white" stroke-width="0.2"/>
<path d="M9.49088 16.8337C9.43911 16.8294 9.39165 16.8294 9.34419 16.8294C9.32693 16.8294 9.30967 16.8294 9.29242 16.8294H2.60929C2.49711 16.8294 2.41514 16.8294 2.38925 16.8035C2.36768 16.782 2.36337 16.7 2.36337 16.5921C2.36337 16.5188 2.36337 16.4454 2.36337 16.3721C2.36337 16.1564 2.36337 15.932 2.36337 15.7077V15.6645C2.36768 15.5221 2.36768 15.3754 2.39788 15.2417C2.51437 14.6981 2.89405 14.3313 3.209 14.0725C3.89069 13.5159 4.7277 13.1103 5.84083 12.7997C6.91945 12.4977 8.07573 12.3381 9.27516 12.3337H9.3183C9.37871 12.3337 9.44342 12.3337 9.50814 12.3251C9.89644 12.282 10.151 11.9886 10.1337 11.6089C10.1165 11.2422 9.82741 10.9747 9.44342 10.9747C7.96787 10.9704 6.54409 11.1688 5.21955 11.5701C3.98992 11.9411 3.06663 12.4114 2.31159 13.0499C1.53499 13.7057 1.12511 14.3745 1.03019 15.1554C0.982732 15.5265 0.987047 15.9104 0.995676 16.2772C0.995676 16.398 0.99999 16.5188 0.99999 16.6396C0.99999 17.5758 1.60833 18.1842 2.5532 18.1842C3.38158 18.1842 4.21428 18.1842 5.04266 18.1842H5.89261C6.23345 18.1842 6.5743 18.1842 6.91514 18.1842C7.21715 18.1842 7.52348 18.1842 7.83412 18.1842C8.36912 18.1842 8.91274 18.1842 9.44774 18.1842C9.83173 18.1842 10.1251 17.8994 10.1337 17.5241C10.151 17.1573 9.87487 16.8639 9.49088 16.8337Z" fill="white" stroke="white" stroke-width="0.2"/>
</svg>
