<svg width="19" height="10" viewBox="0 0 19 10" fill="none" xmlns="http://www.w3.org/2000/svg">
<path d="M6.958 8.138H3.066L2.422 10H0.364L3.878 0.213999H6.16L9.674 10H7.602L6.958 8.138ZM6.426 6.57L5.012 2.482L3.598 6.57H6.426ZM16.5315 4.988C17.0822 5.09067 17.5348 5.366 17.8895 5.814C18.2442 6.262 18.4215 6.77533 18.4215 7.354C18.4215 7.87667 18.2908 8.33867 18.0295 8.74C17.7775 9.132 17.4088 9.44 16.9235 9.664C16.4382 9.888 15.8642 10 15.2015 10H10.9875V0.228H15.0195C15.6822 0.228 16.2515 0.335333 16.7275 0.55C17.2128 0.764667 17.5768 1.06333 17.8195 1.446C18.0715 1.82867 18.1975 2.26267 18.1975 2.748C18.1975 3.31733 18.0435 3.79333 17.7355 4.176C17.4368 4.55867 17.0355 4.82933 16.5315 4.988ZM12.9475 4.26H14.7395C15.2062 4.26 15.5655 4.15733 15.8175 3.952C16.0695 3.73733 16.1955 3.434 16.1955 3.042C16.1955 2.65 16.0695 2.34667 15.8175 2.132C15.5655 1.91733 15.2062 1.81 14.7395 1.81H12.9475V4.26ZM14.9215 8.404C15.3975 8.404 15.7662 8.292 16.0275 8.068C16.2982 7.844 16.4335 7.52667 16.4335 7.116C16.4335 6.696 16.2935 6.36933 16.0135 6.136C15.7335 5.89333 15.3555 5.772 14.8795 5.772H12.9475V8.404H14.9215Z" fill="#BB65FF"/>
</svg>
