<svg width="16" height="11" viewBox="0 0 16 11" fill="none" xmlns="http://www.w3.org/2000/svg">
<path d="M1.46878 4.94715L1.46762 4.94737C1.09413 5.02165 0.806811 5.35857 0.845626 5.71856L0.8459 5.7211L0.845922 5.7211C0.893679 6.10284 1.21654 6.36227 1.60901 6.38379C1.67953 6.38766 1.74941 6.38766 1.81856 6.38766H1.82056H1.84254H1.86452H1.8865H1.90848H1.93046H1.95244H1.97442H1.9964H2.01838H2.04037H2.06235H2.08433H2.10631H2.12829H2.15027H2.17226H2.19424H2.21622H2.2382H2.26018H2.28217H2.30415H2.32613H2.34811H2.3701H2.39208H2.41406H2.43605H2.45803H2.48001H2.502H2.52398H2.54596H2.56795H2.58993H2.61191H2.6339H2.65588H2.67787H2.69985H2.72183H2.74382H2.7658H2.78779H2.80977H2.83175H2.85374H2.87572H2.89771H2.91969H2.94168H2.96366H2.98565H3.00763H3.02962H3.0516H3.07359H3.09557H3.11756H3.13955H3.16153H3.18352H3.2055H3.22749H3.24947H3.27146H3.29345H3.31543H3.33742H3.3594H3.38139H3.40338H3.42536H3.44735H3.46934H3.49132H3.51331H3.5353H3.55728H3.57927H3.60126H3.62325H3.64523H3.66722H3.68921H3.71119H3.73318H3.75517H3.77716H3.79914H3.82113H3.84312H3.86511H3.88709H3.90908H3.93107H3.95306H3.97505H3.99703H4.01902H4.04101H4.063H4.08499H4.10698H4.12896H4.15095H4.17294H4.19493H4.21692H4.23891H4.2609H4.28289H4.30487H4.32686H4.34885H4.37084H4.39283H4.41482H4.43681H4.4588H4.48079H4.50278H4.52477H4.54676H4.56874H4.59073H4.61272H4.63471H4.6567H4.67869H4.70068H4.72267H4.74466H4.76665H4.78864H4.81063H4.83262H4.85461H4.8766H4.89859H4.92058H4.94257H4.96456H4.98655H5.00854H5.03053H5.05253H5.07452H5.09651H5.1185H5.14049H5.16248H5.18447H5.20646H5.22845H5.25044H5.27243H5.29442H5.31641H5.3384H5.3604H5.38239H5.40438H5.42637H5.44836H5.47035H5.49234H5.51433H5.53632H5.55832H5.58031H5.6023H5.62429H5.64628H5.66827H5.69026H5.71226H5.73425H5.75624H5.77823H5.80022H5.82221H5.84421H5.8662H5.88819H5.91018H5.93217H5.95416H5.97616H5.99815H6.02014H6.04213H6.06412H6.08612H6.10811H6.1301H6.15209H6.17408H6.19608H6.21807H6.24006H6.26205H6.28405H6.30604H6.32803H6.35002H6.37201H6.39401H6.416H6.43799H6.45998H6.48198H6.50397H6.52596H6.54795H6.56995H6.59194H6.61393H6.63592H6.65792H6.67991H6.7019H6.72389H6.74588H6.76788H6.78987H6.81186H6.83386H6.85585H6.87784H6.89983H6.92183H6.94382H6.96581H6.9878H7.0098H7.03179H7.05378H7.07577H7.09777H7.11976H7.14175H7.16374H7.18574H7.20773H7.22972H7.25172H7.27371H7.2957H7.31769H7.33969H7.36168H7.38367H7.40566H7.42766H7.44965H7.47164H7.49363H7.51563H7.53762H7.55961H7.58161H7.6036H7.62559H7.64758H7.66958H7.69157H7.71356H7.73555H7.75755H7.77954H7.80153H7.82352H7.84552H7.86751H7.8895H7.9115H7.93349H7.95548H7.97747H7.99947H8.02146H8.04345H8.06544H8.08744H8.10943H8.13142H8.15341H8.17541H8.1974H8.21939H8.24138H8.26338H8.28537H8.30736H8.32935H8.35135H8.37334H8.39533H8.41732H8.43932H8.46131H8.4833H8.50529H8.52728H8.54928H8.57127H8.59326H8.61525H8.63725H8.65924H8.68123H8.70322H8.72521H8.74721H8.7692H8.79119H8.81318H8.83517H8.85717H8.87916H8.90115H8.92314H8.94513H8.96713H8.98912H9.01111H9.0331H9.05509H9.07708H9.09908H9.12107H9.14306H9.16505H9.18704H9.20903H9.23102H9.25302H9.27501H9.297H9.31899H9.34098H9.36297H9.38496H9.40696H9.42895H9.45094H9.47293H9.49492H9.51691H9.5389H9.56089H9.58288H9.60488H9.62687H9.64886H9.67085H9.69284H9.71483H9.73682H9.75881H9.7808H9.80279H9.82478H9.84677H9.86876H9.89075H9.91274H9.93474H9.95673H9.97872H10.0007H10.0227H10.0447H10.0667H10.0887H10.1107H10.1326H10.1546H10.1766H10.1986H10.2206H10.2426H10.2646H10.2866H10.3086H10.3306H10.3525H10.3745H10.3965H10.4185H10.4405H10.4625H10.4845H10.5065H10.5285H10.5504H10.5724H10.5944H10.6164H10.6384H10.6604H10.6824H10.7044H10.7264H10.7483H10.7703H10.7923H10.8143H10.8363H10.8583H10.8803H10.9023H10.9243H10.9462H10.9682H10.9902H11.0122H11.0342H11.0562H11.0782H11.1002H11.1221H11.1441H11.1661H11.1881H11.2101H11.2321H11.2541H11.2761H11.298H11.32H11.342H11.364H11.386H11.408H11.43H11.4519H11.4739H11.4959H11.5179H11.5399H11.5619H11.5839H11.6059H11.6278H11.6498H11.6718H11.6938H11.7158H11.7378H11.7598H11.7817H11.8037H11.8257H11.8477H11.8697H11.8917H11.9137H11.9356H11.9576H11.9796H12.0016H12.0236H12.0456H12.0675H12.0895H12.1115H12.1335H12.1555H12.1775H12.1994H12.2214H12.2434H12.2654H12.2874H12.3094H12.3314H12.3533H12.3753H12.3973H12.4193H12.4413H12.4633H12.4852H12.5072H12.5292H12.5512H12.5732H12.5951H12.6171H12.6391H12.6611H12.6831H12.7051H12.727H12.749H12.771H12.793H12.815H12.837H12.8589H12.8809H12.9029H12.9169L1.46878 4.94715ZM1.46878 4.94715C1.56622 4.92856 1.66762 4.92921 1.75198 4.92976C1.76563 4.92984 1.77884 4.92993 1.79151 4.92993H1.81356H1.83561H1.85767H1.87972H1.90177H1.92383H1.94588H1.96794H1.98999H2.01204H2.0341H2.05615H2.0782H2.10026H2.12231H2.14436H2.16642H2.18847H2.21052H2.23258H2.25463H2.27668H2.29874H2.32079H2.34284H2.3649H2.38695H2.40901H2.43106H2.45311H2.47517H2.49722H2.51927H2.54133H2.56338H2.58543H2.60749H2.62954H2.65159H2.67365H2.6957H2.71775H2.73981H2.76186H2.78391H2.80597H2.82802H2.85007H2.87213H2.89418H2.91624H2.93829H2.96034H2.9824H3.00445H3.0265H3.04856H3.07061H3.09266H3.11472H3.13677H3.15882H3.18088H3.20293H3.22498H3.24704H3.26909H3.29114H3.3132H3.33525H3.35731H3.37936H3.40141H3.42347H3.44552H3.46757H3.48963H3.51168H3.53373H3.55579H3.57784H3.59989H3.62195H3.644H3.66605H3.68811H3.71016H3.73221H3.75427H3.77632H3.79837H3.82043H3.84248H3.86454H3.88659H3.90864H3.9307H3.95275H3.9748H3.99686H4.01891H4.04096H4.06302H4.08507H4.10712H4.12918H4.15123H4.17328H4.19534H4.21739H4.23944H4.2615H4.28355H4.3056H4.32766H4.34971H4.37177H4.39382H4.41587H4.43793H4.45998H4.48203H4.50409H4.52614H4.54819H4.57025H4.5923H4.61435H4.63641H4.65846H4.68051H4.70257H4.72462H4.74667H4.76873H4.79078H4.81283H4.83489H4.85694H4.879H4.90105H4.9231H4.94516H4.96721H4.98926H5.01132H5.03337H5.05542H5.07748H5.09953H5.12158H5.14364H5.16569H5.18774H5.2098H5.23185H5.2539H5.27596H5.29801H5.32007H5.34212H5.36417H5.38623H5.40828H5.43033H5.45239H5.47444H5.49649H5.51855H5.5406H5.56265H5.58471H5.60676H5.62881H5.65087H5.67292H5.69497H5.71703H5.73908H5.76113H5.78319H5.80524H5.8273H5.84935H5.8714H5.89346H5.91551H5.93756H5.95962H5.98167H6.00372H6.02578H6.04783H6.06988H6.09194H6.11399H6.13604H6.1581H6.18015H6.2022H6.22426H6.24631H6.26836H6.29042H6.31247H6.33453H6.35658H6.37863H6.40069H6.42274H6.44479H6.46685H6.4889H6.51095H6.53301H6.55506H6.57711H6.59917H6.62122H6.64327H6.66533H6.68738H6.70943H6.73149H6.75354H6.7756H6.79765H6.8197H6.84176H6.86381H6.88586H6.90792H6.92997H6.95202H6.97408H6.99613H7.01818H7.04024H7.06229H7.08434H7.1064H7.12845H7.1505H7.17256H7.19461H7.21666H7.23872H7.26077H7.28282H7.30488H7.32693H7.34899H7.37104H7.39309H7.41515H7.4372H7.45925H7.48131H7.50336H7.52541H7.54747H7.56952H7.59157H7.61363H7.63568H7.65773H7.67979H7.70184H7.7239H7.74595H7.768H7.79006H7.81211H7.83416H7.85622H7.87827H7.90032H7.92238H7.94443H7.96648H7.98854H8.01059H8.03264H8.0547H8.07675H8.0988H8.12086H8.14291H8.16496H8.18702H8.20907H8.23112H8.25318H8.27523H8.29729H8.31934H8.34139H8.36345H8.3855H8.40755H8.42961H8.45166H8.47371H8.49577H8.51782H8.53987H8.56193H8.58398H8.60603H8.62809H8.65014H8.67219H8.69425H8.7163H8.73836H8.76041H8.78246H8.80452H8.82657H8.84862H8.87068H8.89273H8.91478H8.93684H8.95889H8.98094H9.003H9.02505H9.0471H9.06916H9.09121H9.11326H9.13532H9.15737H9.17942H9.20148H9.22353H9.24559H9.26764H9.28969H9.31175H9.3338H9.35585H9.37791H9.39996H9.42201H9.44407H9.46612H9.48817H9.51023H9.53228H9.55433H9.57639H9.59844H9.62049H9.64255H9.6646H9.68666H9.70871H9.73076H9.75282H9.77487H9.79692H9.81898H9.84103H9.86308H9.88514H9.90719H9.92924H9.9513H9.97335H9.9954H10.0175H10.0395H10.0616H10.0836H10.1057H10.1277H10.1498H10.1718H10.1939H10.2159H10.238H10.26H10.2821H10.3042H10.3262H10.3483H10.3703H10.3924H10.4144H10.4365H10.4585H10.4806H10.5026H10.5247H10.5467H10.5688H10.5908H10.6129H10.635H10.657H10.6791H10.7011H10.7232H10.7452H10.7673H10.7893H10.8114H10.8334H10.8555H10.8775H10.8996H10.9216H10.9437H10.9658H10.9878H11.0099H11.0319H11.054H11.076H11.0981H11.1201H11.1422H11.1642H11.1863H11.2083H11.2304H11.2525H11.2745H11.2966H11.3186H11.3407H11.3627H11.3848H11.4068H11.4289H11.4509H11.473H11.495H11.5171H11.5391H11.5612H11.5833H11.6053H11.6274H11.6494H11.6715H11.6935H11.7156H11.7376H11.7597H11.7817H11.8038H11.8258H11.8479H11.8699H11.892H11.9141H11.9361H11.9582H11.9802H12.0023H12.0243H12.0464H12.0684H12.0905H12.1125H12.1346H12.1566H12.1787H12.2008H12.2228H12.2449H12.2669H12.289H12.311H12.3331H12.3551H12.3772H12.3992H12.4213H12.4433H12.4654H12.4874H12.5095H12.5316H12.5536H12.5757H12.5977H12.6198H12.6418H12.6639H12.6859H12.708H12.73H12.7521H12.7741H12.7962H12.8182H12.8403H12.8624H12.8844H12.9065H12.9122L1.46878 4.94715ZM10.9162 10.1878L10.9107 10.1922L10.8171 10.0749L10.9162 10.1878Z" fill="#212121" stroke="#212121" stroke-width="0.3"/>
</svg>
