<svg width="19" height="12" viewBox="0 0 19 12" fill="none" xmlns="http://www.w3.org/2000/svg">
<g clip-path="url(#clip0_1090_815)">
<path d="M9.18612 0C11.4827 0.0278035 13.5958 0.884152 15.4642 2.40222C16.2983 3.08063 17.0212 3.86469 17.6551 4.73216C18.2445 5.53846 18.2501 6.45598 17.6551 7.25672C16.2482 9.15848 14.5022 10.6265 12.2556 11.4217C9.3585 12.4449 6.59483 12.0834 3.97018 10.5264C2.53552 9.67563 1.36221 8.53012 0.394646 7.18443C-0.111378 6.47822 -0.139181 5.55514 0.361282 4.86006C1.79038 2.8582 3.60873 1.35125 5.95535 0.528267C6.95628 0.177943 7.99057 0.0055607 9.18612 0ZM8.88028 10.6599C9.83116 10.6599 10.6097 10.5542 11.3715 10.3262C13.6069 9.65338 15.2918 8.24652 16.6319 6.38925C16.8265 6.12234 16.8043 5.82762 16.593 5.53846C15.8645 4.53753 15.0249 3.64782 13.9961 2.94717C11.416 1.18443 8.65785 0.817424 5.7496 2.0241C3.96462 2.76367 2.59669 4.03151 1.47342 5.58295C1.27324 5.86098 1.28992 6.1557 1.50123 6.45042C2.01837 7.15663 2.59668 7.81279 3.25841 8.38554C4.92106 9.82576 6.82282 10.6321 8.88028 10.6599Z" fill="#F78F1E"/>
<path d="M5.76058 5.62205C5.81618 4.62112 6.32221 3.51454 7.63453 2.95847C8.81896 2.45801 10.0145 2.52473 11.0655 3.30879C12.1165 4.09285 12.4835 5.21055 12.3444 6.48952C12.1498 8.25226 10.7652 9.50898 8.66326 9.30879C6.62805 9.11417 5.73277 7.45708 5.76058 5.62205ZM9.04695 7.99647C10.2091 7.99647 11.0432 7.17348 11.0488 6.01686C11.0544 4.84355 10.2258 4.00388 9.05807 4.00388C7.89589 4.00388 7.06178 4.82687 7.05622 5.98349C7.0451 7.1568 7.87364 7.99091 9.04695 7.99647Z" fill="#F78F1E"/>
</g>
<defs>
<clipPath id="clip0_1090_815">
<rect width="18.1001" height="12" fill="white"/>
</clipPath>
</defs>
</svg>
