<svg width="9" height="14" viewBox="0 0 9 14" fill="none" xmlns="http://www.w3.org/2000/svg">
<path d="M1.80663 13C1.72583 13 1.63857 12.9871 1.55131 12.958C1.25074 12.8643 1.07622 12.6639 1.01481 12.3504C0.969566 12.108 1.02774 11.8947 1.19257 11.7008C1.22165 11.6685 1.25397 11.6329 1.28952 11.5974L5.65257 7.23431C5.6752 7.21169 5.69459 7.18907 5.72044 7.16644L5.75276 7.13089L5.88204 6.99838L5.75599 6.86588C5.74306 6.85295 5.73337 6.84002 5.72044 6.83033C5.69459 6.80447 5.67196 6.77862 5.64934 6.75599L4.07541 5.18206C3.13816 4.24805 2.20415 3.3108 1.27013 2.37678C0.995422 2.10207 0.927552 1.76273 1.07945 1.44923C1.1861 1.22623 1.35739 1.08726 1.60625 1.01939C1.62887 1.01293 1.64826 1.00646 1.66765 1H1.90358C2.12658 1.04848 2.3011 1.18745 2.50795 1.39752C4.3275 3.22354 6.13412 5.0237 7.50444 6.39402C7.77269 6.66227 7.84702 6.93375 7.73714 7.25047C7.69836 7.36359 7.62402 7.47994 7.53353 7.57043C5.73983 9.37059 3.92028 11.1869 2.35281 12.7511C2.18799 12.916 2.00377 13 1.80663 13Z" fill="#F78F1E" stroke="#F78F1E" stroke-width="0.5"/>
</svg>
